<?xml version="1.0" encoding="utf-8"?>
<!DOCTYPE svg PUBLIC "-//W3C//DTD SVG 1.1//EN" "http://www.w3.org/Graphics/SVG/1.1/DTD/svg11.dtd">
<svg version="1.1" id="icon-blog" xmlns="http://www.w3.org/2000/svg" xmlns:xlink="http://www.w3.org/1999/xlink" x="0px" y="0px"
	 width="50px" height="50px" viewBox="0 0 50 50" enable-background="new 0 0 50 50" xml:space="preserve">
<polygon fill="#FF6843" points="32.727,37.83 22,32.572 37.688,1.158 48.375,6.471 "/>
<polygon fill="#FFE2A7" points="32.721,37.852 25.28,44.932 21,49 21.37,42.99 22,32.561 "/>
<polygon fill="#FF6843" points="25.28,44.932 21,49 21.37,42.99 "/>
<polygon fill="#DFDFDF" points="30.79,8.971 28.79,12.971 4,12.971 4,8.971 "/>
<polygon fill="#DFDFDF" points="26.79,16.971 24.79,20.971 4,20.971 4,16.971 "/>
<polygon fill="#DFDFDF" points="22.8,24.971 20.8,28.971 4,28.971 4,24.971 "/>
<polygon fill="#DFDFDF" points="19.98,32.971 19.73,36.971 4,36.971 4,32.971 "/>
<polygon opacity="0.25" fill="#C42A1E" enable-background="new    " points="48.38,6.471 32.73,37.83 25.28,44.932 21,49 21,48.98
	28.73,36.83 45.17,4.881 "/>
</svg>