<?xml version="1.0" encoding="utf-8"?>
<!DOCTYPE svg PUBLIC "-//W3C//DTD SVG 1.1//EN" "http://www.w3.org/Graphics/SVG/1.1/DTD/svg11.dtd">
<svg version="1.1" id="icon-users" xmlns="http://www.w3.org/2000/svg" xmlns:xlink="http://www.w3.org/1999/xlink" x="0px" y="0px"
	 width="50px" height="50px" viewBox="0 0 50 50" enable-background="new 0 0 50 50" xml:space="preserve">
<linearGradient id="SVGID_1_" gradientUnits="userSpaceOnUse" x1="1095.707" y1="1590.3262" x2="1107.9801" y2="1615.3397" gradientTransform="matrix(1 0 0 1 -1090.3984 -1581.9609)">
	<stop  offset="0" style="stop-color:#EAECEE"/>
	<stop  offset="1" style="stop-color:#D7D8DA"/>
</linearGradient>
<path fill="url(#SVGID_1_)" d="M12.94,16.535c0,3.104,1.222,5.928,3.213,8.013c-4.957,3.121-8.255,8.583-9.553,14.219
	c-2.054-0.978-3.935-2.252-5.6-3.761c0.39-1.753,0.996-3.462,1.792-5.067c1.713-3.828,5.09-7.279,9.044-8.752
	c-4.375-2.453-5.98-8.17-3.513-12.541c2.548-4.512,8.516-6.025,12.907-3.254C16.439,6.825,12.94,11.284,12.94,16.535z"/>
<linearGradient id="SVGID_2_" gradientUnits="userSpaceOnUse" x1="1121.2383" y1="1585.1426" x2="1137.368" y2="1618.0168" gradientTransform="matrix(1 0 0 1 -1090.3984 -1581.9609)">
	<stop  offset="0" style="stop-color:#EAECEE"/>
	<stop  offset="1" style="stop-color:#D7D8DA"/>
</linearGradient>
<path fill="url(#SVGID_2_)" d="M49,35.006c-1.813,1.646-3.881,3.013-6.117,4.007c-1.324-5.798-4.646-11.398-9.791-14.564
	c2.746-2.951,3.78-7.217,2.676-11.096c-1.021-3.58-3.783-6.524-7.285-7.779c4.332-2.957,10.42-1.602,13.099,2.893
	c2.606,4.383,1.03,10.232-3.417,12.723c2.762,1.018,5.133,2.98,6.914,5.293C46.932,28.89,48.492,31.981,49,35.006
	C47.197,36.642,48.977,34.862,49,35.006z"/>
<circle fill="#3E91FF" cx="24.574" cy="16.534" r="9.654"/>
<path fill="#3E91FF" d="M40.445,39.465c-4.281,3.903-9.979,6.291-16.23,6.291c-6.253,0-11.957-2.388-16.241-6.3
	c0.246-1.087,0.563-2.143,0.952-3.148c1.705-4.584,4.649-8.283,8.282-10.387c1.92,1.411,4.292,2.246,6.862,2.246
	c2.62,0,5.046-0.863,6.991-2.325c3.633,2.058,6.594,5.683,8.338,10.212C39.827,37.142,40.176,38.283,40.445,39.465z"/>
<path fill="#4082CE" d="M33.053,44.081c0.01-0.352,0.02-0.7,0.02-1.051c0-6.094-2.434-11.551-6.258-15.188
	c1.566-0.377,3.004-1.067,4.248-2c3.631,2.056,6.59,5.679,8.342,10.214c0.426,1.088,0.773,2.229,1.041,3.408
	C38.297,41.418,35.799,42.994,33.053,44.081z"/>
</svg>