<?xml version="1.0" encoding="utf-8"?>
<!DOCTYPE svg PUBLIC "-//W3C//DTD SVG 1.1//EN" "http://www.w3.org/Graphics/SVG/1.1/DTD/svg11.dtd">
<svg version="1.1" id="icon-settings-system" xmlns="http://www.w3.org/2000/svg" xmlns:xlink="http://www.w3.org/1999/xlink"
	 x="0px" y="0px" width="50px" height="50px" viewBox="0 0 50 50" enable-background="new 0 0 50 50" xml:space="preserve">
<path fill="#E0E0E0" d="M42,9.406C42,8.077,40.923,7,39.594,7h-0.188C38.077,7,37,8.077,37,9.406v31.188
	C37,41.923,38.077,43,39.406,43h0.188C40.923,43,42,41.923,42,40.594V9.406z"/>
<path fill="#66B1E3" d="M42,18v22.59c0,1.33-1.08,2.41-2.41,2.41h-0.18C38.08,43,37,41.92,37,40.59V18H42z"/>
<path fill="#E0E0E0" d="M28,9.406C28,8.077,26.923,7,25.594,7h-0.188C24.077,7,23,8.077,23,9.406v31.188
	C23,41.923,24.077,43,25.406,43h0.188C26.923,43,28,41.923,28,40.594V9.406z"/>
<path fill="#66B1E3" d="M28,29v11.59c0,1.33-1.08,2.41-2.41,2.41h-0.18C24.08,43,23,41.92,23,40.59V29H28z"/>
<path fill="#E0E0E0" d="M14,9.406C14,8.077,12.923,7,11.594,7h-0.188C10.077,7,9,8.077,9,9.406v31.188C9,41.923,10.077,43,11.406,43
	h0.188C12.923,43,14,41.923,14,40.594V9.406z"/>
<path fill="#66B1E3" d="M14,24v16.59c0,1.33-1.08,2.41-2.41,2.41h-0.18C10.08,43,9,41.92,9,40.59V24H14z"/>
<circle fill="#F77463" cx="39.5" cy="18.5" r="5.5"/>
<circle fill="#FFFFFF" cx="39.5" cy="18.5" r="2.5"/>
<circle fill="#F77463" cx="25.5" cy="31.5" r="5.5"/>
<circle fill="#FFFFFF" cx="25.5" cy="31.5" r="2.5"/>
<circle fill="#F77463" cx="11.5" cy="24.5" r="5.5"/>
<circle fill="#FFFFFF" cx="11.5" cy="24.5" r="2.5"/>
</svg>
