<?xml version="1.0" encoding="utf-8"?>
<!DOCTYPE svg PUBLIC "-//W3C//DTD SVG 1.1//EN" "http://www.w3.org/Graphics/SVG/1.1/DTD/svg11.dtd">
<svg version="1.1" id="icon-cache" xmlns="http://www.w3.org/2000/svg" xmlns:xlink="http://www.w3.org/1999/xlink" x="0px" y="0px"
	 width="50px" height="50px" viewBox="0 0 50 50" enable-background="new 0 0 50 50" xml:space="preserve">
<path fill="#EF5063" d="M40.424,9H32V6c0-1.269-0.73-2-2-2h-9c-1.269,0-2,0.731-2,2v3h-8.73C8.354,9,7,10.161,7,12.077V14h37v-1.923
	C44,10.162,42.34,9,40.424,9z M29,9h-7V7c0-0.635,0.365-1,1-1h5c0.635,0,1,0.365,1,1V9z"/>
<path fill="#FF5161" d="M8,16l3.423,29.846c0.22,1.42,1.038,2.154,2.308,2.154h24.231c1.269,0,2.11-0.85,2.308-2.154L43,16H8z
	 M22,40.912C22,42.064,21.065,43,19.911,43h-0.822C17.935,43,17,42.064,17,40.912V23.088C17,21.935,17.935,21,19.089,21h0.822
	C21.065,21,22,21.935,22,23.088V40.912z M34,40.912C34,42.064,33.064,43,31.912,43h-0.824C29.936,43,29,42.064,29,40.912V23.088
	C29,21.935,29.936,21,31.088,21h0.824C33.064,21,34,21.935,34,23.088V40.912z"/>
</svg>