<?xml version="1.0" encoding="utf-8"?>
<!DOCTYPE svg PUBLIC "-//W3C//DTD SVG 1.1//EN" "http://www.w3.org/Graphics/SVG/1.1/DTD/svg11.dtd">
<svg version="1.1" id="icon-weather-lightning" xmlns="http://www.w3.org/2000/svg" xmlns:xlink="http://www.w3.org/1999/xlink"
	 x="0px" y="0px" width="100px" height="100px" viewBox="25.5 75.5 100 100" enable-background="new 25.5 75.5 100 100"
	 xml:space="preserve">
<polygon fill="#F77463" points="68.999,117.186 65.941,141.186 74.468,141.186 70.707,163.664 86.287,131.186 76.48,131.186
	81.516,117.186 "/>
<path fill="#66B1E3" d="M95.121,142.5H92v-5h3.121c7.084,0,12.848-6.732,12.848-13.814c0-7.119-5.764-13.24-12.848-13.24
	c-1.186,0-2.443,0.051-3.848,0.49l-3.148,0.898l-0.404-3.313c-0.951-7.711-7.529-13.547-15.303-13.547
	c-8.511,0-15.436,6.914-15.436,15.424c0,1.223,0.146,2.438,0.436,3.631l0.932,3.832l-3.92-0.453
	c-0.33-0.039-0.668-0.053-1.013-0.053c-5.104,0-9.255,4.809-9.255,9.91c0,5.105,4.151,10.234,9.255,10.234H59v5h-5.583
	c-8.139,0-14.759-7.344-14.759-15.486c0-7.5,5.626-13.916,12.882-14.842c-0.04-0.525-0.062-1.154-0.062-1.684
	c0-11.545,9.395-20.988,20.938-20.988c9.517,0,17.712,6.398,20.174,15.34c0.861-0.137,1.699-0.215,2.529-0.215
	c10.118,0,18.351,8.662,18.351,18.814C113.473,133.555,105.238,142.5,95.121,142.5z"/>
</svg>
