<?xml version="1.0" encoding="utf-8"?>
<!DOCTYPE svg PUBLIC "-//W3C//DTD SVG 1.1//EN" "http://www.w3.org/Graphics/SVG/1.1/DTD/svg11.dtd">
<svg version="1.1" id="icon-weather-drizzle-moon" xmlns="http://www.w3.org/2000/svg" xmlns:xlink="http://www.w3.org/1999/xlink"
	 x="0px" y="0px" width="100px" height="100px" viewBox="25.5 75.5 100 100" enable-background="new 25.5 75.5 100 100"
	 xml:space="preserve">
<g>
	<path fill="#66B1E3" d="M113.088,104.416c-1.461,0.511-2.998,0.771-4.567,0.771c-7.76,0-14.069-6.311-14.069-14.069
		c0-2.002,0.412-3.93,1.213-5.726l1.654-3.668l-5.05,0.649c-9.157,1.48-17.769,8.938-17.769,18.052v0.063
		c2,0.369,3.785,0.855,4.791,1.473c1.083-6.375,4.696-11.904,10.346-14.286c-0.217,1.126,0.08,2.273,0.08,3.442
		c0,10.14,8.467,18.398,18.607,18.398c0.616,0,1.326-0.033,1.932-0.098c-1.883,3.561-5.023,7.313-8.822,8.568
		c1.829,0.572,3.58,3.514,5.128,3.514h0.011c4.535-3,7.977-8.082,9.329-13.428l0.985-4.437L113.088,104.416z"/>
</g>
<g>
	<path fill="#66B1E3" d="M90.255,150.5H53.088c-7.544,0-13.453-5.837-13.453-13.288c0-6.683,4.984-12.733,11.461-13.691
		c-0.022-0.37-0.033-0.991-0.033-1.362c0-10.451,8.505-19.08,18.959-19.08c8.523,0,15.879,5.626,18.192,13.583
		c0.697-0.1,1.376-0.181,2.041-0.181c9.183,0,16.653,8.417,16.653,17.552C106.908,143.122,99.438,150.5,90.255,150.5z
		 M53.088,128.379c-4.458,0-7.95,4.193-7.95,8.584c0,4.365,3.491,8.537,7.95,8.537h37.167c6.253,0,11.15-5.576,11.15-11.732
		c0-6.1-5.001-11.438-11.15-11.438c-0.999,0-2.09,0.002-3.338,0.393l-3.15,0.896l-0.403-3.325
		c-0.827-6.721-6.563-11.813-13.342-11.813c-7.419,0-13.455,6.022-13.455,13.44c0,1.061,0.127,2.118,0.379,3.155l0.934,3.844
		l-3.932-0.468C53.668,128.418,53.38,128.379,53.088,128.379z"/>
</g>
<g>
	<path fill="#E0E0E0" d="M43.662,163.221c-0.532,0-1.072-0.147-1.551-0.466c-1.301-0.859-1.661-2.607-0.803-3.911l2.795-4.84
		c0.857-1.301,2.608-1.661,3.91-0.801c1.302,0.856,1.661,2.606,0.803,3.908l-2.793,4.839
		C45.479,162.774,44.58,163.221,43.662,163.221z"/>
</g>
<g>
	<path fill="#E0E0E0" d="M54.367,170.473c-0.532,0-1.07-0.151-1.547-0.467c-1.303-0.854-1.666-2.604-0.809-3.907l3.945-6.616
		c0.856-1.302,2.607-1.663,3.908-0.808c1.303,0.856,1.665,2.604,0.809,3.908l-3.944,6.616
		C56.187,170.024,55.285,170.473,54.367,170.473z"/>
</g>
<g>
	<path fill="#E0E0E0" d="M70.418,166.151c-0.533,0-1.07-0.15-1.549-0.468c-1.303-0.857-1.662-2.604-0.805-3.908l3.643-6.128
		c0.858-1.302,2.608-1.662,3.91-0.802c1.303,0.859,1.662,2.608,0.805,3.908l-3.643,6.129
		C72.236,165.705,71.336,166.151,70.418,166.151z"/>
</g>
<g>
	<path fill="#E0E0E0" d="M80.986,171.877c-0.533,0-1.072-0.151-1.551-0.467c-1.301-0.859-1.661-2.61-0.804-3.909l7.93-12.627
		c0.857-1.3,2.607-1.661,3.91-0.804c1.301,0.86,1.66,2.609,0.804,3.91l-7.931,12.625C82.804,171.429,81.903,171.877,80.986,171.877z
		"/>
</g>
<circle fill="#E0E0E0" cx="97.293" cy="164.537" r="2.998"/>
</svg>
