<?xml version="1.0" encoding="utf-8"?>
<!DOCTYPE svg PUBLIC "-//W3C//DTD SVG 1.1//EN" "http://www.w3.org/Graphics/SVG/1.1/DTD/svg11.dtd">
<svg version="1.1" id="icon-weather-rain-sun" xmlns="http://www.w3.org/2000/svg" xmlns:xlink="http://www.w3.org/1999/xlink"
	 x="0px" y="0px" width="100px" height="100px" viewBox="25.5 75.5 100 100" enable-background="new 25.5 75.5 100 100"
	 xml:space="preserve">
<path fill="#E0E0E0" d="M100.621,171.794c-0.49,0-0.985-0.138-1.426-0.429c-1.195-0.79-1.525-2.397-0.737-3.594l7.022-11.251
	c0.79-1.197,2.396-1.527,3.594-0.739c1.196,0.79,1.526,2.398,0.738,3.592l-7.023,11.254
	C102.291,171.383,101.464,171.794,100.621,171.794z"/>
<path fill="#E0E0E0" d="M86.665,171.794c-0.49,0-0.985-0.138-1.427-0.429c-1.195-0.79-1.526-2.397-0.737-3.594l7.022-11.251
	c0.79-1.197,2.395-1.527,3.594-0.739c1.196,0.79,1.526,2.398,0.738,3.592l-7.022,11.254
	C88.334,171.383,87.506,171.794,86.665,171.794z"/>
<path fill="#E0E0E0" d="M73.637,171.794c-0.489,0-0.984-0.138-1.424-0.429c-1.195-0.79-1.527-2.397-0.738-3.594l7.022-11.251
	c0.79-1.197,2.396-1.527,3.595-0.739c1.195,0.79,1.525,2.398,0.736,3.592l-7.021,11.254
	C75.308,171.383,74.48,171.794,73.637,171.794z"/>
<path fill="#E0E0E0" d="M59.682,171.794c-0.491,0-0.985-0.138-1.426-0.429c-1.196-0.79-1.527-2.397-0.737-3.594l7.022-11.251
	c0.789-1.197,2.395-1.527,3.594-0.739c1.194,0.79,1.525,2.398,0.738,3.592l-7.023,11.254
	C61.35,171.383,60.523,171.794,59.682,171.794z"/>
<path fill="#F77463" d="M63,89.758c-1.52,0-2.5-1.232-2.5-2.752v-8.255C60.5,77.231,61.48,76,63,76s2.5,1.231,2.5,2.751v8.255
	C65.5,88.525,64.52,89.758,63,89.758z"/>
<path fill="#F77463" d="M41.549,117.5h-9.631c-1.52,0-2.751-0.98-2.751-2.5s1.232-2.5,2.751-2.5h9.631c1.52,0,2.752,0.98,2.752,2.5
	S43.068,117.5,41.549,117.5z"/>
<path fill="#F77463" d="M47.66,98.8c-0.704,0-1.408-0.269-1.946-0.806l-7.064-7.063c-1.075-1.073-1.075-2.815,0-3.891
	c1.075-1.075,2.817-1.075,3.892,0l7.064,7.062c1.075,1.074,1.075,2.816,0,3.892C49.068,98.531,48.363,98.8,47.66,98.8z"/>
<path fill="#F77463" d="M81.047,98.8c-0.703,0-1.408-0.269-1.945-0.806c-1.074-1.075-1.074-2.817,0-3.892l7.064-7.062
	c1.075-1.075,2.816-1.075,3.892,0c1.074,1.075,1.074,2.817,0,3.891l-7.064,7.063C82.455,98.531,81.751,98.8,81.047,98.8z"/>
<path fill="#F77463" d="M40.596,139.253c-0.704,0-1.409-0.27-1.946-0.807c-1.075-1.075-1.075-2.816,0-3.891l7.064-7.063
	c1.075-1.075,2.817-1.075,3.891,0c1.075,1.075,1.075,2.816,0,3.891l-7.064,7.063C42.004,138.983,41.3,139.253,40.596,139.253z"/>
<path fill="#66B1E3" d="M105.255,152.5H68.088c-7.544,0-13.453-5.689-13.453-13.141c0-6.684,4.984-13.41,11.461-14.368
	c-0.022-0.37-0.033-1.329-0.033-1.7c0-10.451,8.505-19.25,18.959-19.25c8.523,0,15.879,5.541,18.192,13.498
	c0.697-0.1,1.376-0.223,2.041-0.223c9.183,0,16.653,9.749,16.653,18.884C121.908,145.29,114.438,152.5,105.255,152.5z
	 M68.088,129.173c-4.459,0-7.949,4.796-7.949,9.187c0,4.365,3.49,9.141,7.949,9.141h37.167c6.253,0,11.15-6.18,11.15-12.336
	c0-6.1-5.001-11.739-11.15-11.739c-0.999,0-2.09-0.149-3.338,0.241l-3.15,0.82l-0.403-3.363c-0.827-6.721-6.563-11.83-13.342-11.83
	c-7.419,0-13.455,6.012-13.455,13.43c0,1.061,0.127,2.114,0.379,3.151l0.934,3.841l-3.932-0.469
	C68.668,129.213,68.38,129.173,68.088,129.173z"/>
<path fill="#F77463" d="M64.539,95.468c-9.508,0-17.253,7.746-17.253,17.253c0,6.095,3.192,11.975,7.979,15.028
	c1.061-1.706,3.328-2.437,3.328-2.437c-3.469-0.938-6.177-6.885-6.177-11.438c0-6.48,4.583-13.223,12.122-13.223
	c3.234,0,6.326,1.578,8.461,3.682c0.453-0.316,1.861-1.138,2.219-1.303c0.33-0.166,1.125-0.475,1.152-0.488
	c0.164-0.07,1.21-0.512,1.582-0.623C74.789,98.014,69.947,95.468,64.539,95.468z"/>
</svg>
