<?xml version="1.0" encoding="utf-8"?>
<!DOCTYPE svg PUBLIC "-//W3C//DTD SVG 1.1//EN" "http://www.w3.org/Graphics/SVG/1.1/DTD/svg11.dtd">
<svg version="1.1" id="icon-users" xmlns="http://www.w3.org/2000/svg" xmlns:xlink="http://www.w3.org/1999/xlink" x="0px" y="0px"
	 width="80px" height="80px" viewBox="0 0 80 80" enable-background="new 0 0 80 80" xml:space="preserve">
<path fill="#66B1E3" d="M52,64.34c-3.87,1.91-8.21,2.971-12.79,2.971c-7.7,0-14.72-3.011-20-7.938c0.3-1.37,0.69-2.7,1.17-3.973
	c2.101-5.777,5.73-10.438,10.21-13.09c2.36,1.775,5.28,2.83,8.45,2.83c3.22,0,6.21-1.095,8.61-2.935c0.81,0.474,1.59,1,2.34,1.604
	c-1.95,2.539-3.11,5.729-3.11,9.188C46.88,57.52,48.859,61.57,52,64.34z"/>
<path fill="#E0E0E0" d="M24.456,30.896c0,3.852,1.549,7.367,4.077,9.924c-5.886,3.556-10.303,10.063-11.901,17.885
	C12.645,57.451,9.027,55.348,6,52.632c0.04-0.179,0.08-0.356,0.13-0.532c0.2-0.791,0.43-1.57,0.679-2.322
	c0.41-1.198,0.9-2.354,1.449-3.457c0.13-0.278,0.28-0.551,0.43-0.821c0.181-0.336,0.37-0.679,0.57-0.998
	c2.028-3.394,4.726-6.112,7.863-7.879c0.82-0.479,1.669-0.871,2.529-1.188c-3.528-1.953-5.917-5.688-5.917-9.979
	c0-6.323,5.177-11.448,11.572-11.448c3.318,0,6.306,1.385,8.425,3.584C28.303,19.619,24.456,24.813,24.456,30.896z"/>
<circle fill="#66B1E3" cx="39" cy="31" r="12"/>
<path fill="#F77463" d="M62,40c-7.18,0-13,5.82-13,13s5.82,13,13,13s13-5.82,13-13S69.18,40,62,40z M68,54h-5v5h-2v-5h-5v-2h5v-5h2
	v5h5V54z"/>
<path fill="#E0E0E0" d="M62,37.88c-3.95,0-7.54,1.511-10.23,3.99c-0.67-0.521-1.369-0.99-2.078-1.42
	c2.271-2.53,3.646-5.87,3.646-9.53c0-6.23-3.976-11.529-9.521-13.51C45.921,15.3,48.874,14,52.124,14
	c6.448,0,11.67,5.12,11.67,11.45c0,4.26-2.37,7.96-5.892,9.93c1.592,0.62,3.102,1.47,4.512,2.511C62.27,37.88,62.141,37.88,62,37.88
	z"/>
</svg>
