<?xml version="1.0" encoding="utf-8"?>
<!DOCTYPE svg PUBLIC "-//W3C//DTD SVG 1.1//EN" "http://www.w3.org/Graphics/SVG/1.1/DTD/svg11.dtd">
<svg version="1.1" id="icon-update" xmlns="http://www.w3.org/2000/svg" xmlns:xlink="http://www.w3.org/1999/xlink" x="0px"
	 y="0px" width="50px" height="50px" viewBox="0 0 50 50" enable-background="new 0 0 50 50" xml:space="preserve">
<path fill="#66B1E3" d="M38.511,37.71c-0.79,0-1.54-0.474-1.854-1.252c-0.413-1.022,0.08-2.187,1.101-2.603
	c0.095-0.039,6.078-2.567,6.078-7.438c0-5.59-5.242-6.477-5.84-6.56l-1.317-0.182l-0.354-1.287C36.23,18.055,33.908,10,24.835,10
	h-0.167c-8.977,0-11.251,8.298-11.273,8.381l-0.343,1.31l-1.343,0.169c-0.574,0.079-5.708,0.949-5.708,6.537
	c0,4.938,5.91,7.429,5.969,7.453c1.021,0.42,1.509,1.59,1.088,2.61s-1.59,1.509-2.611,1.088C10.102,37.404,2,33.982,2,26.396
	c0-6.481,4.629-9.364,7.917-10.248C11.463,12.077,15.966,6,24.668,6h0.167c8.821,0,13.39,6.076,14.956,10.146
	c3.332,0.883,8.043,3.775,8.043,10.271c0,7.597-8.225,11.005-8.574,11.146C39.014,37.662,38.76,37.71,38.511,37.71z"/>
<path fill="#FF6631" d="M34.328,35.41l-8,8c-0.391,0.39-0.9,0.59-1.41,0.59s-1.02-0.2-1.41-0.59l-8-8c-0.79-0.78-0.79-2.04,0-2.82
	c0.78-0.79,2.04-0.79,2.82,0l4.59,4.59V24c0-1.1,0.9-2,2-2s2,0.9,2,2v13.17l4.59-4.58c0.78-0.79,2.04-0.79,2.82,0
	C35.118,33.37,35.118,34.63,34.328,35.41z"/>
</svg>
