<?xml version="1.0" encoding="utf-8"?>
<!DOCTYPE svg PUBLIC "-//W3C//DTD SVG 1.1//EN" "http://www.w3.org/Graphics/SVG/1.1/DTD/svg11.dtd">
<svg version="1.1" id="icon-weather-cloud-moon" xmlns="http://www.w3.org/2000/svg" xmlns:xlink="http://www.w3.org/1999/xlink"
	 x="0px" y="0px" width="100px" height="100px" viewBox="25.5 75.5 100 100" enable-background="new 25.5 75.5 100 100"
	 xml:space="preserve">
<path fill="#66B1E3" d="M95.453,164.5H53.406c-8.352,0-14.892-7.281-14.892-15.46c0-7.57,5.566-14.065,12.984-14.959
	c-0.039-0.515-0.058-1.248-0.058-1.762c0-11.647,9.476-21.232,21.122-21.232c9.588,0,17.848,6.398,20.342,15.388
	c0.795-0.133,1.654-0.249,2.549-0.249c10.209,0,18.516,9.097,18.516,19.219C113.969,155.646,105.836,164.5,95.453,164.5z
	 M53.406,139.104c-5.226,0-9.318,4.642-9.318,9.724c0,5.053,4.093,9.673,9.318,9.673h42.047c7.257,0,12.941-6.206,12.941-13.282
	c0-7.049-5.806-13.114-12.941-13.114c-1.123,0-2.318,0.051-3.876,0.537l-3.188,0.914l-0.409-3.356
	c-0.957-7.757-7.585-13.626-15.418-13.626c-8.573,0-15.548,6.966-15.548,15.539c0,1.225,0.147,2.448,0.438,3.654l0.936,3.867
	l-3.955-0.447C54.095,139.146,53.754,139.104,53.406,139.104z"/>
<path fill="#66B1E3" d="M118.982,111.376c-1.652,0.577-3.39,0.87-5.164,0.87c-8.771,0-15.903-7.134-15.903-15.904
	c0-2.263,0.465-4.441,1.37-6.472l1.871-4.146l-5.14,0.733C85.666,88.132,76.5,96.563,76.5,106.864v0.071
	c2,0.417,3.71,0.967,4.848,1.665c1.224-7.207,5.023-13.457,11.41-16.149c-0.246,1.272-0.053,2.569-0.053,3.891
	c0,11.463,9.5,20.798,20.963,20.798c0.697,0,1.464-0.037,2.148-0.11c-2.129,4.025-5.696,7.674-9.99,9.092
	c2.067,0.648,4.029,3.379,5.778,3.379h0.013c5.125-3,9.016-8.543,10.545-14.584l1.113-4.719L118.982,111.376z"/>
<path fill="#66B1E3" d="M53.568,101.909c0,1.027-1.604,1.908-3.854,2.263c-0.354,2.251-1.236,3.854-2.263,3.854
	s-1.908-1.604-2.264-3.854c-2.25-0.354-3.853-1.235-3.853-2.263c0-1.041,1.603-1.922,3.853-2.276
	c0.355-2.252,1.236-3.841,2.264-3.841s1.909,1.589,2.263,3.841C51.965,99.987,53.568,100.868,53.568,101.909z"/>
<path fill="#66B1E3" d="M39.485,122.094c0,0.539-0.841,1.002-2.022,1.188c-0.187,1.18-0.648,2.022-1.188,2.022
	c-0.54,0-1.001-0.843-1.188-2.022c-1.181-0.187-2.022-0.649-2.022-1.188c0-0.545,0.841-1.008,2.022-1.194
	c0.187-1.182,0.648-2.014,1.188-2.014c0.539,0,1.001,0.832,1.188,2.014C38.645,121.086,39.485,121.549,39.485,122.094z"/>
</svg>
