<?xml version="1.0" encoding="utf-8"?>
<!DOCTYPE svg PUBLIC "-//W3C//DTD SVG 1.1//EN" "http://www.w3.org/Graphics/SVG/1.1/DTD/svg11.dtd">
<svg version="1.1" id="icon-settings-cache" xmlns="http://www.w3.org/2000/svg" xmlns:xlink="http://www.w3.org/1999/xlink"
	 x="0px" y="0px" width="50px" height="50px" viewBox="0 0 50 50" enable-background="new 0 0 50 50" xml:space="preserve">
<path fill="#85949D" d="M39,10h-7V8c0-1.1-0.9-2-2-2h-8c-1.1,0-2,0.9-2,2v2h-8c-1.66,0-3,1.34-3,3v2h33v-2C42,11.34,40.66,10,39,10z
	 M30,10h-8V9c0-0.55,0.45-1,1-1h6c0.55,0,1,0.45,1,1V10z"/>
<path fill="#66B1E3" d="M10,17l3,26c0.19,1.23,0.9,2,2,2h21c1.1,0,1.83-0.87,2-2l3-26H10z M23,39.19c0,1-0.81,1.81-1.81,1.81h-0.38
	c-1,0-1.81-0.81-1.81-1.81V22.81c0-1,0.81-1.81,1.81-1.81h0.38c1,0,1.81,0.81,1.81,1.81V39.19z M33,39.19c0,1-0.81,1.81-1.81,1.81
	H30.81c-1,0-1.81-0.81-1.81-1.81V22.81c0-1,0.81-1.81,1.81-1.81h0.381c1,0,1.81,0.81,1.81,1.81V39.19z"/>
</svg>
