<?xml version="1.0" encoding="utf-8"?>
<!DOCTYPE svg PUBLIC "-//W3C//DTD SVG 1.1//EN" "http://www.w3.org/Graphics/SVG/1.1/DTD/svg11.dtd">
<svg version="1.1" id="icon-settings-update" xmlns="http://www.w3.org/2000/svg" xmlns:xlink="http://www.w3.org/1999/xlink"
	 x="0px" y="0px" width="50px" height="50px" viewBox="0 0 50 50" enable-background="new 0 0 50 50" xml:space="preserve">
<g>
	<g>
		<path fill="#66B1E3" d="M37.01,38.416c-0.828,0-1.5-0.672-1.5-1.5s0.672-1.5,1.5-1.5c3.724,0,7.114-3.747,7.114-7.861
			c0-3.503-2.573-6.701-5.859-7.28l-0.92-0.163l-0.26-0.897C35.514,13.789,30.616,10,25.177,10c-5.435,0-10.326,3.735-11.894,9.084
			l-0.271,0.922l-0.951,0.141C8.663,20.646,6,23.9,6,27.555c0,4.114,3.392,7.861,7.115,7.861c0.829,0,1.5,0.672,1.5,1.5
			s-0.671,1.5-1.5,1.5C7.727,38.416,3,33.341,3,27.555c0-4.772,3.308-9.064,7.688-10.188C12.887,11.219,18.72,7,25.177,7
			c6.476,0,12.324,4.286,14.517,10.526c4.295,1.204,7.431,5.355,7.431,10.028C47.124,33.341,42.397,38.416,37.01,38.416z"/>
	</g>
</g>
<g>
	<g>
		<path fill="#F77463" d="M34.562,34.98L25.672,44l-9.23-9.38c-0.59-0.601-0.59-1.57,0-2.17c0.59-0.601,1.549-0.601,2.139,0
			L24,37.96V24.5c0-0.83,0.67-1.5,1.5-1.5s1.5,0.67,1.5,1.5v13.81l5.421-5.51c0.59-0.6,1.55-0.6,2.14,0
			C35.151,33.4,35.152,34.38,34.562,34.98z"/>
	</g>
</g>
</svg>
