<?xml version="1.0" encoding="utf-8"?>
<!DOCTYPE svg PUBLIC "-//W3C//DTD SVG 1.1//EN" "http://www.w3.org/Graphics/SVG/1.1/DTD/svg11.dtd">
<svg version="1.1" id="icon-settings-themes" xmlns="http://www.w3.org/2000/svg" xmlns:xlink="http://www.w3.org/1999/xlink"
	 x="0px" y="0px" width="50px" height="50px" viewBox="0 0 50 50" enable-background="new 0 0 50 50" xml:space="preserve">
<path fill="#85949D" d="M23.928,18.744L18.562,27.9c0.281-0.48,0.986-0.002,1.72-0.104l3.38-5.718
	c0.161-0.272,0.51-0.362,0.781-0.201l12.745,7.534c0.271,0.159,0.361,0.509,0.2,0.78l-3.008,5.089
	c0.646,0.347,1.112,1.014,0.883,1.417l5.054-8.824l0,0c0.466-0.913,0.147-1.284-0.24-1.888c-0.378-0.585-1.022-1.385-1.973-3.042
	c-0.95-1.656-0.918-3.296,0.323-4.747c0.771-0.9,3.559-3.231,3.559-3.231c0.23-0.211,0.449-0.444,0.653-0.695
	c0.204-0.254,0.394-0.527,0.566-0.818c0.372-0.627,0.724-1.213,0.964-1.869c1.197-3.206,1.079-6.184-0.875-7.339l-0.018-0.011
	c-1.97-1.165-4.65,0.159-6.886,2.752c-0.459,0.524-0.789,1.104-1.16,1.732c-0.538,0.91-0.798,1.801-0.967,2.775
	c-0.23,1.142-0.55,3.016-0.826,3.749c-0.673,1.787-2.086,2.612-3.99,2.582c-1.906-0.03-2.905-0.201-3.595-0.249
	c-0.773-0.054-1.187-0.076-1.834,1.015C24.029,18.598,23.931,18.739,23.928,18.744z M41.16,8.023
	c0.778,0.461,1.036,1.465,0.577,2.244c-0.46,0.777-1.466,1.035-2.245,0.575c-0.776-0.459-1.035-1.464-0.576-2.242
	C39.378,7.823,40.381,7.563,41.16,8.023z"/>
<path fill="#66B1E3" d="M14.63,34.558l2.944-4.979c0.925-1.565,1.538-0.812,2.643-0.94c1.2-0.138,1.598-1.302,2.499-0.77
	c0.677,0.4-0.14,2.991,1.024,3.68c1.078,0.638,2.603-1.476,3.54-0.922c1.019,0.603-0.883,4.451,0.461,5.244
	c1.461,0.864,3.949-3.521,5.009-2.896c0.816,0.484,0.198,1.27,0.439,2.259c0.243,0.99,2.345,1.035,0.923,3.44l-3.243,5.483
	c-0.159,0.271-0.555,0.212-0.825,0.05l-15.258-9.021C14.515,35.026,14.47,34.828,14.63,34.558z"/>
<path fill="#66B1E3" d="M28.792,45.251c-4.604,1.118-10.361,1.118-10.361,1.118C10.261,46.369,4,43.65,4,40.75
	c0-2.2,3.82-4.09,9.24-4.87L28.792,45.251z"/>
</svg>
