<?xml version="1.0" encoding="utf-8"?>
<!DOCTYPE svg PUBLIC "-//W3C//DTD SVG 1.1//EN" "http://www.w3.org/Graphics/SVG/1.1/DTD/svg11.dtd">
<svg version="1.1" id="icon-weather-sun" xmlns="http://www.w3.org/2000/svg" xmlns:xlink="http://www.w3.org/1999/xlink" x="0px"
	 y="0px" width="100px" height="100px" viewBox="0 0 100 100" enable-background="new 0 0 100 100" xml:space="preserve">
<path fill="#F77463" d="M50.338,69.943c-9.663,0-17.523-7.862-17.523-17.525s7.86-17.525,17.523-17.525s17.525,7.862,17.525,17.525
	S60.001,69.943,50.338,69.943z M50.338,40.478c-6.583,0-11.938,5.355-11.938,11.94c0,6.584,5.355,11.94,11.938,11.94
	c6.585,0,11.94-5.356,11.94-11.94C62.278,45.833,56.923,40.478,50.338,40.478z"/>
<path fill="#F77463" d="M49,31.358c-1.541,0-2.5-1.25-2.5-2.792v-9.773C46.5,17.25,47.459,16,49,16c1.543,0,2.5,1.25,2.5,2.793
	v9.773C51.5,30.108,50.543,31.358,49,31.358z"/>
<path fill="#F77463" d="M49,90c-1.541,0-2.5-1.25-2.5-2.792v-11.17c0-1.542,0.959-2.793,2.5-2.793c1.543,0,2.5,1.251,2.5,2.793
	v11.17C51.5,88.75,50.543,90,49,90z"/>
<path fill="#F77463" d="M26.962,56.5h-11.17C14.25,56.5,13,55.541,13,54c0-1.543,1.25-2.5,2.792-2.5h11.17
	c1.542,0,2.793,0.957,2.793,2.5C29.755,55.541,28.504,56.5,26.962,56.5z"/>
<path fill="#F77463" d="M84.208,56.5h-9.774c-1.542,0-2.792-0.959-2.792-2.5c0-1.543,1.25-2.5,2.792-2.5h9.774
	C85.75,51.5,87,52.457,87,54C87,55.541,85.75,56.5,84.208,56.5z"/>
<path fill="#F77463" d="M33.333,38.135c-0.715,0-1.43-0.272-1.975-0.817l-7.196-7.195c-1.091-1.09-1.091-2.858,0-3.949
	c1.09-1.091,2.857-1.091,3.948,0l7.196,7.195c1.091,1.09,1.091,2.858,0,3.949C34.762,37.862,34.047,38.135,33.333,38.135z"/>
<path fill="#F77463" d="M74.54,79.347c-0.714,0-1.429-0.272-1.974-0.817l-7.194-7.197c-1.091-1.091-1.091-2.859,0-3.948
	c1.091-1.091,2.858-1.091,3.949,0l7.193,7.196c1.091,1.091,1.091,2.859,0,3.949C75.97,79.074,75.255,79.347,74.54,79.347z"/>
<path fill="#F77463" d="M67.347,38.135c-0.715,0-1.429-0.272-1.975-0.817c-1.091-1.09-1.091-2.858,0-3.949l7.194-7.195
	c1.091-1.091,2.857-1.091,3.948,0c1.091,1.09,1.091,2.858,0,3.949l-7.193,7.195C68.775,37.862,68.061,38.135,67.347,38.135z"/>
<path fill="#F77463" d="M26.136,79.347c-0.714,0-1.429-0.272-1.974-0.817c-1.091-1.091-1.091-2.858,0-3.949l7.196-7.196
	c1.091-1.091,2.857-1.091,3.948,0s1.091,2.857,0,3.948l-7.196,7.197C27.564,79.074,26.851,79.347,26.136,79.347z"/>
</svg>
