<?xml version="1.0" encoding="utf-8"?>
<!DOCTYPE svg PUBLIC "-//W3C//DTD SVG 1.1//EN" "http://www.w3.org/Graphics/SVG/1.1/DTD/svg11.dtd">
<svg version="1.1" id="icon-settings-info" xmlns="http://www.w3.org/2000/svg" xmlns:xlink="http://www.w3.org/1999/xlink" x="0px"
	 y="0px" width="50px" height="50px" viewBox="0 0 50 50" enable-background="new 0 0 50 50" xml:space="preserve">
<circle fill="#66B1E3" cx="25.5" cy="16.5" r="3.5"/>
<path fill="#66B1E3" d="M29,34.583C29,36.47,27.471,38,25.584,38h-0.168C23.53,38,22,36.47,22,34.583v-8.166
	C22,24.53,23.53,23,25.416,23h0.168C27.471,23,29,24.53,29,26.417V34.583z"/>
<path fill="#E0E0E0" d="M25,4C13.4,4,4,13.4,4,25s9.4,21,21,21c11.6,0,21-9.4,21-21S36.6,4,25,4z M25,43c-9.94,0-18-8.06-18-18
	S15.06,7,25,7c9.94,0,18,8.06,18,18S34.94,43,25,43z"/>
</svg>
