<?xml version="1.0" encoding="utf-8"?>
<!DOCTYPE svg PUBLIC "-//W3C//DTD SVG 1.1//EN" "http://www.w3.org/Graphics/SVG/1.1/DTD/svg11.dtd">
<svg version="1.1" id="icon-widgets" xmlns="http://www.w3.org/2000/svg" xmlns:xlink="http://www.w3.org/1999/xlink" x="0px"
	 y="0px" width="80px" height="80px" viewBox="0.5 80.5 80 80" enable-background="new 0.5 80.5 80 80" xml:space="preserve">
<path fill="#66B1E3" d="M39.5,116.5c0,1.104-0.896,2-2,2h-24c-1.104,0-2-0.896-2-2v-22c0-1.104,0.896-2,2-2h24c1.104,0,2,0.896,2,2
	V116.5z"/>
<path fill="#E0E0E0" d="M39.5,146.5c0,1.104-0.896,2-2,2h-24c-1.104,0-2-0.896-2-2v-22c0-1.104,0.896-2,2-2h24c1.104,0,2,0.896,2,2
	V146.5z"/>
<path fill="#E0E0E0" d="M71.5,116.5c0,1.104-0.896,2-2,2h-24c-1.104,0-2-0.896-2-2v-22c0-1.104,0.896-2,2-2h24c1.104,0,2,0.896,2,2
	V116.5z"/>
<path fill="#F77463" d="M46,122.5c-1.65,0-2.5,0.85-2.5,2.5v3.5h2V126c0-1.063,0.95-1.5,1.5-1.5h3.5v-2H46z M43.5,138.5h2v-6h-2
	V138.5z M54.5,122.5v2h6v-2H54.5z M47,146.5c-1.125,0-1.5-0.95-1.5-1.5v-2.5h-2v3.5c0,1.65,0.85,2.5,2.5,2.5h4.5v-2H47z M54.5,146.5
	v2h6v-2H54.5z M69.5,142.5v2.5c0,1-0.95,1.5-1.5,1.5h-3.5v2H69c1.65,0,2.5-0.85,2.5-2.5v-3.5H69.5z M69.5,132.5v6h2v-6H69.5z
	 M69,122.5h-4.5v2H68c0.813,0,1.5,0.563,1.5,1.5v2.5h2V125C71.5,123.35,70.65,122.5,69,122.5z"/>
</svg>
