<?xml version="1.0" encoding="utf-8"?>
<!DOCTYPE svg PUBLIC "-//W3C//DTD SVG 1.1//EN" "http://www.w3.org/Graphics/SVG/1.1/DTD/svg11.dtd">
<svg version="1.1" id="icon-settings-extensions" xmlns="http://www.w3.org/2000/svg" xmlns:xlink="http://www.w3.org/1999/xlink"
	 x="0px" y="0px" width="50px" height="50px" viewBox="0 0 50 50" enable-background="new 0 0 50 50" xml:space="preserve">
<polygon fill="#E0E0E0" points="14,7 25,1 36,7 36,20 25,26 14,20 "/>
<polygon fill="#66B1E3" points="36,7 25,13 14,7 25,1 "/>
<polygon fill="#E0E0E0" points="2,28 13,22 24,28 24,41 13,47 2,41 "/>
<polygon fill="#F77463" points="24,28 13,34 2,28 13,22 "/>
<polygon fill="#E0E0E0" points="26,28 37,22 48,28 48,41 37,47 26,41 "/>
<polygon fill="#BCC4C7" points="48,28 37,34 26,28 37,22 "/>
</svg>
