<?xml version="1.0" encoding="utf-8"?>
<!DOCTYPE svg PUBLIC "-//W3C//DTD SVG 1.1//EN" "http://www.w3.org/Graphics/SVG/1.1/DTD/svg11.dtd">
<svg version="1.1" id="icon-urlaliases" xmlns="http://www.w3.org/2000/svg" xmlns:xlink="http://www.w3.org/1999/xlink"
	 x="0px" y="0px" width="50px" height="50px" viewBox="0 0 50 50" enable-background="new 0 0 50 50" xml:space="preserve">
<path fill="#DFDFDF" d="M21.53,15.99c-1.09,1.39-2.11,2.85-3.1,4.27c-0.76,1.09-1.5,2.15-2.23,3.131C13.97,20.82,11.56,19,8.5,19h-7
	v-9h10C15.57,10,18.73,12.59,21.53,15.99z"/>
<path fill="#DFDFDF" d="M40.5,45v-5h-5.57c-4.609,0-7.97-2.62-10.84-6.01c1.15-1.5,2.23-3.08,3.27-4.61
	c0.632-0.93,1.25-1.84,1.871-2.72c2.459,3.1,5.061,5.38,8.271,5.34h3v-5l9,9L40.5,45z"/>
<linearGradient id="SVGID_1_" gradientUnits="userSpaceOnUse" x1="279.0137" y1="-380.7246" x2="314.0142" y2="-357.9742" gradientTransform="matrix(1 0 0 -1 -272.5996 -344.9902)">
	<stop  offset="0" style="stop-color:#568FE6"/>
	<stop  offset="0.2947" style="stop-color:#5C9AEA"/>
	<stop  offset="0.8184" style="stop-color:#6AB9F6"/>
	<stop  offset="1" style="stop-color:#70C5FB"/>
</linearGradient>
<path fill="url(#SVGID_1_)" d="M40.5,5v5h-5.57C21.865,10,18.875,31,8.5,31h-7v9h10c11.875,0,16.063-22.125,26-22h3v5l9-9L40.5,5z"
	/>
</svg>