<?xml version="1.0" encoding="utf-8"?>
<!DOCTYPE svg PUBLIC "-//W3C//DTD SVG 1.1//EN" "http://www.w3.org/Graphics/SVG/1.1/DTD/svg11.dtd">
<svg version="1.1" id="icon-weather-fog" xmlns="http://www.w3.org/2000/svg" xmlns:xlink="http://www.w3.org/1999/xlink" x="0px"
	 y="0px" width="100px" height="100px" viewBox="25.5 75.5 100 100" enable-background="new 25.5 75.5 100 100"
	 xml:space="preserve">
<g>
	<path fill="#E0E0E0" d="M96.968,152.5H50.572c-1.507,0-2.729-0.992-2.729-2.5s1.222-2.5,2.729-2.5h46.396
		c1.507,0,2.729,0.992,2.729,2.5S98.475,152.5,96.968,152.5z"/>
</g>
<g>
	<path fill="#E0E0E0" d="M96.968,164.5H50.572c-1.507,0-2.729-0.992-2.729-2.5s1.222-2.5,2.729-2.5h46.396
		c1.507,0,2.729,0.992,2.729,2.5S98.475,164.5,96.968,164.5z"/>
</g>
<g>
	<path fill="#66B1E3" d="M95.301,139.5H52.307c-8.611,0-15.106-6.98-15.106-15.127c0-7.588,5.595-13.863,13.285-14.667
		c-0.045-0.564-0.067-1.34-0.067-1.906c0-11.86,9.635-21.613,21.477-21.613c9.762,0,18.167,6.498,20.692,15.619
		c0.856-0.177,1.767-0.324,2.714-0.324c10.549,0,18.811,8.904,18.811,19.219C114.111,130.779,105.85,139.5,95.301,139.5z
		 M52.307,114.652c-5.59,0-9.647,4.303-9.647,9.45c0,5.116,4.058,9.397,9.647,9.397h42.994c7.612,0,13.353-5.948,13.353-13.084
		c0-7.254-5.865-13.219-13.353-13.219c-1.292,0-2.666,0.289-3.994,0.706l-3.125,0.912l-0.401-3.288
		c-0.981-7.954-7.811-13.97-15.886-13.97c-8.832,0-16.019,7.191-16.019,16.041c0,1.273,0.152,2.544,0.452,3.783l0.92,3.792
		l-3.88-0.441C53.022,114.691,52.669,114.652,52.307,114.652z"/>
</g>
</svg>
