<?xml version="1.0" encoding="utf-8"?>
<!DOCTYPE svg PUBLIC "-//W3C//DTD SVG 1.1//EN" "http://www.w3.org/Graphics/SVG/1.1/DTD/svg11.dtd">
<svg version="1.1" id="icon-weather-rain-moon" xmlns="http://www.w3.org/2000/svg" xmlns:xlink="http://www.w3.org/1999/xlink"
	 x="0px" y="0px" width="100px" height="100px" viewBox="25.5 75.5 100 100" enable-background="new 25.5 75.5 100 100"
	 xml:space="preserve">
<g>
	<path fill="#E0E0E0" d="M86.926,171c-0.496,0-0.996-0.139-1.442-0.434c-1.211-0.797-1.545-2.428-0.747-3.637l7.047-11.306
		c0.799-1.212,2.424-1.546,3.639-0.747c1.209,0.799,1.543,2.428,0.746,3.637l-7.047,11.306C88.617,170.586,87.779,171,86.926,171z"
		/>
</g>
<g>
	<path fill="#E0E0E0" d="M72.799,171c-0.497,0-0.998-0.139-1.443-0.434c-1.211-0.797-1.545-2.428-0.746-3.637l7.045-11.306
		c0.801-1.212,2.426-1.546,3.639-0.747c1.21,0.799,1.545,2.428,0.747,3.637l-7.046,11.306C74.488,170.586,73.652,171,72.799,171z"/>
</g>
<g>
	<path fill="#E0E0E0" d="M59.613,171c-0.496,0-0.998-0.139-1.443-0.434c-1.21-0.797-1.545-2.428-0.746-3.637l7.045-11.306
		c0.8-1.212,2.425-1.546,3.639-0.747c1.211,0.799,1.545,2.428,0.747,3.637l-7.046,11.306C61.303,170.586,60.466,171,59.613,171z"/>
</g>
<g>
	<path fill="#E0E0E0" d="M45.485,171c-0.496,0-0.997-0.139-1.443-0.434c-1.209-0.797-1.544-2.428-0.746-3.637l7.045-11.306
		c0.799-1.212,2.424-1.546,3.638-0.747c1.211,0.799,1.545,2.428,0.747,3.637l-7.046,11.306C47.175,170.586,46.338,171,45.485,171z"
		/>
</g>
<g>
	<path fill="#66B1E3" d="M113.088,103.416c-1.461,0.511-2.998,0.771-4.567,0.771c-7.76,0-14.069-6.311-14.069-14.069
		c0-2.002,0.412-3.93,1.213-5.726l1.654-3.668l-5.05,0.649C83.111,82.854,74.5,90.312,74.5,99.425v0.063
		c2,0.369,3.785,0.855,4.791,1.473c1.083-6.375,4.696-11.904,10.346-14.286c-0.217,1.126,0.08,2.273,0.08,3.442
		c0,10.14,8.467,18.398,18.607,18.398c0.616,0,1.326-0.033,1.932-0.098c-1.883,3.561-5.023,7.313-8.822,8.568
		c1.829,0.572,3.58,3.514,5.128,3.514h0.011c4.535-3,7.977-8.082,9.329-13.428l0.985-4.437L113.088,103.416z"/>
</g>
<g>
	<path fill="#66B1E3" d="M90.255,150.5H53.088c-7.544,0-13.453-6.837-13.453-14.288c0-6.683,4.984-12.733,11.461-13.691
		c-0.022-0.37-0.033-0.991-0.033-1.362c0-10.451,8.505-19.08,18.959-19.08c8.523,0,15.879,5.626,18.192,13.583
		c0.697-0.1,1.376-0.181,2.041-0.181c9.183,0,16.653,8.417,16.653,17.552C106.908,142.122,99.438,150.5,90.255,150.5z
		 M53.088,127.379c-4.458,0-7.95,4.193-7.95,8.584c0,4.365,3.491,8.537,7.95,8.537h37.167c6.253,0,11.15-5.576,11.15-11.732
		c0-6.1-5.001-11.438-11.15-11.438c-0.999,0-2.09,0.002-3.338,0.393l-3.15,0.896l-0.403-3.325
		c-0.827-6.721-6.563-11.813-13.342-11.813c-7.419,0-13.455,6.022-13.455,13.44c0,1.061,0.127,2.118,0.379,3.155l0.934,3.844
		l-3.932-0.468C53.668,127.418,53.38,127.379,53.088,127.379z"/>
</g>
</svg>
