<?xml version="1.0" encoding="utf-8"?>
<!DOCTYPE svg PUBLIC "-//W3C//DTD SVG 1.1//EN" "http://www.w3.org/Graphics/SVG/1.1/DTD/svg11.dtd">
<svg version="1.1" id="icon-dashboard" xmlns="http://www.w3.org/2000/svg" xmlns:xlink="http://www.w3.org/1999/xlink" x="0px"
	 y="0px" width="50px" height="50px" viewBox="0 0 50 50" enable-background="new 0 0 50 50" xml:space="preserve">
<path fill="#FF5B5F" d="M29.96,29.91C29.99,30.1,30,30.3,30,30.5c0,2.49-2.01,4.5-4.5,4.5S21,32.99,21,30.5
	c0-2.061,1.37-3.79,3.26-4.33l9.711-8.05C33.971,18.12,31.1,26.52,29.96,29.91z"/>
<path fill="#E0E0E0" d="M40.922,10.109c0.471,0.601,0.797,1.487,0.797,2.297c0,1.96-1.492,3.547-3.453,3.547
	c-0.709,0-1.394-0.197-1.953-0.547c2.86,2.8,4.664,6.707,4.664,11.027c0,4.699-2.09,8.909-5.4,11.75
	c-0.221,0.199-0.449,0.39-0.689,0.569c-0.601,0.63-0.959,1.479-0.959,2.42c0,1.97,1.59,3.56,3.559,3.56
	c0.57,0,1.121-0.14,1.591-0.379c0.42-0.311,0.819-0.641,1.21-0.99c4.721-4.12,7.689-10.17,7.689-16.93
	C47.977,20.063,45.184,14.189,40.922,10.109z"/>
<linearGradient id="SVGID_1_" gradientUnits="userSpaceOnUse" x1="280.4482" y1="-390.5498" x2="302.7816" y2="-347.0493" gradientTransform="matrix(1 0 0 -1 -272.5996 -344.9902)">
	<stop  offset="0" style="stop-color:#2898F1"/>
	<stop  offset="0.3101" style="stop-color:#01A6EA"/>
	<stop  offset="0.6519" style="stop-color:#00BFEA"/>
	<stop  offset="1" style="stop-color:#2ECEBA"/>
</linearGradient>
<path fill="url(#SVGID_1_)" d="M41.1,10.3c-0.3-0.3-0.6-0.58-0.92-0.84c-7.617-6.594-19.064-7.225-27.37-1.544
	c-7.763,5.31-11.458,15.162-9.084,24.271c1.24,4.763,4.168,9.274,8.154,12.213c1.386,1.021,3.714,0.459,4.589-0.588
	c1.327-1.588,1.5-3.547-0.339-4.963c-6.975-5.371-8.14-15.757-2.39-22.447c5.653-6.579,16.459-7.337,22.622-0.953
	C39.626,17.548,43.503,13.367,41.1,10.3C40.8,10,41.57,10.9,41.1,10.3z"/>
</svg>
