<?xml version="1.0" encoding="utf-8"?>
<!DOCTYPE svg PUBLIC "-//W3C//DTD SVG 1.1//EN" "http://www.w3.org/Graphics/SVG/1.1/DTD/svg11.dtd">
<svg version="1.1" id="icon-settings" xmlns="http://www.w3.org/2000/svg" xmlns:xlink="http://www.w3.org/1999/xlink" x="0px"
	 y="0px" width="50px" height="50px" viewBox="0 0 50 50" enable-background="new 0 0 50 50" xml:space="preserve">
<path fill="#E6E6E6" d="M11,43.5c0,1.381-1.119,2.5-2.5,2.5l0,0C7.119,46,6,44.881,6,43.5v-38C6,4.119,7.119,3,8.5,3l0,0
	C9.881,3,11,4.119,11,5.5V43.5z"/>
<path fill="#E6E6E6" d="M28,43.5c0,1.381-1.119,2.5-2.5,2.5l0,0c-1.381,0-2.5-1.119-2.5-2.5v-38C23,4.119,24.119,3,25.5,3l0,0
	C26.881,3,28,4.119,28,5.5V43.5z"/>
<path fill="#C8C8C8" d="M28,38v5.5c0,1.38-1.12,2.5-2.5,2.5c-0.69,0-1.32-0.279-1.77-0.73C23.28,44.82,23,44.189,23,43.5V38H28z"/>
<path fill="#E6E6E6" d="M45,43.5c0,1.381-1.119,2.5-2.5,2.5l0,0c-1.381,0-2.5-1.119-2.5-2.5v-38C40,4.119,41.119,3,42.5,3l0,0
	C43.881,3,45,4.119,45,5.5V43.5z"/>
<polygon fill="#C8C8C8" points="11,29 11,39.04 6,34.04 6,29 "/>
<polygon fill="#C8C8C8" points="45,25 45,35.04 40,30.04 40,25 "/>
<path fill="#F16340" d="M13,28c0,1.657-1.343,3-3,3H7c-1.657,0-3-1.343-3-3V18c0-1.657,1.343-3,3-3h3c1.657,0,3,1.343,3,3V28z"/>
<path fill="#F16340" d="M30,37c0,1.657-1.344,3-3,3h-3c-1.657,0-3-1.343-3-3V27c0-1.657,1.343-3,3-3h3c1.656,0,3,1.343,3,3V37z"/>
<path fill="#F16340" d="M47,24c0,1.657-1.344,3-3,3h-3c-1.656,0-3-1.343-3-3V14c0-1.657,1.344-3,3-3h3c1.656,0,3,1.343,3,3V24z"/>
</svg>
