<?xml version="1.0" encoding="utf-8"?>
<!DOCTYPE svg PUBLIC "-//W3C//DTD SVG 1.1//EN" "http://www.w3.org/Graphics/SVG/1.1/DTD/svg11.dtd">
<svg version="1.1" id="icon-weather-drizzle-sun" xmlns="http://www.w3.org/2000/svg" xmlns:xlink="http://www.w3.org/1999/xlink"
	 x="0px" y="0px" width="100px" height="100px" viewBox="25.5 75.5 100 100" enable-background="new 25.5 75.5 100 100"
	 xml:space="preserve">
<path fill="#E0E0E0" d="M58.162,165.721c-0.532,0-1.072-0.147-1.551-0.466c-1.301-0.859-1.661-2.607-0.803-3.911l2.795-4.84
	c0.856-1.301,2.607-1.661,3.909-0.801c1.302,0.856,1.661,2.606,0.803,3.908l-2.794,4.839
	C59.979,165.274,59.08,165.721,58.162,165.721z"/>
<path fill="#E0E0E0" d="M68.867,172.973c-0.532,0-1.07-0.151-1.547-0.467c-1.303-0.854-1.666-2.604-0.809-3.907l3.945-6.616
	c0.856-1.302,2.607-1.663,3.908-0.808c1.303,0.856,1.665,2.604,0.809,3.908l-3.944,6.616
	C70.687,172.524,69.785,172.973,68.867,172.973z"/>
<path fill="#E0E0E0" d="M84.918,168.651c-0.533,0-1.07-0.15-1.549-0.468c-1.303-0.857-1.662-2.604-0.805-3.908l3.643-6.128
	c0.858-1.302,2.608-1.662,3.91-0.802c1.303,0.859,1.662,2.608,0.805,3.908l-3.643,6.129
	C86.736,168.205,85.836,168.651,84.918,168.651z"/>
<path fill="#E0E0E0" d="M95.486,174.377c-0.533,0-1.072-0.151-1.551-0.467c-1.301-0.859-1.661-2.61-0.804-3.909l7.93-12.627
	c0.857-1.3,2.607-1.661,3.91-0.804c1.301,0.86,1.66,2.609,0.804,3.91l-7.931,12.625C97.304,173.929,96.403,174.377,95.486,174.377z"
	/>
<path fill="#F77463" d="M63,90.464c-1.52,0-2.5-1.232-2.5-2.752v-8.255c0-1.52,0.98-2.751,2.5-2.751s2.5,1.231,2.5,2.751v8.255
	C65.5,89.231,64.52,90.464,63,90.464z"/>
<path fill="#F77463" d="M41.049,116.5h-9.631c-1.52,0-2.751-0.98-2.751-2.5s1.232-2.5,2.751-2.5h9.631c1.52,0,2.752,0.98,2.752,2.5
	S42.568,116.5,41.049,116.5z"/>
<path fill="#F77463" d="M47.16,99.506c-0.704,0-1.408-0.269-1.946-0.806l-7.064-7.063c-1.075-1.073-1.075-2.815,0-3.891
	c1.075-1.075,2.817-1.075,3.892,0l7.064,7.062c1.075,1.074,1.075,2.816,0,3.892C48.568,99.237,47.863,99.506,47.16,99.506z"/>
<path fill="#F77463" d="M80.547,99.506c-0.703,0-1.408-0.269-1.945-0.806c-1.074-1.075-1.074-2.817,0-3.892l7.064-7.062
	c1.075-1.075,2.816-1.075,3.892,0c1.074,1.075,1.074,2.817,0,3.891L82.493,98.7C81.955,99.237,81.251,99.506,80.547,99.506z"/>
<path fill="#F77463" d="M40.096,139.959c-0.704,0-1.409-0.27-1.946-0.807c-1.075-1.075-1.075-2.816,0-3.891l7.064-7.063
	c1.075-1.075,2.817-1.075,3.891,0c1.075,1.075,1.075,2.816,0,3.891l-7.064,7.063C41.504,139.689,40.8,139.959,40.096,139.959z"/>
<path fill="#66B1E3" d="M104.755,151.5H67.588c-7.544,0-13.453-5.587-13.453-13.038c0-6.683,4.984-12.608,11.461-13.566
	c-0.022-0.37-0.033-0.929-0.033-1.3c0-10.451,8.505-19.049,18.959-19.049c8.523,0,15.879,5.642,18.192,13.599
	c0.697-0.1,1.376-0.173,2.041-0.173c9.183,0,16.653,8.171,16.653,17.306C121.408,144.368,113.938,151.5,104.755,151.5z
	 M67.588,129.879c-4.459,0-7.949,3.943-7.949,8.334c0,4.365,3.49,8.287,7.949,8.287h37.167c6.253,0,11.15-5.326,11.15-11.482
	c0-6.1-5.001-11.313-11.15-11.313c-0.999,0-2.09,0.064-3.338,0.455l-3.15,0.927l-0.403-3.31
	c-0.827-6.721-6.563-11.805-13.342-11.805c-7.419,0-13.455,6.026-13.455,13.444c0,1.061,0.127,2.12,0.379,3.157l0.934,3.845
	l-3.932-0.467C68.168,129.918,67.88,129.879,67.588,129.879z"/>
<path fill="#F77463" d="M64.039,96.174c-9.508,0-17.253,7.746-17.253,17.253c0,6.095,3.192,11.475,7.979,14.528
	c1.061-1.706,2.734-2.861,3.936-3.455h-0.015c-3.797-1-6.397-6.219-6.397-10.771c0-6.48,5.27-11.797,11.75-11.797
	c3.234,0,6.162,1.193,8.297,3.298c0.453-0.316,2.09-1.343,2.447-1.508c0.33-0.166,1.061-0.513,1.088-0.526
	c0.164-0.069,1.21-0.485,1.582-0.596C74.289,98.692,69.447,96.174,64.039,96.174z"/>
<circle fill="#E0E0E0" cx="111.793" cy="167.037" r="2.998"/>
</svg>
