<?xml version="1.0" encoding="utf-8"?>
<!DOCTYPE svg PUBLIC "-//W3C//DTD SVG 1.1//EN" "http://www.w3.org/Graphics/SVG/1.1/DTD/svg11.dtd">
<svg version="1.1" id="weather-moon" xmlns="http://www.w3.org/2000/svg" xmlns:xlink="http://www.w3.org/1999/xlink" x="0px"
	 y="0px" width="100px" height="100px" viewBox="0 0 100 100" enable-background="new 0 0 100 100" xml:space="preserve">
<path fill="#66B1E3" d="M50.587,83.469c-2.604,0-5.21-0.341-7.746-1.016c-16.407-4.355-26.128-21.569-21.668-38.371
	c3.359-12.66,14.166-22.077,26.889-23.434l6.051-0.646l-3.528,4.959c-1.778,2.499-3.085,5.287-3.881,8.291
	c-1.718,6.47-0.882,13.198,2.352,18.945c3.222,5.725,8.441,9.792,14.697,11.453c3.463,0.916,7.107,1.043,10.604,0.365l6.002-1.161
	l-3.128,5.253C71.586,77.583,61.377,83.469,50.587,83.469z M42.949,27.399c-7.911,2.826-14.22,9.569-16.481,18.087
	c-3.685,13.884,4.291,28.092,17.778,31.673c2.078,0.551,4.21,0.831,6.34,0.831c6.966,0,13.645-2.998,18.448-8.076
	c-2.252-0.063-4.498-0.389-6.688-0.968c-7.698-2.044-14.114-7.037-18.066-14.062c-3.938-6.998-4.959-15.181-2.873-23.039
	C41.813,30.316,42.328,28.832,42.949,27.399z"/>
<path fill="#66B1E3" d="M80.146,30.421c0,0.597-0.932,1.107-2.238,1.315c-0.206,1.307-0.719,2.238-1.315,2.238
	s-1.107-0.932-1.314-2.238c-1.308-0.208-2.238-0.719-2.238-1.315c0-0.604,0.931-1.115,2.238-1.321
	c0.207-1.31,0.718-2.231,1.314-2.231s1.109,0.922,1.315,2.231C79.215,29.306,80.146,29.816,80.146,30.421z"/>
<path fill="#66B1E3" d="M66.304,22.118c0,0.429-0.669,0.798-1.608,0.946c-0.148,0.938-0.516,1.607-0.945,1.607
	s-0.797-0.669-0.945-1.607c-0.939-0.148-1.609-0.518-1.609-0.946c0-0.435,0.67-0.803,1.609-0.951
	c0.148-0.94,0.516-1.604,0.945-1.604s0.797,0.663,0.945,1.604C65.635,21.315,66.304,21.684,66.304,22.118z"/>
</svg>