<?xml version="1.0" encoding="utf-8"?>
<!DOCTYPE svg PUBLIC "-//W3C//DTD SVG 1.1//EN" "http://www.w3.org/Graphics/SVG/1.1/DTD/svg11.dtd">
<svg version="1.1" id="weather-rain-moon" xmlns="http://www.w3.org/2000/svg" xmlns:xlink="http://www.w3.org/1999/xlink"
	 x="0px" y="0px" width="100px" height="100px" viewBox="0 0 100 100" enable-background="new 0 0 100 100" xml:space="preserve">
<g>
	<path fill="#E0E0E0" d="M59.926,95c-0.496,0-0.996-0.139-1.441-0.434c-1.211-0.797-1.545-2.428-0.748-3.637l7.048-11.307
		c0.799-1.212,2.424-1.546,3.639-0.747c1.209,0.799,1.543,2.429,0.746,3.638l-7.047,11.305C61.617,94.586,60.779,95,59.926,95z"/>
</g>
<g>
	<path fill="#E0E0E0" d="M45.799,95c-0.496,0-0.998-0.139-1.443-0.434c-1.211-0.797-1.545-2.428-0.746-3.637l7.045-11.307
		c0.802-1.212,2.427-1.546,3.64-0.747c1.21,0.799,1.545,2.429,0.747,3.638l-7.046,11.305C47.488,94.586,46.652,95,45.799,95z"/>
</g>
<g>
	<path fill="#E0E0E0" d="M32.613,95c-0.496,0-0.998-0.139-1.443-0.434c-1.21-0.797-1.545-2.428-0.746-3.637l7.045-11.307
		c0.801-1.212,2.426-1.546,3.639-0.747c1.211,0.799,1.545,2.429,0.748,3.638l-7.047,11.305C34.303,94.586,33.466,95,32.613,95z"/>
</g>
<g>
	<path fill="#E0E0E0" d="M18.485,95c-0.496,0-0.997-0.139-1.443-0.434c-1.209-0.797-1.544-2.428-0.746-3.637l7.045-11.307
		c0.8-1.212,2.425-1.546,3.638-0.747c1.211,0.799,1.545,2.429,0.748,3.638L20.68,93.818C20.175,94.586,19.338,95,18.485,95z"/>
</g>
<g>
	<path fill="#66B1E3" d="M86.088,27.416c-1.461,0.511-2.998,0.771-4.566,0.771c-7.76,0-14.069-6.312-14.069-14.069
		c0-2.002,0.411-3.931,1.213-5.726l1.653-3.668L65.27,5.373c-9.158,1.48-17.77,8.939-17.77,18.052v0.063
		c2,0.369,3.785,0.854,4.791,1.473c1.083-6.375,4.695-11.904,10.346-14.286c-0.217,1.126,0.08,2.273,0.08,3.442
		c0,10.14,8.467,18.398,18.607,18.398c0.615,0,1.326-0.033,1.932-0.099c-1.883,3.562-5.023,7.313-8.822,8.567
		c1.83,0.572,3.58,3.515,5.129,3.515h0.01c4.535-3,7.978-8.082,9.33-13.429l0.984-4.437L86.088,27.416z"/>
</g>
<g>
	<path fill="#66B1E3" d="M63.255,74.5H26.088c-7.544,0-13.453-6.837-13.453-14.288c0-6.683,4.984-12.733,11.46-13.69
		c-0.021-0.371-0.033-0.992-0.033-1.362c0-10.451,8.506-19.08,18.959-19.08c8.523,0,15.879,5.626,18.192,13.583
		c0.697-0.1,1.376-0.182,2.041-0.182c9.183,0,16.653,8.418,16.653,17.553C79.908,66.122,72.438,74.5,63.255,74.5z M26.088,51.379
		c-4.458,0-7.95,4.193-7.95,8.584c0,4.365,3.491,8.537,7.95,8.537h37.167c6.253,0,11.149-5.576,11.149-11.732
		c0-6.1-5-11.438-11.149-11.438c-0.999,0-2.09,0.002-3.338,0.393l-3.149,0.896l-0.404-3.325
		c-0.826-6.721-6.563-11.813-13.342-11.813c-7.418,0-13.455,6.022-13.455,13.44c0,1.062,0.127,2.118,0.379,3.155l0.935,3.844
		l-3.933-0.468C26.668,51.418,26.38,51.379,26.088,51.379z"/>
</g>
</svg>