<?xml version="1.0" encoding="utf-8"?>
<!DOCTYPE svg PUBLIC "-//W3C//DTD SVG 1.1//EN" "http://www.w3.org/Graphics/SVG/1.1/DTD/svg11.dtd">
<svg version="1.1" id="weather-cloud-sun" xmlns="http://www.w3.org/2000/svg" xmlns:xlink="http://www.w3.org/1999/xlink"
	 x="0px" y="0px" width="100px" height="100px" viewBox="0 0 100 100" enable-background="new 0 0 100 100" xml:space="preserve">
<path fill="#FFAD5A" d="M39,22.964c-1.52,0-2.5-1.232-2.5-2.752v-8.255c0-1.52,0.98-2.751,2.5-2.751s2.5,1.231,2.5,2.751v8.255
	C41.5,21.731,40.52,22.964,39,22.964z"/>
<path fill="#FFAD5A" d="M16.549,47.5H6.918c-1.52,0-2.751-0.98-2.751-2.5s1.232-2.5,2.751-2.5h9.631c1.52,0,2.752,0.98,2.752,2.5
	S18.068,47.5,16.549,47.5z"/>
<path fill="#FFAD5A" d="M22.66,31.006c-0.704,0-1.408-0.269-1.946-0.806l-7.064-7.063c-1.075-1.073-1.075-2.815,0-3.891
	c1.075-1.075,2.817-1.075,3.892,0l7.064,7.062c1.075,1.074,1.075,2.816,0,3.892C24.068,30.737,23.363,31.006,22.66,31.006z"/>
<path fill="#FFAD5A" d="M56.047,31.006c-0.703,0-1.408-0.269-1.945-0.806c-1.074-1.075-1.074-2.817,0-3.892l7.064-7.062
	c1.075-1.075,2.816-1.075,3.893,0c1.073,1.075,1.073,2.817,0,3.891L57.993,30.2C57.455,30.737,56.751,31.006,56.047,31.006z"/>
<path fill="#FFAD5A" d="M15.596,71.459c-0.704,0-1.409-0.27-1.946-0.807c-1.075-1.075-1.075-2.816,0-3.892l7.064-7.063
	c1.075-1.075,2.817-1.075,3.891,0c1.075,1.075,1.075,2.815,0,3.891l-7.064,7.063C17.004,71.189,16.3,71.459,15.596,71.459z"/>
<path fill="#66B1E3" d="M80.255,83.5H43.087c-7.543,0-13.453-6.337-13.453-13.788c0-6.683,4.984-12.483,11.461-13.44
	c-0.023-0.371-0.034-0.867-0.034-1.237c0-10.451,8.505-19.018,18.958-19.018c8.523,0,15.879,5.657,18.192,13.614
	c0.697-0.1,1.376-0.165,2.041-0.165c9.183,0,16.653,7.926,16.653,17.061C96.908,75.614,89.438,83.5,80.255,83.5z M43.087,61.379
	c-4.458,0-7.949,3.693-7.949,8.084c0,4.365,3.491,8.037,7.949,8.037h37.167c6.253,0,11.15-5.076,11.15-11.232
	c0-6.1-5.002-11.188-11.15-11.188c-0.999,0-2.09,0.127-3.338,0.518l-3.15,0.959l-0.402-3.295
	C72.536,46.54,66.8,41.464,60.021,41.464c-7.42,0-13.457,6.03-13.457,13.448c0,1.061,0.127,2.122,0.38,3.158l0.933,3.847
	l-3.931-0.466C43.667,61.418,43.38,61.379,43.087,61.379z"/>
<path fill="#FFAD5A" d="M39.539,27.674c-9.507,0-17.253,7.746-17.253,17.253c0,6.095,3.192,11.476,7.98,14.528
	c1.06-1.706,2.63-3.205,3.935-3.955h-0.014c-3.797-1-6.397-5.969-6.397-10.521c0-6.48,5.27-11.672,11.75-11.672
	c3.234,0,6.163,1.256,8.296,3.36c0.454-0.316,2.091-1.312,2.448-1.477c0.329-0.166,1.062-0.497,1.088-0.511
	c0.164-0.069,1.21-0.478,1.582-0.588C49.789,30.185,44.947,27.674,39.539,27.674z"/>
</svg>