<?xml version="1.0" encoding="utf-8"?>
<!DOCTYPE svg PUBLIC "-//W3C//DTD SVG 1.1//EN" "http://www.w3.org/Graphics/SVG/1.1/DTD/svg11.dtd">
<svg version="1.1" id="weather-rain-sun" xmlns="http://www.w3.org/2000/svg" xmlns:xlink="http://www.w3.org/1999/xlink"
	 x="0px" y="0px" width="100px" height="100px" viewBox="0 0 100 100" enable-background="new 0 0 100 100" xml:space="preserve">
<path fill="#E0E0E0" d="M75.621,98c-0.49,0-0.984-0.138-1.426-0.429c-1.195-0.79-1.525-2.397-0.737-3.594l7.022-11.252
	c0.789-1.196,2.396-1.526,3.594-0.738c1.195,0.789,1.525,2.398,0.738,3.592l-7.023,11.254C77.291,97.589,76.464,98,75.621,98z"/>
<path fill="#E0E0E0" d="M61.665,98c-0.49,0-0.985-0.138-1.427-0.429c-1.195-0.79-1.526-2.397-0.737-3.594l7.022-11.252
	c0.789-1.196,2.395-1.526,3.594-0.738c1.195,0.789,1.525,2.398,0.738,3.592l-7.022,11.254C63.334,97.589,62.506,98,61.665,98z"/>
<path fill="#E0E0E0" d="M48.637,98c-0.488,0-0.984-0.138-1.424-0.429c-1.195-0.79-1.527-2.397-0.738-3.594l7.022-11.252
	c0.79-1.196,2.396-1.526,3.595-0.738c1.195,0.789,1.525,2.398,0.736,3.592l-7.021,11.254C50.309,97.589,49.48,98,48.637,98z"/>
<path fill="#E0E0E0" d="M34.682,98c-0.49,0-0.984-0.138-1.426-0.429c-1.195-0.79-1.527-2.397-0.736-3.594l7.021-11.252
	c0.789-1.196,2.395-1.526,3.594-0.738c1.194,0.789,1.525,2.398,0.738,3.592L36.85,96.833C36.35,97.589,35.523,98,34.682,98z"/>
<path fill="#FFAD5A" d="M38,15.964c-1.52,0-2.5-1.232-2.5-2.752V4.957c0-1.521,0.98-2.751,2.5-2.751s2.5,1.23,2.5,2.751v8.255
	C40.5,14.731,39.52,15.964,38,15.964z"/>
<path fill="#FFAD5A" d="M16.549,43.706H6.918c-1.52,0-2.751-0.98-2.751-2.5s1.232-2.5,2.751-2.5h9.631c1.52,0,2.752,0.98,2.752,2.5
	S18.068,43.706,16.549,43.706z"/>
<path fill="#FFAD5A" d="M22.66,25.006c-0.704,0-1.408-0.269-1.946-0.806l-7.064-7.063c-1.075-1.074-1.075-2.815,0-3.893
	c1.075-1.075,2.817-1.075,3.892,0l7.064,7.063c1.076,1.073,1.076,2.815,0,3.893C24.068,24.737,23.363,25.006,22.66,25.006z"/>
<path fill="#FFAD5A" d="M56.047,25.006c-0.703,0-1.408-0.269-1.945-0.806c-1.074-1.075-1.074-2.817,0-3.893l7.064-7.063
	c1.075-1.075,2.816-1.075,3.893,0c1.073,1.075,1.073,2.816,0,3.893L57.995,24.2C57.455,24.737,56.751,25.006,56.047,25.006z"/>
<path fill="#FFAD5A" d="M15.596,65.459c-0.704,0-1.409-0.271-1.946-0.808c-1.075-1.074-1.075-2.815,0-3.891l7.064-7.063
	c1.075-1.075,2.817-1.075,3.891,0c1.075,1.073,1.075,2.815,0,3.891l-7.064,7.063C17.004,65.188,16.3,65.459,15.596,65.459z"/>
<path fill="#66B1E3" d="M80.255,78.706H43.088c-7.544,0-13.453-5.689-13.453-13.141c0-6.686,4.984-13.41,11.461-14.368
	c-0.021-0.37-0.033-1.329-0.033-1.7c0-10.451,8.506-19.25,18.959-19.25c8.523,0,15.879,5.541,18.192,13.498
	c0.697-0.1,1.376-0.223,2.041-0.223c9.183,0,16.653,9.748,16.653,18.884C96.908,71.496,89.438,78.706,80.255,78.706z M43.088,55.379
	c-4.459,0-7.949,4.796-7.949,9.187c0,4.365,3.49,9.143,7.949,9.143h37.167c6.253,0,11.149-6.182,11.149-12.336
	c0-6.102-5-11.739-11.149-11.739c-0.999,0-2.09-0.147-3.338,0.241l-3.149,0.818l-0.404-3.361c-0.825-6.723-6.563-11.83-13.342-11.83
	c-7.418,0-13.455,6.014-13.455,13.432c0,1.061,0.127,2.112,0.379,3.149l0.936,3.841l-3.934-0.469
	C43.668,55.419,43.38,55.379,43.088,55.379z"/>
<path fill="#FFAD5A" d="M39.539,21.674c-9.508,0-17.253,7.746-17.253,17.253c0,6.096,3.192,11.975,7.979,15.028
	c1.061-1.706,3.326-2.437,3.326-2.437c-3.469-0.938-6.177-6.887-6.177-11.438c0-6.479,4.583-13.224,12.122-13.224
	c3.232,0,6.324,1.578,8.461,3.683c0.453-0.315,1.859-1.138,2.219-1.304c0.33-0.165,1.125-0.475,1.152-0.487
	c0.164-0.069,1.21-0.513,1.582-0.623C49.789,24.22,44.947,21.674,39.539,21.674z"/>
</svg>
