<?xml version="1.0" encoding="utf-8"?>
<!DOCTYPE svg PUBLIC "-//W3C//DTD SVG 1.1//EN" "http://www.w3.org/Graphics/SVG/1.1/DTD/svg11.dtd">
<svg version="1.1" id="weather-drizzle-sun" xmlns="http://www.w3.org/2000/svg" xmlns:xlink="http://www.w3.org/1999/xlink"
	 x="0px" y="0px" width="100px" height="100px" viewBox="0 0 100 100" enable-background="new 0 0 100 100" xml:space="preserve">
<path fill="#E0E0E0" d="M32.754,90.344c-0.532,0-1.072-0.146-1.551-0.466c-1.301-0.858-1.661-2.606-0.803-3.911l2.795-4.84
	c0.854-1.301,2.605-1.661,3.908-0.801c1.303,0.855,1.66,2.605,0.803,3.908l-2.793,4.839C34.57,89.896,33.672,90.344,32.754,90.344z"
	/>
<path fill="#E0E0E0" d="M43.459,97.596c-0.532,0-1.07-0.149-1.547-0.467c-1.303-0.854-1.666-2.604-0.809-3.906l3.943-6.617
	c0.855-1.301,2.605-1.662,3.906-0.808c1.305,0.856,1.666,2.604,0.811,3.908l-3.943,6.616C45.279,97.146,44.377,97.596,43.459,97.596
	z"/>
<path fill="#E0E0E0" d="M59.51,93.273c-0.533,0-1.07-0.149-1.549-0.467c-1.303-0.857-1.662-2.604-0.805-3.908l3.643-6.129
	c0.857-1.303,2.607-1.662,3.91-0.803s1.662,2.608,0.805,3.908l-3.643,6.129C61.328,92.828,60.428,93.273,59.51,93.273z"/>
<path fill="#E0E0E0" d="M70.078,99c-0.533,0-1.072-0.15-1.551-0.467c-1.303-0.859-1.662-2.61-0.806-3.909l7.931-12.627
	c0.856-1.3,2.606-1.661,3.91-0.804c1.301,0.859,1.659,2.609,0.805,3.91l-7.933,12.625C71.896,98.553,70.994,99,70.078,99z"/>
<path fill="#FFAD5A" d="M37.592,15.087c-1.52,0-2.5-1.231-2.5-2.752V4.08c0-1.52,0.98-2.751,2.5-2.751s2.5,1.231,2.5,2.751v8.255
	C40.092,13.854,39.111,15.087,37.592,15.087z"/>
<path fill="#FFAD5A" d="M15.641,41.123H6.01c-1.52,0-2.751-0.98-2.751-2.5s1.232-2.5,2.751-2.5h9.631c1.52,0,2.752,0.98,2.752,2.5
	S17.16,41.123,15.641,41.123z"/>
<path fill="#FFAD5A" d="M21.752,24.129c-0.704,0-1.408-0.27-1.946-0.806l-7.064-7.063c-1.075-1.072-1.075-2.813,0-3.891
	c1.075-1.075,2.817-1.075,3.892,0l7.064,7.063c1.075,1.073,1.075,2.815,0,3.893C23.16,23.859,22.455,24.129,21.752,24.129z"/>
<path fill="#FFAD5A" d="M55.139,24.129c-0.703,0-1.408-0.27-1.945-0.806c-1.074-1.075-1.074-2.817,0-3.892l7.064-7.063
	c1.075-1.075,2.816-1.075,3.893,0c1.073,1.073,1.073,2.815,0,3.891l-7.065,7.064C56.547,23.859,55.843,24.129,55.139,24.129z"/>
<path fill="#FFAD5A" d="M14.688,64.582c-0.704,0-1.409-0.27-1.946-0.807c-1.075-1.075-1.075-2.816,0-3.893l7.064-7.063
	c1.075-1.075,2.817-1.075,3.891,0c1.075,1.074,1.075,2.814,0,3.891l-7.064,7.063C16.096,64.313,15.392,64.582,14.688,64.582z"/>
<path fill="#66B1E3" d="M79.347,76.123H42.18c-7.544,0-13.453-5.587-13.453-13.038c0-6.683,4.984-12.608,11.461-13.565
	c-0.021-0.371-0.033-0.93-0.033-1.301c0-10.451,8.506-19.049,18.959-19.049c8.523,0,15.879,5.643,18.192,13.6
	c0.697-0.101,1.376-0.174,2.041-0.174C88.529,42.596,96,50.768,96,59.902C96,68.991,88.529,76.123,79.347,76.123z M42.18,54.502
	c-4.459,0-7.949,3.943-7.949,8.334c0,4.365,3.49,8.287,7.949,8.287h37.167c6.253,0,11.149-5.326,11.149-11.482
	c0-6.1-5-11.313-11.149-11.313c-0.999,0-2.09,0.064-3.338,0.455l-3.149,0.927l-0.404-3.31c-0.825-6.721-6.563-11.805-13.342-11.805
	c-7.418,0-13.455,6.024-13.455,13.442c0,1.062,0.127,2.12,0.379,3.157l0.936,3.845l-3.934-0.467
	C42.76,54.541,42.472,54.502,42.18,54.502z"/>
<path fill="#FFAD5A" d="M38.631,20.797c-9.508,0-17.253,7.746-17.253,17.253c0,6.095,3.192,11.476,7.979,14.528
	c1.061-1.706,2.732-2.861,3.936-3.455h-0.016c-3.797-1-6.396-6.219-6.396-10.771c0-6.479,5.27-11.797,11.75-11.797
	c3.234,0,6.162,1.193,8.297,3.299c0.453-0.315,2.09-1.344,2.447-1.508c0.33-0.166,1.061-0.514,1.088-0.527
	c0.164-0.067,1.21-0.483,1.582-0.596C48.881,23.314,44.039,20.797,38.631,20.797z"/>
<circle fill="#E0E0E0" cx="86.385" cy="91.66" r="2.998"/>
</svg>