<?xml version="1.0" encoding="utf-8"?>
<!DOCTYPE svg PUBLIC "-//W3C//DTD SVG 1.1//EN" "http://www.w3.org/Graphics/SVG/1.1/DTD/svg11.dtd">
<svg version="1.1" id="weather-lightning" xmlns="http://www.w3.org/2000/svg" xmlns:xlink="http://www.w3.org/1999/xlink"
	 x="0px" y="0px" width="100px" height="100px" viewBox="0 0 100 100" enable-background="new 0 0 100 100" xml:space="preserve">
<polygon fill="#FFAD5A" points="43.999,43.186 40.941,67.186 49.468,67.186 45.707,89.664 61.287,57.186 51.48,57.186
	56.516,43.186 "/>
<path fill="#66B1E3" d="M70.121,68.5H67v-5h3.121c7.084,0,12.848-6.732,12.848-13.814c0-7.119-5.764-13.24-12.848-13.24
	c-1.186,0-2.443,0.053-3.848,0.49l-3.148,0.898l-0.404-3.313c-0.951-7.711-7.529-13.547-15.303-13.547
	c-8.511,0-15.436,6.914-15.436,15.424c0,1.223,0.146,2.438,0.436,3.631l0.932,3.832l-3.92-0.453
	c-0.33-0.039-0.668-0.053-1.013-0.053c-5.104,0-9.255,4.809-9.255,9.91c0,5.104,4.151,10.232,9.255,10.232H34v5h-5.583
	c-8.139,0-14.759-7.346-14.759-15.484c0-7.5,5.626-13.916,12.882-14.844c-0.04-0.523-0.062-1.152-0.062-1.686
	c0-11.545,9.395-20.986,20.938-20.986c9.518,0,17.712,6.396,20.174,15.34c0.861-0.137,1.699-0.215,2.529-0.215
	c10.117,0,18.352,8.662,18.352,18.813C88.473,59.555,80.238,68.5,70.121,68.5z"/>
</svg>