<?xml version="1.0" encoding="utf-8"?>
<!DOCTYPE svg PUBLIC "-//W3C//DTD SVG 1.1//EN" "http://www.w3.org/Graphics/SVG/1.1/DTD/svg11.dtd">
<svg version="1.1" id="weather-fog" xmlns="http://www.w3.org/2000/svg" xmlns:xlink="http://www.w3.org/1999/xlink" x="0px"
	 y="0px" width="100px" height="100px" viewBox="0 0 100 100" enable-background="new 0 0 100 100" xml:space="preserve">
<g>
	<path fill="#E0E0E0" d="M72.854,78.5H26.459c-1.507,0-2.729-0.992-2.729-2.5s1.222-2.5,2.729-2.5h46.396
		c1.507,0,2.729,0.992,2.729,2.5S74.361,78.5,72.854,78.5z"/>
</g>
<g>
	<path fill="#E0E0E0" d="M72.854,90.5H26.459c-1.507,0-2.729-0.992-2.729-2.5s1.222-2.5,2.729-2.5h46.396
		c1.507,0,2.729,0.992,2.729,2.5S74.361,90.5,72.854,90.5z"/>
</g>
<g>
	<path fill="#66B1E3" d="M71.188,65.5H28.193c-8.611,0-15.105-6.98-15.105-15.127c0-7.588,5.595-13.863,13.285-14.667
		c-0.045-0.563-0.067-1.34-0.067-1.906c0-11.86,9.636-21.612,21.478-21.612c9.762,0,18.166,6.498,20.691,15.619
		c0.855-0.178,1.768-0.324,2.715-0.324C81.738,27.482,90,36.387,90,46.701C89.998,56.779,81.736,65.5,71.188,65.5z M28.193,40.652
		c-5.59,0-9.646,4.303-9.646,9.449c0,5.116,4.058,9.397,9.646,9.397h42.994c7.612,0,13.354-5.948,13.354-13.084
		c0-7.254-5.865-13.22-13.354-13.22c-1.292,0-2.666,0.289-3.994,0.707l-3.125,0.912l-0.4-3.289
		c-0.981-7.953-7.811-13.969-15.887-13.969c-8.832,0-16.019,7.19-16.019,16.041c0,1.272,0.151,2.543,0.452,3.782l0.92,3.792
		l-3.88-0.441C28.908,40.691,28.556,40.652,28.193,40.652z"/>
</g>
</svg>