<?xml version="1.0" encoding="utf-8"?>
<!DOCTYPE svg PUBLIC "-//W3C//DTD SVG 1.1//EN" "http://www.w3.org/Graphics/SVG/1.1/DTD/svg11.dtd">
<svg version="1.1" id="weather-drizzle-moon" xmlns="http://www.w3.org/2000/svg" xmlns:xlink="http://www.w3.org/1999/xlink"
	 x="0px" y="0px" width="100px" height="100px" viewBox="0 0 100 100" enable-background="new 0 0 100 100" xml:space="preserve">
<g>
	<path fill="#66B1E3" d="M86.201,27.416c-1.461,0.511-2.998,0.771-4.566,0.771c-7.76,0-14.069-6.312-14.069-14.069
		c0-2.002,0.411-3.931,1.213-5.726l1.653-3.668l-5.049,0.648c-9.158,1.48-17.77,8.938-17.77,18.052v0.063
		c2,0.369,3.785,0.854,4.791,1.473c1.083-6.375,4.695-11.904,10.346-14.286c-0.217,1.126,0.08,2.273,0.08,3.442
		c0,10.14,8.467,18.398,18.607,18.398c0.615,0,1.326-0.033,1.932-0.099c-1.883,3.562-5.023,7.313-8.822,8.567
		c1.83,0.572,3.58,3.515,5.129,3.515h0.01c4.535-3,7.978-8.082,9.33-13.429L90,26.634L86.201,27.416z"/>
</g>
<g>
	<path fill="#66B1E3" d="M63.368,73.5H26.201c-7.544,0-13.453-5.837-13.453-13.288c0-6.683,4.984-12.733,11.46-13.69
		c-0.021-0.371-0.033-0.992-0.033-1.362c0-10.451,8.506-19.08,18.959-19.08c8.523,0,15.879,5.626,18.192,13.583
		c0.697-0.1,1.376-0.182,2.041-0.182c9.183,0,16.653,8.418,16.653,17.553C80.021,66.122,72.551,73.5,63.368,73.5z M26.201,51.379
		c-4.458,0-7.95,4.193-7.95,8.584c0,4.365,3.491,8.537,7.95,8.537h37.167c6.253,0,11.149-5.576,11.149-11.732
		c0-6.1-5-11.438-11.149-11.438c-0.999,0-2.09,0.002-3.338,0.393l-3.149,0.896l-0.404-3.325C55.65,36.573,49.914,31.48,43.135,31.48
		c-7.418,0-13.455,6.022-13.455,13.44c0,1.062,0.127,2.118,0.379,3.155l0.935,3.844l-3.933-0.468
		C26.781,51.418,26.493,51.379,26.201,51.379z"/>
</g>
<g>
	<path fill="#E0E0E0" d="M16.775,86.221c-0.532,0-1.072-0.146-1.551-0.466c-1.301-0.858-1.661-2.606-0.803-3.911l2.795-4.84
		c0.857-1.301,2.608-1.661,3.91-0.801c1.302,0.855,1.661,2.605,0.803,3.908l-2.793,4.839C18.592,85.773,17.693,86.221,16.775,86.221
		z"/>
</g>
<g>
	<path fill="#E0E0E0" d="M27.48,93.473c-0.532,0-1.07-0.15-1.547-0.467c-1.303-0.854-1.666-2.604-0.809-3.906l3.944-6.617
		c0.856-1.301,2.606-1.662,3.907-0.808c1.304,0.856,1.666,2.604,0.81,3.908l-3.944,6.616C29.301,93.023,28.398,93.473,27.48,93.473z
		"/>
</g>
<g>
	<path fill="#E0E0E0" d="M43.531,89.15c-0.533,0-1.07-0.149-1.549-0.467c-1.303-0.857-1.662-2.604-0.805-3.908l3.643-6.129
		c0.857-1.302,2.607-1.662,3.91-0.802c1.303,0.859,1.662,2.608,0.805,3.908l-3.643,6.129C45.35,88.705,44.449,89.15,43.531,89.15z"
		/>
</g>
<g>
	<path fill="#E0E0E0" d="M54.1,94.877c-0.533,0-1.072-0.15-1.551-0.467c-1.302-0.859-1.662-2.61-0.805-3.909l7.93-12.627
		c0.857-1.3,2.607-1.661,3.91-0.804c1.301,0.859,1.66,2.609,0.805,3.91l-7.932,12.625C55.918,94.43,55.016,94.877,54.1,94.877z"/>
</g>
<circle fill="#E0E0E0" cx="70.406" cy="87.537" r="2.998"/>
</svg>