<?xml version="1.0" encoding="utf-8"?>
<!-- Generator: Adobe Illustrator 16.0.4, SVG Export Plug-In . SVG Version: 6.00 Build 0)  -->
<!DOCTYPE svg PUBLIC "-//W3C//DTD SVG 1.1//EN" "http://www.w3.org/Graphics/SVG/1.1/DTD/svg11.dtd">
<svg version="1.1" id="pagekit-logo" xmlns="http://www.w3.org/2000/svg" xmlns:xlink="http://www.w3.org/1999/xlink" x="0px"
	 y="0px" width="127px" height="32px" viewBox="0 0 127 32" enable-background="new 0 0 127 32" xml:space="preserve">
<g>
	<path fill="#212121" d="M47.15,22.01c-2.85,0-4.11-1.949-4.44-2.52v7.35H41V8.09h1.56l0.15,2.4c0.15-0.3,1.59-2.67,4.74-2.67
		c3.6,0,5.85,3.029,5.85,7.08C53.299,18.949,50.75,22.01,47.15,22.01z M47.15,9.23c-2.7,0-4.5,2.58-4.5,5.67
		c0,3.06,1.65,5.67,4.35,5.67s4.5-2.58,4.5-5.67C51.5,11.84,49.85,9.23,47.15,9.23z"/>
	<path fill="#212121" d="M64.699,21.74c0,0-0.299-0.9-0.299-1.801c-0.812,1.051-2.25,2.069-4.5,2.069c-2.25,0-4.2-1.319-4.2-4.108
		c0-2.792,2.4-3.69,3.45-3.99c1.05-0.301,2.879-0.57,5.19-0.57v-1.05c0-2.25-1.59-3.06-3.39-3.06c-1.8,0-3.27,0.66-4.05,1.229
		L56.21,9.14c1.021-0.631,2.7-1.32,4.65-1.32c1.951,0,3.121,0.57,3.839,1.2c0.721,0.63,1.35,1.62,1.35,3.72v6.3
		c0,1.351,0.301,2.101,0.602,2.7H64.699z M64.34,14.66c-0.75,0-2.67,0.15-3.541,0.3c-0.869,0.149-3.3,0.63-3.3,2.88
		s1.65,2.82,2.851,2.82c1.199,0,3.089-0.721,3.99-2.521V14.66z"/>
	<path fill="#212121" d="M80.148,24.74c-0.75,1.049-2.398,2.25-5.25,2.25c-2.851,0-4.709-1.291-5.01-1.592l0.84-1.289
		c0.301,0.301,2.131,1.381,4.17,1.381c2.041,0,3.211-0.75,3.781-1.471c0.569-0.721,0.959-1.98,0.959-3.931v-1.2
		c-0.091,0.182-1.289,2.7-4.74,2.7c-3.449,0-5.699-2.85-5.699-6.9c0-4.049,2.699-6.869,6-6.869s4.32,2.34,4.439,2.67l0.301-2.4h1.41
		v11.25C81.35,22.34,80.898,23.689,80.148,24.74z M75.439,9.23C72.799,9.23,71,11.689,71,14.689c0,3,1.648,5.461,4.26,5.461
		c2.639,0,4.439-2.461,4.439-5.461C79.699,11.689,78.049,9.23,75.439,9.23z"/>
	<path fill="#212121" d="M86.75,15.141c0,3.149,1.619,5.369,4.5,5.369c2.879,0,4.35-1.619,4.35-1.619l0.84,1.17
		c0,0-1.739,1.949-5.34,1.949c-3.6,0-6.149-2.67-6.149-7.08c0-4.439,2.698-7.109,6.149-7.109c3.449,0,5.639,2.67,5.639,6.42v0.9
		H86.75z M91.039,9.23c-2.939,0-4.141,2.609-4.289,4.56H95C95,11.54,93.949,9.23,91.039,9.23z"/>
	<path fill="#212121" d="M109.039,21.74l-5.189-7.051l-1.951,1.86v5.19h-1.709V2.09h1.709v12.6l6.541-6.6h2.25l-5.698,5.49
		l6.147,8.16H109.039z"/>
	<path fill="#212121" d="M114.709,4.73c-0.75,0-1.381-0.6-1.381-1.35S113.93,2,114.68,2s1.379,0.601,1.379,1.351
		S115.459,4.73,114.709,4.73z M113.84,21.74V8.09h1.709v13.65H113.84z"/>
	<path fill="#212121" d="M122.479,9.44v7.951c0,1.648,0.211,2.278,0.66,2.698c0.48,0.42,1.051,0.511,1.65,0.511
		s1.32-0.211,1.32-0.211l0.238,1.352c-0.449,0.148-1.351,0.299-2.101,0.299c-1.049,0-1.949-0.299-2.608-1.049
		c-0.689-0.75-0.869-1.801-0.869-3.6V9.44h-2.07V8.09h2.07l0.237-3.899h1.472V8.09h4.02v1.35H122.479z"/>
</g>
<polygon fill="#212121" points="0,0 0,32 13,32 13,27 5,27 5,5 21,5 21,22 13,22 13,27 26,27 26,0 "/>
</svg>
