<?xml version="1.0" encoding="utf-8"?>
<!DOCTYPE svg PUBLIC "-//W3C//DTD SVG 1.1//EN" "http://www.w3.org/Graphics/SVG/1.1/DTD/svg11.dtd">
<svg version="1.1" id="weather-cloud-moon" xmlns="http://www.w3.org/2000/svg" xmlns:xlink="http://www.w3.org/1999/xlink" x="0px"
	 y="0px" width="100px" height="100px" viewBox="-0.5 -0.5 100 100" enable-background="new -0.5 -0.5 100 100"
	 xml:space="preserve">
<path fill="#FFFFFF" d="M66.678,88H24.631c-8.352,0-14.892-7.281-14.892-15.46c0-7.569,5.566-14.065,12.984-14.959
	c-0.039-0.515-0.059-1.248-0.059-1.763c0-11.646,9.477-21.231,21.123-21.231c9.588,0,17.848,6.397,20.342,15.388
	c0.795-0.133,1.654-0.248,2.549-0.248c10.209,0,18.516,9.097,18.516,19.218C85.193,79.146,77.061,88,66.678,88z M24.631,62.604
	c-5.226,0-9.318,4.644-9.318,9.726c0,5.053,4.093,9.673,9.318,9.673h42.047c7.258,0,12.941-6.206,12.941-13.281
	c0-7.05-5.807-13.113-12.941-13.113c-1.123,0-2.318,0.051-3.876,0.537l-3.188,0.914L59.205,53.7
	c-0.957-7.757-7.586-13.626-15.418-13.626c-8.574,0-15.549,6.966-15.549,15.539c0,1.225,0.147,2.447,0.438,3.654l0.937,3.865
	l-3.955-0.445C25.32,62.646,24.979,62.604,24.631,62.604z"/>
<path fill="#FFFFFF" d="M90.207,34.876c-1.652,0.577-3.391,0.87-5.164,0.87c-8.771,0-15.902-7.135-15.902-15.904
	c0-2.263,0.465-4.441,1.369-6.472l1.871-4.146L67.24,9.956c-10.35,1.675-19.516,10.105-19.516,20.407v0.071
	c2,0.416,3.709,0.967,4.848,1.664c1.225-7.207,5.023-13.457,11.41-16.148c-0.246,1.271-0.053,2.568-0.053,3.891
	c0,11.463,9.5,20.799,20.963,20.799c0.696,0,1.463-0.037,2.147-0.111c-2.129,4.025-5.696,7.675-9.99,9.093
	c2.066,0.647,4.029,3.379,5.777,3.379h0.014c5.125-3,9.017-8.543,10.546-14.584l1.113-4.719L90.207,34.876z"/>
<path fill="#FFFFFF" d="M24.793,25.409c0,1.026-1.604,1.907-3.854,2.263c-0.354,2.251-1.236,3.854-2.263,3.854
	c-1.027,0-1.908-1.604-2.264-3.854c-2.25-0.354-3.853-1.234-3.853-2.263c0-1.041,1.603-1.923,3.853-2.276
	c0.355-2.252,1.236-3.841,2.264-3.841c1.028,0,1.909,1.589,2.263,3.841C23.189,23.486,24.793,24.368,24.793,25.409z"/>
<path fill="#FFFFFF" d="M10.709,45.594c0,0.539-0.841,1.002-2.022,1.188C8.5,47.962,8.04,48.805,7.5,48.805
	s-1.001-0.844-1.188-2.022c-1.182-0.187-2.022-0.65-2.022-1.189c0-0.545,0.841-1.008,2.022-1.193
	c0.187-1.183,0.647-2.015,1.188-2.015c0.539,0,1.001,0.832,1.188,2.015C9.87,44.586,10.709,45.049,10.709,45.594z"/>
</svg>
