<?xml version="1.0" encoding="utf-8"?>
<!DOCTYPE svg PUBLIC "-//W3C//DTD SVG 1.1//EN" "http://www.w3.org/Graphics/SVG/1.1/DTD/svg11.dtd">
<svg version="1.1" id="weather-moon" xmlns="http://www.w3.org/2000/svg" xmlns:xlink="http://www.w3.org/1999/xlink" x="0px"
	 y="0px" width="25px" height="25px" viewBox="0 0 25 25" enable-background="new 0 0 25 25" xml:space="preserve">
<path fill="#FFFFFF" d="M12.001,21.489c-0.725,0-1.451-0.095-2.158-0.282c-4.574-1.214-7.283-6.016-6.04-10.704
	c0.938-3.532,3.952-6.161,7.5-6.541l1.105-0.119l-0.645,0.906c-0.533,0.748-0.924,1.583-1.163,2.483
	c-1.06,3.994,1.237,8.082,5.119,9.113c1.044,0.276,2.14,0.314,3.186,0.109l1.097-0.213l-0.571,0.96
	C17.856,19.847,15.009,21.489,12.001,21.489z M10.345,5.15C7.68,5.841,5.506,7.986,4.77,10.76c-1.102,4.155,1.289,8.408,5.33,9.48
	c2.868,0.759,6.002-0.342,7.859-2.665c-0.839,0.042-1.678-0.048-2.495-0.263c-4.416-1.173-7.031-5.81-5.83-10.337
	C9.804,6.336,10.042,5.726,10.345,5.15z"/>
<path fill="#FFFFFF" d="M23.077,7.509c0,0.335-0.524,0.623-1.261,0.739c-0.115,0.735-0.402,1.26-0.738,1.26
	c-0.338,0-0.625-0.524-0.739-1.26c-0.735-0.117-1.262-0.404-1.262-0.739c0-0.341,0.526-0.628,1.262-0.744
	c0.114-0.735,0.401-1.254,0.739-1.254c0.336,0,0.623,0.519,0.738,1.254C22.553,6.881,23.077,7.168,23.077,7.509z"/>
<path fill="#FFFFFF" d="M18.521,4.817c0,0.252-0.394,0.468-0.943,0.556c-0.088,0.551-0.305,0.945-0.557,0.945
	s-0.47-0.394-0.555-0.945c-0.555-0.088-0.945-0.304-0.945-0.556c0-0.256,0.392-0.471,0.945-0.558
	c0.085-0.554,0.303-0.943,0.555-0.943s0.469,0.389,0.557,0.943C18.129,4.346,18.521,4.562,18.521,4.817z"/>
</svg>
