<?xml version="1.0" encoding="utf-8"?>
<!DOCTYPE svg PUBLIC "-//W3C//DTD SVG 1.1//EN" "http://www.w3.org/Graphics/SVG/1.1/DTD/svg11.dtd">
<svg version="1.1" id="weather-rain-moon" xmlns="http://www.w3.org/2000/svg" xmlns:xlink="http://www.w3.org/1999/xlink" x="0px"
	 y="0px" width="100px" height="100px" viewBox="-0.5 -0.5 100 100" enable-background="new -0.5 -0.5 100 100"
	 xml:space="preserve">
<g>
	<path fill="#FFFFFF" d="M59.426,94.5c-0.496,0-0.996-0.139-1.441-0.434c-1.211-0.797-1.545-2.428-0.748-3.637l7.049-11.308
		c0.799-1.212,2.424-1.546,3.639-0.747c1.209,0.799,1.543,2.43,0.746,3.639l-7.047,11.305C61.117,94.086,60.279,94.5,59.426,94.5z"
		/>
</g>
<g>
	<path fill="#FFFFFF" d="M45.299,94.5c-0.496,0-0.998-0.139-1.443-0.434c-1.211-0.797-1.545-2.428-0.746-3.637l7.044-11.308
		c0.803-1.212,2.428-1.546,3.641-0.747c1.21,0.799,1.545,2.43,0.747,3.639l-7.046,11.305C46.988,94.086,46.152,94.5,45.299,94.5z"/>
</g>
<g>
	<path fill="#FFFFFF" d="M32.113,94.5c-0.496,0-0.998-0.139-1.443-0.434c-1.21-0.797-1.545-2.428-0.746-3.637l7.045-11.308
		c0.801-1.212,2.426-1.546,3.639-0.747c1.211,0.799,1.545,2.43,0.748,3.639l-7.047,11.305C33.803,94.086,32.966,94.5,32.113,94.5z"
		/>
</g>
<g>
	<path fill="#FFFFFF" d="M17.985,94.5c-0.496,0-0.997-0.139-1.443-0.434c-1.209-0.797-1.544-2.428-0.746-3.637l7.045-11.308
		c0.8-1.212,2.425-1.546,3.638-0.747c1.211,0.799,1.545,2.43,0.748,3.639L20.18,93.318C19.675,94.086,18.838,94.5,17.985,94.5z"/>
</g>
<g>
	<path fill="#FFFFFF" d="M85.588,26.916c-1.461,0.511-2.998,0.771-4.566,0.771c-7.76,0-14.068-6.312-14.068-14.069
		c0-2.002,0.41-3.931,1.213-5.726l1.652-3.668L64.77,4.873C55.611,6.353,47,13.812,47,22.925v0.063c2,0.369,3.785,0.854,4.791,1.473
		c1.083-6.375,4.695-11.904,10.346-14.286c-0.217,1.126,0.08,2.273,0.08,3.442c0,10.14,8.467,18.398,18.607,18.398
		c0.615,0,1.326-0.033,1.932-0.099c-1.883,3.562-5.023,7.313-8.822,8.567c1.83,0.572,3.58,3.515,5.129,3.515h0.011
		c4.534-3,7.978-8.082,9.329-13.429l0.984-4.437L85.588,26.916z"/>
</g>
<g>
	<path fill="#FFFFFF" d="M62.755,74H25.588c-7.544,0-13.453-6.837-13.453-14.288c0-6.683,4.984-12.733,11.46-13.69
		c-0.021-0.371-0.033-0.992-0.033-1.362c0-10.451,8.506-19.08,18.959-19.08c8.523,0,15.879,5.626,18.192,13.583
		c0.697-0.1,1.376-0.182,2.041-0.182c9.184,0,16.653,8.418,16.653,17.553C79.408,65.622,71.938,74,62.755,74z M25.588,50.879
		c-4.458,0-7.95,4.193-7.95,8.584c0,4.365,3.491,8.537,7.95,8.537h37.167c6.253,0,11.149-5.576,11.149-11.732
		c0-6.1-5-11.438-11.149-11.438c-0.999,0-2.09,0.002-3.338,0.393l-3.149,0.896l-0.404-3.325
		c-0.825-6.721-6.562-11.813-13.341-11.813c-7.418,0-13.455,6.022-13.455,13.44c0,1.062,0.127,2.118,0.379,3.155l0.935,3.844
		l-3.933-0.468C26.168,50.918,25.88,50.879,25.588,50.879z"/>
</g>
</svg>
