<?xml version="1.0" encoding="utf-8"?>
<!DOCTYPE svg PUBLIC "-//W3C//DTD SVG 1.1//EN" "http://www.w3.org/Graphics/SVG/1.1/DTD/svg11.dtd">
<svg version="1.1" id="weather-cloud-sun" xmlns="http://www.w3.org/2000/svg" xmlns:xlink="http://www.w3.org/1999/xlink" x="0px"
	 y="0px" width="25px" height="25px" viewBox="0 0 25 25" enable-background="new 0 0 25 25" xml:space="preserve">
<path fill="#FFFFFF" d="M7.343,14.487c-1.299-0.795-2.075-2.177-2.075-3.698c0-2.391,1.945-4.336,4.335-4.336
	c1.158,0,2.247,0.451,3.065,1.271l-0.707,0.707c-0.63-0.63-1.468-0.978-2.358-0.978c-1.839,0-3.335,1.497-3.335,3.336
	c0,1.17,0.597,2.233,1.597,2.845L7.343,14.487z"/>
<path fill="#FFFFFF" d="M8.5,4.5C8.224,4.5,8,4.276,8,4V2c0-0.276,0.224-0.5,0.5-0.5S9,1.724,9,2v2C9,4.276,8.776,4.5,8.5,4.5z"/>
<path fill="#FFFFFF" d="M4,12H1c-0.276,0-0.5-0.224-0.5-0.5S0.724,11,1,11h3c0.276,0,0.5,0.224,0.5,0.5S4.276,12,4,12z"/>
<path fill="#FFFFFF" d="M5.175,6.841c-0.128,0-0.256-0.049-0.354-0.146L2.947,4.821c-0.195-0.195-0.195-0.512,0-0.707
	s0.512-0.195,0.707,0l1.874,1.873c0.195,0.195,0.195,0.512,0,0.707C5.431,6.792,5.303,6.841,5.175,6.841z"/>
<path fill="#FFFFFF" d="M14.031,6.841c-0.128,0-0.256-0.049-0.354-0.146c-0.195-0.195-0.195-0.512,0-0.707l1.871-1.873
	c0.195-0.195,0.512-0.195,0.707,0c0.195,0.195,0.195,0.512,0,0.707l-1.871,1.873C14.287,6.792,14.159,6.841,14.031,6.841z"/>
<path fill="#FFFFFF" d="M3.301,17.57c-0.128,0-0.256-0.049-0.354-0.146c-0.195-0.195-0.195-0.512,0-0.707l1.874-1.875
	c0.195-0.195,0.512-0.195,0.707,0s0.195,0.512,0,0.707l-1.874,1.875C3.557,17.521,3.429,17.57,3.301,17.57z"/>
<path fill="#FFFFFF" d="M20.334,21h-9.798c-1.901,0-3.321-1.962-3.321-3.717c0-1.67,1.281-3.527,3.038-3.71
	c-0.016-0.158-0.024-0.316-0.024-0.478c0-2.615,2.141-4.743,4.773-4.743c2.229,0,4.141,1.569,4.643,3.727
	c0.098-0.006,0.191-0.008,0.28-0.008l0.41,0.004c2.258,0,4.166,1.998,4.166,4.363C24.5,18.869,22.554,21,20.334,21z M10.536,14.559
	c-1.307,0-2.321,1.465-2.321,2.725C8.215,18.54,9.229,20,10.536,20h9.798c1.812,0,3.166-1.88,3.166-3.561
	c0-1.792-1.479-3.363-3.166-3.363l-0.41-0.004c-0.181,0-0.37,0.007-0.535,0.059l-0.573,0.181l-0.073-0.596
	c-0.235-1.917-1.844-3.362-3.741-3.362c-2.081,0-3.773,1.679-3.773,3.743c0,0.298,0.034,0.576,0.106,0.874l0.17,0.704l-0.718-0.09
	C10.666,14.568,10.601,14.559,10.536,14.559z"/>
</svg>
