<?xml version="1.0" encoding="utf-8"?>
<!DOCTYPE svg PUBLIC "-//W3C//DTD SVG 1.1//EN" "http://www.w3.org/Graphics/SVG/1.1/DTD/svg11.dtd">
<svg version="1.1" id="weather-snow" xmlns="http://www.w3.org/2000/svg" xmlns:xlink="http://www.w3.org/1999/xlink" x="0px"
	 y="0px" width="100px" height="100px" viewBox="0 0 100 100" enable-background="new 0 0 100 100" xml:space="preserve">
<path fill="#E0E0E0" d="M26.5,60.5h0.941c-8.325,0-15.098-7.66-15.098-16.048c0-7.777,5.778-14.631,13.222-15.566
	c-0.042-0.544-0.064-1.294-0.064-1.837c0-11.813,9.616-21.526,21.435-21.526c9.759,0,18.164,6.564,20.66,15.765
	c0.873-0.134,1.737-0.225,2.604-0.225c10.323,0,17.969,8.412,17.969,18.77c0,10.351-8.668,18.761-19.668,18.761v-5.537
	c7,0,14.131-5.938,14.131-13.236c0-7.305-5.537-13.245-12.808-13.245c-1.267,0-2.366,0.208-3.748,0.642l-3.073,0.989l-0.359-3.293
	c-0.981-7.958-7.73-13.957-15.73-13.957c-8.766,0-15.887,7.126-15.887,15.886c0,1.252,0.155,2.473,0.461,3.731l0.935,3.846
	l-3.931-0.441c-0.43-0.049-0.736-0.09-1.053-0.09c-5.271,0-9.558,5.469-9.558,10.834c0,5.334,4.289,10.779,9.561,10.779H26.5V60.5z"
	/>
<path fill="#E0E0E0" d="M87.038,72.694c-0.559,0.921-2.474,0.838-4.682-0.069c-1.542,1.825-3.202,2.78-4.123,2.222
	c-0.921-0.56-0.839-2.473,0.068-4.682c-1.823-1.54-2.78-3.202-2.222-4.122c0.565-0.933,2.48-0.85,4.688,0.055
	c1.542-1.821,3.194-2.767,4.116-2.207c0.92,0.558,0.846,2.461-0.062,4.668C86.646,70.1,87.603,71.762,87.038,72.694z"/>
<path fill="#E0E0E0" d="M70.253,88.183c-0.521,0.858-2.312,0.783-4.376-0.065c-1.44,1.706-2.992,2.599-3.853,2.077
	c-0.86-0.522-0.783-2.312,0.063-4.376c-1.704-1.439-2.599-2.993-2.076-3.854c0.529-0.87,2.318-0.791,4.383,0.055
	c1.439-1.703,2.985-2.587,3.846-2.065c0.86,0.521,0.791,2.299-0.058,4.364C69.887,85.758,70.781,87.311,70.253,88.183z"/>
<path fill="#E0E0E0" d="M24.457,75.014c-0.529,0.872-2.344,0.794-4.438-0.066c-1.461,1.73-3.036,2.638-3.909,2.106
	c-0.872-0.529-0.794-2.345,0.065-4.438c-1.729-1.462-2.637-3.037-2.106-3.909c0.536-0.883,2.352-0.804,4.446,0.055
	c1.461-1.728,3.028-2.626,3.902-2.095c0.872,0.527,0.802,2.332-0.059,4.426C24.086,72.555,24.992,74.13,24.457,75.014z"/>
<path fill="#E0E0E0" d="M43.064,89.916c-0.521,0.859-2.307,0.781-4.368-0.063c-1.438,1.701-2.989,2.593-3.848,2.072
	c-0.858-0.523-0.782-2.31,0.064-4.37c-1.702-1.438-2.595-2.987-2.073-3.849c0.527-0.868,2.314-0.79,4.376,0.055
	c1.438-1.701,2.981-2.584,3.841-2.062c0.858,0.521,0.789,2.295-0.058,4.356C42.699,87.495,43.592,89.047,43.064,89.916z"/>
<path fill="#66B1E3" d="M65.545,58.937l-1.712-1.044l1.047-1.699c0.579-0.94,0.287-2.172-0.653-2.752
	c-0.941-0.579-2.172-0.286-2.752,0.654l-1.057,1.715l-7.079-4.315l7.868-4.822l1.045,1.706c0.378,0.615,1.035,0.955,1.707,0.955
	c0.357,0,0.718-0.096,1.044-0.296c0.941-0.577,1.237-1.809,0.659-2.751l-1.045-1.705l0.853-0.521c0.942-0.578,1.237-1.809,0.66-2.75
	c-0.577-0.942-1.81-1.237-2.75-0.66l-0.853,0.521l-1.045-1.705c-0.578-0.94-1.809-1.236-2.751-0.659
	c-0.941,0.577-1.237,1.809-0.659,2.751l1.042,1.704L51.5,47.928V40.5h2.004c1.105,0,2-0.896,2-2s-0.895-2-2-2H51.5V34
	c0-1.104-0.896-2-2-2s-2,0.896-2,2v2.5h-1.996c-1.104,0-2,0.896-2,2s0.896,2,2,2H47.5v7.438l-7.67-4.676l1.049-1.699
	c0.58-0.941,0.288-2.173-0.653-2.752c-0.941-0.58-2.172-0.287-2.751,0.652l-1.057,1.717l-0.872-0.532
	c-0.943-0.576-2.174-0.278-2.749,0.667c-0.575,0.942-0.277,2.174,0.667,2.748l0.855,0.521l-1.047,1.699
	c-0.58,0.941-0.287,2.173,0.653,2.752c0.327,0.202,0.689,0.299,1.047,0.299c0.671,0,1.327-0.338,1.705-0.951l1.058-1.717
	l7.936,4.838l-7.016,4.301L37.609,54.1c-0.577-0.942-1.809-1.238-2.75-0.66c-0.941,0.577-1.237,1.809-0.66,2.75l1.045,1.705
	l-1.705,1.045c-0.942,0.577-1.237,1.809-0.66,2.75c0.377,0.616,1.034,0.955,1.707,0.955c0.356,0,0.717-0.095,1.043-0.295
	l1.705-1.045l1.045,1.705c0.377,0.616,1.034,0.955,1.707,0.955c0.356,0,0.717-0.095,1.043-0.295c0.941-0.577,1.237-1.809,0.66-2.75
	l-1.047-1.705l6.758-4.144V64.5h-1.996c-1.104,0-2,0.896-2,2s0.896,2,2,2H47.5V69c0,1.104,0.896,2,2,2s2-0.896,2-2v-0.5h2.004
	c1.105,0,2-0.896,2-2s-0.895-2-2-2H51.5v-9.438l6.817,4.155l-1.046,1.699c-0.58,0.94-0.287,2.172,0.653,2.752
	c0.327,0.201,0.689,0.297,1.048,0.297c0.671,0,1.326-0.338,1.705-0.951l1.057-1.715l1.729,1.054
	c0.326,0.198,0.685,0.292,1.039,0.292c0.675,0,1.333-0.341,1.71-0.959C66.787,60.742,66.488,59.512,65.545,58.937z"/>
</svg>
