<?xml version="1.0" encoding="utf-8"?>
<!DOCTYPE svg PUBLIC "-//W3C//DTD SVG 1.1//EN" "http://www.w3.org/Graphics/SVG/1.1/DTD/svg11.dtd">
<svg version="1.1" id="weather-lightning" xmlns="http://www.w3.org/2000/svg" xmlns:xlink="http://www.w3.org/1999/xlink" x="0px"
	 y="0px" width="25px" height="25px" viewBox="0 0 25 25" enable-background="new 0 0 25 25" xml:space="preserve">
<polygon fill="#FFFFFF" points="14,11 11,11 10,17 12.638,17 11,24 15.124,15 12.231,15 "/>
<path fill="#FFFFFF" d="M19.048,7.101c-0.395,0-0.761,0.114-1.093,0.234c-0.631-2.784-3.156-4.813-6.111-4.813
	c-3.46,0-6.274,2.83-6.274,6.309c0,0.282,0.02,0.571,0.059,0.856C3.114,9.751,1.5,11.174,1.5,13.349C1.5,15.566,3.192,17,5.81,17H8
	v-1H5.81c-1.6,0-3.31-0.696-3.31-2.651c0-1.965,1.71-2.665,3.31-2.665c0.125,0,0.248,0.005,0.366,0.018l0.711,0.082l-0.168-0.696
	C6.621,9.684,6.569,9.249,6.569,8.83c0-2.927,2.366-5.309,5.274-5.309c2.662,0,4.909,1.954,5.226,4.545l0.072,0.597l0.574-0.181
	c0.137-0.043,0.276-0.095,0.417-0.147c0.324-0.121,0.631-0.235,0.915-0.235c2.538,0,4.452,1.771,4.452,4.118
	c0,2.612-2.236,3.781-4.452,3.781H18v1h1.048c3.21,0,5.452-1.966,5.452-4.781C24.5,9.301,22.156,7.101,19.048,7.101z"/>
</svg>
