<?xml version="1.0" encoding="utf-8"?>
<!DOCTYPE svg PUBLIC "-//W3C//DTD SVG 1.1//EN" "http://www.w3.org/Graphics/SVG/1.1/DTD/svg11.dtd">
<svg version="1.1" id="weather-moon" xmlns="http://www.w3.org/2000/svg" xmlns:xlink="http://www.w3.org/1999/xlink" x="0px"
	 y="0px" width="100px" height="100px" viewBox="-0.5 -0.5 100 100" enable-background="new -0.5 -0.5 100 100"
	 xml:space="preserve">
<path fill="#FFFFFF" d="M50.087,82.969c-2.604,0-5.21-0.341-7.746-1.016c-16.407-4.355-26.128-21.569-21.668-38.371
	c3.359-12.66,14.166-22.077,26.889-23.434l6.051-0.646l-3.528,4.959c-1.778,2.499-3.085,5.287-3.881,8.291
	c-1.718,6.47-0.882,13.198,2.352,18.945c3.221,5.725,8.441,9.792,14.697,11.453c3.463,0.916,7.106,1.043,10.604,0.365l6.002-1.162
	l-3.129,5.254C71.086,77.083,60.877,82.969,50.087,82.969z M42.449,26.899c-7.911,2.826-14.22,9.569-16.481,18.087
	c-3.685,13.884,4.291,28.092,17.778,31.673c2.078,0.551,4.21,0.831,6.34,0.831c6.966,0,13.645-2.998,18.448-8.076
	c-2.252-0.062-4.498-0.389-6.688-0.969c-7.697-2.043-14.114-7.036-18.066-14.062c-3.938-6.998-4.959-15.181-2.873-23.039
	C41.313,29.816,41.828,28.332,42.449,26.899z"/>
<path fill="#FFFFFF" d="M79.646,29.921c0,0.597-0.933,1.107-2.238,1.315c-0.206,1.307-0.719,2.238-1.315,2.238
	c-0.596,0-1.106-0.932-1.313-2.238c-1.309-0.208-2.238-0.719-2.238-1.315c0-0.604,0.932-1.115,2.238-1.321
	c0.207-1.31,0.718-2.231,1.313-2.231c0.597,0,1.109,0.922,1.315,2.231C78.715,28.806,79.646,29.316,79.646,29.921z"/>
<path fill="#FFFFFF" d="M65.805,21.618c0,0.429-0.67,0.798-1.609,0.946c-0.147,0.938-0.516,1.607-0.944,1.607
	s-0.797-0.669-0.944-1.607c-0.939-0.148-1.609-0.518-1.609-0.946c0-0.435,0.67-0.803,1.609-0.951
	c0.147-0.94,0.516-1.604,0.944-1.604s0.797,0.663,0.944,1.604C65.135,20.815,65.805,21.184,65.805,21.618z"/>
</svg>
