<?xml version="1.0" encoding="utf-8"?>
<!DOCTYPE svg PUBLIC "-//W3C//DTD SVG 1.1//EN" "http://www.w3.org/Graphics/SVG/1.1/DTD/svg11.dtd">
<svg version="1.1" id="weather-snow" xmlns="http://www.w3.org/2000/svg" xmlns:xlink="http://www.w3.org/1999/xlink" x="0px"
	 y="0px" width="100px" height="100px" viewBox="-0.5 -0.5 100 100" enable-background="new -0.5 -0.5 100 100"
	 xml:space="preserve">
<path fill="#FFFFFF" d="M86.538,72.193c-0.56,0.922-2.474,0.839-4.683-0.068c-1.541,1.825-3.201,2.779-4.123,2.223
	c-0.92-0.561-0.838-2.474,0.068-4.683c-1.822-1.54-2.779-3.202-2.222-4.122c0.565-0.934,2.479-0.85,4.688,0.055
	c1.541-1.82,3.193-2.767,4.115-2.207c0.92,0.559,0.846,2.461-0.062,4.668C86.146,69.6,87.104,71.262,86.538,72.193z"/>
<path fill="#FFFFFF" d="M69.753,87.684c-0.521,0.857-2.312,0.782-4.376-0.065c-1.439,1.706-2.992,2.599-3.854,2.077
	c-0.859-0.522-0.782-2.312,0.063-4.377c-1.704-1.438-2.599-2.992-2.075-3.854c0.528-0.869,2.317-0.791,4.383,0.055
	c1.438-1.703,2.984-2.586,3.846-2.064c0.859,0.521,0.791,2.299-0.059,4.363C69.387,85.258,70.281,86.811,69.753,87.684z"/>
<path fill="#FFFFFF" d="M23.957,74.514c-0.529,0.872-2.344,0.795-4.438-0.065c-1.461,1.729-3.036,2.638-3.909,2.106
	c-0.872-0.529-0.794-2.346,0.065-4.438c-1.729-1.462-2.637-3.037-2.106-3.909c0.536-0.883,2.352-0.805,4.446,0.055
	c1.461-1.728,3.028-2.626,3.902-2.095c0.872,0.526,0.802,2.332-0.059,4.426C23.586,72.055,24.492,73.63,23.957,74.514z"/>
<path fill="#FFFFFF" d="M42.564,89.416c-0.521,0.859-2.307,0.781-4.368-0.062c-1.438,1.701-2.989,2.592-3.848,2.071
	c-0.858-0.522-0.782-2.31,0.064-4.37c-1.702-1.438-2.595-2.986-2.073-3.849c0.527-0.868,2.314-0.79,4.376,0.055
	c1.438-1.7,2.981-2.584,3.841-2.062c0.858,0.521,0.789,2.295-0.058,4.355C42.199,86.995,43.092,88.547,42.564,89.416z"/>
<path fill="#FFFFFF" d="M65.045,58.438l-1.712-1.045l1.047-1.699c0.579-0.939,0.287-2.172-0.653-2.752
	c-0.94-0.578-2.172-0.285-2.752,0.654l-1.057,1.715l-7.079-4.314l7.868-4.822l1.045,1.706c0.378,0.615,1.035,0.955,1.707,0.955
	c0.357,0,0.718-0.096,1.044-0.296c0.94-0.577,1.237-1.809,0.659-2.751l-1.045-1.705l0.854-0.521c0.941-0.578,1.236-1.809,0.659-2.75
	c-0.577-0.942-1.81-1.237-2.75-0.66l-0.853,0.521l-1.045-1.705c-0.578-0.94-1.81-1.236-2.752-0.659
	c-0.94,0.577-1.236,1.809-0.658,2.751l1.041,1.704L51,47.428V40h2.004c1.105,0,2-0.896,2-2s-0.895-2-2-2H51v-2.5
	c0-1.104-0.896-2-2-2c-1.104,0-2,0.896-2,2V36h-1.996c-1.104,0-2,0.896-2,2s0.896,2,2,2H47v7.438l-7.67-4.676l1.049-1.699
	c0.58-0.941,0.288-2.173-0.653-2.752c-0.941-0.58-2.172-0.287-2.751,0.652l-1.057,1.717l-0.872-0.532
	c-0.943-0.576-2.174-0.278-2.749,0.667c-0.575,0.942-0.277,2.174,0.667,2.748l0.855,0.521l-1.047,1.699
	c-0.58,0.941-0.287,2.173,0.653,2.752c0.327,0.202,0.689,0.299,1.047,0.299c0.671,0,1.327-0.338,1.705-0.951l1.058-1.717
	l7.936,4.838l-7.016,4.301L37.109,53.6c-0.577-0.941-1.809-1.238-2.75-0.66s-1.237,1.81-0.66,2.75l1.045,1.705l-1.705,1.045
	c-0.942,0.578-1.237,1.81-0.66,2.75c0.377,0.617,1.034,0.955,1.707,0.955c0.356,0,0.717-0.095,1.043-0.295l1.705-1.045l1.045,1.705
	c0.377,0.616,1.034,0.955,1.707,0.955c0.356,0,0.717-0.095,1.043-0.295c0.941-0.577,1.237-1.809,0.66-2.75l-1.047-1.705L47,54.57V64
	h-1.996c-1.104,0-2,0.896-2,2s0.896,2,2,2H47v0.5c0,1.104,0.896,2,2,2c1.104,0,2-0.896,2-2V68h2.004c1.105,0,2-0.896,2-2
	s-0.895-2-2-2H51v-9.438l6.816,4.154l-1.045,1.699c-0.58,0.939-0.287,2.172,0.652,2.752c0.327,0.201,0.689,0.297,1.049,0.297
	c0.67,0,1.325-0.338,1.704-0.951l1.058-1.715l1.729,1.055c0.326,0.197,0.686,0.291,1.039,0.291c0.675,0,1.333-0.34,1.71-0.959
	C66.287,60.242,65.988,59.012,65.045,58.438z"/>
<path fill="#FFFFFF" d="M69.7,20.563c-0.867,0-1.731,0.091-2.604,0.225c-2.496-9.201-10.9-15.765-20.66-15.765
	c-11.819,0-21.435,9.713-21.435,21.526c0,0.543,0.022,1.293,0.064,1.837c-7.444,0.935-13.222,7.789-13.222,15.566
	c0,7.897,6.006,15.146,13.657,15.966v-5.067c-4.588-0.877-8.119-5.791-8.119-10.627c0-5.365,4.287-10.834,9.558-10.834
	c0.317,0,0.623,0.041,1.053,0.09l3.931,0.441l-0.935-3.846c-0.306-1.258-0.461-2.479-0.461-3.731c0-8.76,7.121-15.886,15.887-15.886
	c8,0,14.749,5.999,15.73,13.957l0.358,3.293l3.073-0.989c1.382-0.434,2.48-0.642,3.748-0.642c7.271,0,12.808,5.94,12.808,13.245
	c0,7.298-7.131,13.236-14.131,13.236v5.537c11,0,19.668-8.41,19.668-18.761C87.669,28.975,80.023,20.563,69.7,20.563z"/>
</svg>
