<?xml version="1.0" encoding="utf-8"?>
<!DOCTYPE svg PUBLIC "-//W3C//DTD SVG 1.1//EN" "http://www.w3.org/Graphics/SVG/1.1/DTD/svg11.dtd">
<svg version="1.1" id="weather-drizzle-moon" xmlns="http://www.w3.org/2000/svg" xmlns:xlink="http://www.w3.org/1999/xlink"
	 x="0px" y="0px" width="25px" height="25px" viewBox="0 0 25 25" enable-background="new 0 0 25 25" xml:space="preserve">
<rect x="2.796" y="17.543" transform="matrix(0.8347 0.5506 -0.5506 0.8347 10.903 1.2939)" fill="#FFFFFF" width="1" height="2.538"/>
<rect x="5.143" y="18.764" transform="matrix(0.8359 0.5488 -0.5488 0.8359 12.054 0.2298)" fill="#FFFFFF" width="1" height="3.024"/>
<rect x="9.054" y="17.89" transform="matrix(0.8347 0.5506 -0.5506 0.8347 12.2265 -2.0651)" fill="#FFFFFF" width="1" height="2.893"/>
<rect x="11.982" y="17.565" transform="matrix(0.8347 0.5506 -0.5506 0.8347 13.025 -3.5832)" fill="#FFFFFF" width="1" height="4.685"/>
<rect x="14.665" y="20.307" transform="matrix(0.8344 0.5511 -0.5511 0.8344 13.9989 -4.906)" fill="#FFFFFF" width="0.999" height="1.079"/>
<path fill="#FFFFFF" d="M13.918,16.785H4.275C2.431,16.785,1,14.719,1,12.943c0-1.688,1.284-3.636,2.988-3.836
	C3.972,8.955,3.965,8.803,3.965,8.647c0-2.585,2.111-4.688,4.705-4.688c2.198,0,4.087,1.568,4.578,3.721
	c0.121-0.004,0.248,0.004,0.375,0.012c0.098,0.005,0.195,0.011,0.295,0.011c2.189,0,4.107,2.057,4.107,4.402
	C18.025,14.314,16.27,16.785,13.918,16.785z M4.275,10.089C3.05,10.089,2,11.658,2,12.943c0,1.28,1.05,2.842,2.275,2.842h9.643
	c1.75,0,3.107-1.979,3.107-3.68c0-1.812-1.451-3.402-3.107-3.402c-0.119,0-0.236-0.006-0.352-0.013
	c-0.225-0.012-0.441-0.016-0.578,0.025l-0.572,0.178l-0.073-0.594c-0.23-1.873-1.844-3.34-3.674-3.34
	c-2.043,0-3.705,1.655-3.705,3.688c0,0.289,0.033,0.561,0.105,0.855l0.166,0.683l-0.825-0.083
	C4.366,10.097,4.321,10.089,4.275,10.089z"/>
<path fill="#FFFFFF" d="M19.822,11.125l-0.238-0.971c0.463-0.114,0.898-0.297,1.297-0.544c0.764-0.471,1.375-1.164,1.754-1.968
	c-0.24,0.035-0.484,0.052-0.729,0.052c-2.828,0-5.131-2.313-5.131-5.156c0-0.402,0.045-0.797,0.135-1.182
	c-1.777,0.652-2.996,2.354-2.996,4.326h-1c0-2.764,1.968-5.091,4.679-5.535L18.504,0l-0.373,0.844
	c-0.234,0.536-0.355,1.106-0.355,1.695c0,2.292,1.854,4.156,4.131,4.156c0.457,0,0.91-0.076,1.346-0.227l0.873-0.302L23.9,7.063
	c-0.357,1.419-1.242,2.626-2.492,3.398C20.92,10.763,20.387,10.987,19.822,11.125z"/>
</svg>
