<?xml version="1.0" encoding="utf-8"?>
<!DOCTYPE svg PUBLIC "-//W3C//DTD SVG 1.1//EN" "http://www.w3.org/Graphics/SVG/1.1/DTD/svg11.dtd">
<svg version="1.1" id="weather-drizzle-sun" xmlns="http://www.w3.org/2000/svg" xmlns:xlink="http://www.w3.org/1999/xlink"
	 x="0px" y="0px" width="25px" height="25px" viewBox="0 0 25 25" enable-background="new 0 0 25 25" xml:space="preserve">
<path fill="#FFFFFF" d="M7.503,12.292c-1.254-0.767-2.002-2.101-2.002-3.568c0-2.306,1.875-4.181,4.181-4.181
	c1.117,0,2.167,0.435,2.957,1.225l-0.707,0.707c-0.601-0.601-1.4-0.932-2.25-0.932c-1.754,0-3.181,1.427-3.181,3.181
	c0,1.116,0.57,2.131,1.524,2.714L7.503,12.292z"/>
<path fill="#FFFFFF" d="M10,3.5C9.724,3.5,9.5,3.276,9.5,3V1c0-0.276,0.224-0.5,0.5-0.5s0.5,0.224,0.5,0.5v2
	C10.5,3.276,10.276,3.5,10,3.5z"/>
<path fill="#FFFFFF" d="M4.5,10h-3C1.224,10,1,9.776,1,9.5S1.224,9,1.5,9h3C4.776,9,5,9.224,5,9.5S4.776,10,4.5,10z"/>
<path fill="#FFFFFF" d="M5.433,4.958c-0.128,0-0.256-0.049-0.354-0.146L3.281,3.014c-0.195-0.195-0.195-0.512,0-0.707
	c0.195-0.195,0.512-0.195,0.707,0l1.798,1.798c0.195,0.195,0.195,0.512,0,0.707C5.689,4.909,5.561,4.958,5.433,4.958z"/>
<path fill="#FFFFFF" d="M13.934,4.958c-0.127,0-0.256-0.049-0.354-0.146c-0.195-0.195-0.195-0.512,0-0.707l1.797-1.798
	c0.195-0.195,0.512-0.195,0.707,0c0.195,0.195,0.195,0.512,0,0.707l-1.797,1.798C14.189,4.909,14.062,4.958,13.934,4.958z"/>
<path fill="#FFFFFF" d="M3.635,15.254c-0.128,0-0.256-0.049-0.354-0.146c-0.195-0.194-0.195-0.512,0-0.707l1.798-1.796
	c0.195-0.195,0.512-0.195,0.707,0c0.195,0.195,0.195,0.512,0,0.707l-1.798,1.797C3.891,15.205,3.763,15.254,3.635,15.254z"/>
<path fill="#FFFFFF" d="M19.507,19.001h-8.929c-1.807,0-3.208-2.049-3.208-3.812c0-1.672,1.251-3.599,2.914-3.806
	c-0.014-0.141-0.021-0.283-0.021-0.428c0-2.514,2.064-4.559,4.602-4.559c2.146,0,3.99,1.526,4.475,3.624
	c0.11,0.001,0.223,0.01,0.336,0.019c0.102,0.008,0.203,0.016,0.307,0.016c2.142,0,4.02,2.019,4.02,4.321
	c0,2.139-1.756,4.624-4.02,4.624H19.507z M10.578,12.366c-1.168,0-2.208,1.579-2.208,2.823c0,1.266,1.019,2.812,2.208,2.812
	L19.982,18c1.672,0,3.019-1.982,3.019-3.624c0-1.737-1.438-3.321-3.019-3.321c-0.131,0-0.258-0.009-0.385-0.019
	c-0.197-0.017-0.396-0.027-0.519,0.013l-0.573,0.18l-0.072-0.596c-0.225-1.814-1.791-3.236-3.568-3.236
	c-1.986,0-3.602,1.597-3.602,3.559c0,0.278,0.032,0.541,0.101,0.827l0.167,0.691l-0.828-0.094
	C10.662,12.375,10.62,12.366,10.578,12.366z"/>
<path fill="#FFFFFF" d="M6.335,22.596c-0.094,0-0.19-0.025-0.275-0.082c-0.23-0.152-0.294-0.463-0.142-0.693l1.496-2.27
	c0.152-0.229,0.462-0.296,0.693-0.142c0.23,0.151,0.294,0.462,0.142,0.692l-1.496,2.27C6.657,22.518,6.498,22.596,6.335,22.596z"/>
<path fill="#FFFFFF" d="M8.707,24.385c-0.094,0-0.189-0.025-0.274-0.082c-0.23-0.152-0.294-0.462-0.143-0.691l1.78-2.707
	c0.152-0.231,0.461-0.295,0.693-0.145c0.23,0.152,0.294,0.463,0.143,0.692l-1.78,2.707C9.029,24.307,8.869,24.385,8.707,24.385z"/>
<path fill="#FFFFFF" d="M12.937,23.318c-0.094,0-0.19-0.026-0.275-0.084c-0.23-0.15-0.294-0.461-0.142-0.691l1.707-2.586
	c0.15-0.23,0.461-0.296,0.691-0.143c0.23,0.151,0.294,0.463,0.143,0.692l-1.705,2.586C13.258,23.239,13.1,23.318,12.937,23.318z"/>
<path fill="#FFFFFF" d="M15.542,24.732c-0.095,0-0.19-0.026-0.274-0.084c-0.23-0.15-0.295-0.461-0.143-0.691l2.766-4.191
	c0.15-0.23,0.461-0.297,0.691-0.142c0.23,0.151,0.294,0.462,0.143,0.692l-2.766,4.19C15.863,24.652,15.704,24.732,15.542,24.732z"/>
<path fill="#FFFFFF" d="M19.48,24.127c-0.096,0-0.19-0.025-0.274-0.082c-0.231-0.152-0.295-0.462-0.144-0.691l0.636-0.968
	c0.153-0.231,0.464-0.295,0.692-0.144c0.23,0.152,0.295,0.462,0.144,0.691L19.898,23.9C19.802,24.048,19.643,24.127,19.48,24.127z"
	/>
</svg>
