<?xml version="1.0" encoding="utf-8"?>
<!DOCTYPE svg PUBLIC "-//W3C//DTD SVG 1.1//EN" "http://www.w3.org/Graphics/SVG/1.1/DTD/svg11.dtd">
<svg version="1.1" id="weather-rain-sun" xmlns="http://www.w3.org/2000/svg" xmlns:xlink="http://www.w3.org/1999/xlink" x="0px"
	 y="0px" width="100px" height="100px" viewBox="-0.5 -0.5 100 100" enable-background="new -0.5 -0.5 100 100"
	 xml:space="preserve">
<path fill="#FFFFFF" d="M75.121,97.5c-0.49,0-0.984-0.139-1.426-0.43c-1.195-0.789-1.525-2.396-0.737-3.594l7.022-11.252
	c0.789-1.195,2.396-1.525,3.594-0.738c1.195,0.789,1.525,2.398,0.738,3.593l-7.023,11.254C76.791,97.089,75.964,97.5,75.121,97.5z"
	/>
<path fill="#FFFFFF" d="M61.165,97.5c-0.49,0-0.985-0.139-1.427-0.43c-1.195-0.789-1.526-2.396-0.737-3.594l7.022-11.252
	c0.789-1.195,2.395-1.525,3.594-0.738c1.195,0.789,1.525,2.398,0.738,3.593l-7.022,11.254C62.834,97.089,62.006,97.5,61.165,97.5z"
	/>
<path fill="#FFFFFF" d="M48.137,97.5c-0.488,0-0.984-0.139-1.424-0.43c-1.195-0.789-1.527-2.396-0.738-3.594l7.022-11.252
	c0.79-1.195,2.396-1.525,3.595-0.738c1.195,0.789,1.525,2.398,0.736,3.593l-7.021,11.254C49.809,97.089,48.98,97.5,48.137,97.5z"/>
<path fill="#FFFFFF" d="M34.182,97.5c-0.49,0-0.984-0.139-1.426-0.43c-1.195-0.789-1.527-2.396-0.736-3.594l7.021-11.252
	c0.789-1.195,2.395-1.525,3.594-0.738c1.194,0.789,1.525,2.398,0.738,3.593L36.35,96.333C35.85,97.089,35.023,97.5,34.182,97.5z"/>
<path fill="#FFFFFF" d="M37.5,15.464c-1.52,0-2.5-1.232-2.5-2.752V4.457c0-1.521,0.98-2.751,2.5-2.751S40,2.936,40,4.457v8.255
	C40,14.231,39.02,15.464,37.5,15.464z"/>
<path fill="#FFFFFF" d="M16.049,43.206H6.418c-1.52,0-2.751-0.98-2.751-2.5s1.232-2.5,2.751-2.5h9.631c1.52,0,2.752,0.98,2.752,2.5
	S17.568,43.206,16.049,43.206z"/>
<path fill="#FFFFFF" d="M22.16,24.506c-0.704,0-1.408-0.269-1.946-0.806l-7.064-7.063c-1.075-1.074-1.075-2.815,0-3.893
	c1.075-1.075,2.817-1.075,3.892,0l7.064,7.063c1.076,1.073,1.076,2.815,0,3.893C23.568,24.237,22.863,24.506,22.16,24.506z"/>
<path fill="#FFFFFF" d="M55.547,24.506c-0.703,0-1.408-0.269-1.945-0.806c-1.074-1.075-1.074-2.817,0-3.893l7.064-7.063
	c1.075-1.075,2.816-1.075,3.893,0c1.073,1.075,1.073,2.816,0,3.893L57.495,23.7C56.955,24.237,56.251,24.506,55.547,24.506z"/>
<path fill="#FFFFFF" d="M15.096,64.959c-0.704,0-1.409-0.271-1.946-0.809c-1.075-1.073-1.075-2.814,0-3.891l7.064-7.062
	c1.075-1.075,2.817-1.075,3.891,0c1.075,1.072,1.075,2.814,0,3.891l-7.064,7.062C16.504,64.688,15.8,64.959,15.096,64.959z"/>
<path fill="#FFFFFF" d="M79.755,78.206H42.588c-7.544,0-13.453-5.688-13.453-13.142c0-6.686,4.984-13.41,11.461-14.367
	c-0.021-0.37-0.033-1.329-0.033-1.7c0-10.451,8.506-19.25,18.958-19.25c8.523,0,15.879,5.541,18.192,13.498
	c0.697-0.1,1.376-0.223,2.041-0.223c9.183,0,16.653,9.748,16.653,18.884C96.408,70.996,88.938,78.206,79.755,78.206z M42.588,54.879
	c-4.459,0-7.949,4.796-7.949,9.188c0,4.365,3.49,9.143,7.949,9.143h37.167c6.253,0,11.149-6.182,11.149-12.336
	c0-6.102-5-11.739-11.149-11.739c-0.999,0-2.09-0.147-3.338,0.241l-3.149,0.818l-0.403-3.361c-0.825-6.723-6.563-11.83-13.343-11.83
	c-7.418,0-13.455,6.014-13.455,13.432c0,1.061,0.127,2.112,0.379,3.149l0.936,3.841l-3.934-0.469
	C43.168,54.919,42.88,54.879,42.588,54.879z"/>
<path fill="#FFFFFF" d="M39.039,21.174c-9.508,0-17.253,7.746-17.253,17.253c0,6.096,3.192,11.976,7.979,15.028
	c1.061-1.706,3.326-2.438,3.326-2.438c-3.469-0.938-6.177-6.887-6.177-11.438c0-6.479,4.583-13.224,12.122-13.224
	c3.232,0,6.324,1.578,8.461,3.683c0.453-0.315,1.859-1.138,2.219-1.304c0.33-0.165,1.125-0.475,1.152-0.487
	c0.164-0.069,1.21-0.513,1.582-0.623C49.289,23.72,44.447,21.174,39.039,21.174z"/>
</svg>
