<?xml version="1.0" encoding="utf-8"?>
<!DOCTYPE svg PUBLIC "-//W3C//DTD SVG 1.1//EN" "http://www.w3.org/Graphics/SVG/1.1/DTD/svg11.dtd">
<svg version="1.1" id="weather-cloud-sun" xmlns="http://www.w3.org/2000/svg" xmlns:xlink="http://www.w3.org/1999/xlink" x="0px"
	 y="0px" width="100px" height="100px" viewBox="-0.5 -0.5 100 100" enable-background="new -0.5 -0.5 100 100"
	 xml:space="preserve">
<path fill="#FFFFFF" d="M38.5,22.464c-1.52,0-2.5-1.232-2.5-2.752v-8.255c0-1.52,0.98-2.751,2.5-2.751S41,9.937,41,11.457v8.255
	C41,21.231,40.02,22.464,38.5,22.464z"/>
<path fill="#FFFFFF" d="M16.049,47H6.418c-1.52,0-2.751-0.98-2.751-2.5S4.899,42,6.418,42h9.631c1.52,0,2.752,0.98,2.752,2.5
	S17.568,47,16.049,47z"/>
<path fill="#FFFFFF" d="M22.16,30.506c-0.704,0-1.408-0.269-1.946-0.806l-7.064-7.063c-1.075-1.073-1.075-2.815,0-3.891
	c1.075-1.075,2.817-1.075,3.892,0l7.064,7.062c1.075,1.074,1.075,2.816,0,3.892C23.568,30.237,22.863,30.506,22.16,30.506z"/>
<path fill="#FFFFFF" d="M55.547,30.506c-0.703,0-1.408-0.269-1.945-0.806c-1.074-1.075-1.074-2.817,0-3.892l7.064-7.062
	c1.075-1.075,2.816-1.075,3.893,0c1.073,1.075,1.073,2.817,0,3.891L57.493,29.7C56.955,30.237,56.251,30.506,55.547,30.506z"/>
<path fill="#FFFFFF" d="M15.096,70.959c-0.704,0-1.409-0.27-1.946-0.807c-1.075-1.075-1.075-2.816,0-3.893l7.064-7.062
	c1.075-1.075,2.817-1.075,3.891,0c1.075,1.074,1.075,2.814,0,3.891l-7.064,7.062C16.504,70.689,15.8,70.959,15.096,70.959z"/>
<path fill="#FFFFFF" d="M79.755,83H42.587c-7.543,0-13.453-6.337-13.453-13.788c0-6.683,4.984-12.483,11.461-13.44
	c-0.023-0.371-0.034-0.867-0.034-1.236c0-10.451,8.505-19.018,18.958-19.018c8.522,0,15.879,5.657,18.191,13.614
	c0.697-0.1,1.376-0.165,2.041-0.165c9.184,0,16.652,7.927,16.652,17.062C96.408,75.114,88.938,83,79.755,83z M42.587,60.879
	c-4.458,0-7.949,3.693-7.949,8.084c0,4.365,3.491,8.037,7.949,8.037h37.167c6.253,0,11.15-5.076,11.15-11.232
	c0-6.1-5.002-11.188-11.15-11.188c-0.999,0-2.09,0.127-3.338,0.518l-3.15,0.959l-0.402-3.295
	C72.036,46.04,66.3,40.964,59.521,40.964c-7.42,0-13.458,6.03-13.458,13.448c0,1.061,0.127,2.122,0.38,3.158l0.933,3.847
	l-3.931-0.466C43.167,60.918,42.88,60.879,42.587,60.879z"/>
<path fill="#FFFFFF" d="M39.039,27.174c-9.507,0-17.253,7.746-17.253,17.253c0,6.095,3.192,11.476,7.98,14.528
	c1.06-1.706,2.63-3.205,3.935-3.955h-0.014c-3.797-1-6.397-5.969-6.397-10.521c0-6.48,5.27-11.672,11.75-11.672
	c3.234,0,6.163,1.256,8.296,3.36c0.454-0.316,2.091-1.312,2.448-1.477c0.329-0.166,1.062-0.497,1.088-0.511
	c0.164-0.069,1.21-0.478,1.582-0.588C49.289,29.685,44.447,27.174,39.039,27.174z"/>
</svg>
