<?xml version="1.0" encoding="utf-8"?>
<!DOCTYPE svg PUBLIC "-//W3C//DTD SVG 1.1//EN" "http://www.w3.org/Graphics/SVG/1.1/DTD/svg11.dtd">
<svg version="1.1" id="weather-cloud-moon" xmlns="http://www.w3.org/2000/svg" xmlns:xlink="http://www.w3.org/1999/xlink" x="0px"
	 y="0px" width="25px" height="25px" viewBox="0 0 25 25" enable-background="new 0 0 25 25" xml:space="preserve">
<path fill="#FFFFFF" d="M17.443,23L5.682,22.999c-2.224,0-3.886-2.327-3.886-4.408c0-2.016,1.548-4.263,3.656-4.416
	c-0.027-0.222-0.041-0.44-0.041-0.665c0-3.098,2.525-5.618,5.629-5.618c2.657,0,4.937,1.903,5.496,4.506
	c0.12-0.009,0.235-0.012,0.342-0.012l0.565,0.008c2.654,0,4.897,2.372,4.897,5.176C22.342,20.135,20.247,23,17.443,23z
	 M5.682,15.166c-1.625,0-2.886,1.841-2.886,3.425c0,1.576,1.261,3.408,2.886,3.408L17.443,22c2.23,0,3.897-2.338,3.897-4.428
	c0-2.227-1.821-4.178-3.897-4.178l-0.565-0.009c-0.188,0-0.407,0.009-0.603,0.069l-0.571,0.18l-0.073-0.596
	c-0.29-2.365-2.264-4.148-4.591-4.148c-2.552,0-4.629,2.071-4.629,4.618c0,0.364,0.042,0.706,0.132,1.076l0.17,0.7l-0.822-0.1
	C5.822,15.177,5.752,15.166,5.682,15.166z"/>
<path fill="#FFFFFF" d="M20.26,12.883l-0.238-0.972c0.514-0.125,1.002-0.331,1.453-0.608c0.896-0.554,1.588-1.352,2.006-2.296
	c-0.297,0.048-0.597,0.073-0.899,0.073c-3.104,0-5.633-2.539-5.633-5.66c0-0.476,0.058-0.942,0.172-1.394
	c-2.043,0.704-3.45,2.634-3.45,4.878h-1c0-3.037,2.162-5.593,5.143-6.08l0.912-0.149L18.348,1.52
	c-0.266,0.599-0.399,1.238-0.399,1.899c0,2.57,2.077,4.66,4.633,4.66c0.517,0,1.022-0.085,1.506-0.254l0.877-0.306l-0.228,0.9
	C24.343,9.98,23.372,11.306,22,12.153C21.459,12.486,20.874,12.732,20.26,12.883z"/>
<path fill="#FFFFFF" d="M5.726,4.983c0,0.289-0.449,0.537-1.078,0.637c-0.1,0.633-0.346,1.083-0.633,1.083
	c-0.288,0-0.534-0.451-0.633-1.083c-0.629-0.1-1.078-0.348-1.078-0.637c0-0.292,0.449-0.54,1.078-0.64
	c0.099-0.633,0.345-1.08,0.633-1.08c0.287,0,0.533,0.447,0.633,1.08C5.277,4.443,5.726,4.691,5.726,4.983z"/>
<path fill="#FFFFFF" d="M2.646,10.66c0,0.202-0.314,0.375-0.754,0.445c-0.069,0.443-0.242,0.758-0.443,0.758
	c-0.202,0-0.374-0.315-0.443-0.758c-0.441-0.07-0.755-0.243-0.755-0.445c0-0.205,0.314-0.378,0.755-0.448
	c0.069-0.443,0.242-0.756,0.443-0.756c0.201,0,0.374,0.313,0.443,0.756C2.332,10.281,2.646,10.455,2.646,10.66z"/>
</svg>
