<?xml version="1.0" encoding="utf-8"?>
<!DOCTYPE svg PUBLIC "-//W3C//DTD SVG 1.1//EN" "http://www.w3.org/Graphics/SVG/1.1/DTD/svg11.dtd">
<svg version="1.1" id="weather-cloud-moon" xmlns="http://www.w3.org/2000/svg" xmlns:xlink="http://www.w3.org/1999/xlink"
	 x="0px" y="0px" width="100px" height="100px" viewBox="0 0 100 100" enable-background="new 0 0 100 100" xml:space="preserve">
<path fill="#66B1E3" d="M67.178,88.5H25.131c-8.352,0-14.892-7.281-14.892-15.46c0-7.57,5.566-14.065,12.984-14.959
	c-0.039-0.515-0.059-1.248-0.059-1.763c0-11.646,9.477-21.231,21.123-21.231c9.588,0,17.848,6.397,20.342,15.388
	c0.795-0.133,1.654-0.248,2.549-0.248c10.209,0,18.516,9.097,18.516,19.219C85.693,79.646,77.561,88.5,67.178,88.5z M25.131,63.104
	c-5.226,0-9.318,4.643-9.318,9.725c0,5.053,4.093,9.673,9.318,9.673h42.047c7.257,0,12.941-6.206,12.941-13.282
	c0-7.049-5.807-13.113-12.941-13.113c-1.123,0-2.318,0.051-3.876,0.537l-3.188,0.914L59.705,54.2
	c-0.957-7.757-7.586-13.626-15.418-13.626c-8.574,0-15.549,6.966-15.549,15.539c0,1.225,0.147,2.447,0.438,3.654l0.937,3.866
	l-3.955-0.446C25.82,63.146,25.479,63.104,25.131,63.104z"/>
<path fill="#66B1E3" d="M90.707,35.376c-1.652,0.577-3.391,0.87-5.164,0.87c-8.771,0-15.903-7.135-15.903-15.904
	c0-2.263,0.465-4.441,1.37-6.472l1.871-4.146l-5.141,0.732c-10.35,1.675-19.516,10.105-19.516,20.407v0.071
	c2,0.416,3.71,0.967,4.848,1.664c1.225-7.207,5.023-13.457,11.41-16.148c-0.246,1.271-0.053,2.568-0.053,3.891
	c0,11.463,9.5,20.799,20.963,20.799c0.697,0,1.464-0.037,2.148-0.111c-2.129,4.025-5.696,7.675-9.99,9.093
	c2.066,0.647,4.029,3.379,5.777,3.379h0.014c5.125-3,9.016-8.543,10.545-14.584L95,34.198L90.707,35.376z"/>
<path fill="#66B1E3" d="M25.293,25.909c0,1.026-1.604,1.907-3.854,2.263c-0.354,2.251-1.236,3.854-2.263,3.854
	c-1.027,0-1.908-1.604-2.264-3.854c-2.25-0.354-3.853-1.234-3.853-2.263c0-1.041,1.603-1.923,3.853-2.276
	c0.355-2.252,1.236-3.841,2.264-3.841c1.028,0,1.909,1.589,2.263,3.841C23.689,23.986,25.293,24.868,25.293,25.909z"/>
<path fill="#66B1E3" d="M11.209,46.094c0,0.539-0.841,1.002-2.022,1.188C9,48.462,8.54,49.305,8,49.305s-1.001-0.844-1.188-2.022
	C5.63,47.096,4.79,46.633,4.79,46.094c0-0.545,0.841-1.008,2.022-1.193C6.999,43.718,7.459,42.886,8,42.886
	c0.539,0,1.001,0.832,1.188,2.015C10.37,45.086,11.209,45.549,11.209,46.094z"/>
</svg>
