<?xml version="1.0" encoding="utf-8"?>
<!DOCTYPE svg PUBLIC "-//W3C//DTD SVG 1.1//EN" "http://www.w3.org/Graphics/SVG/1.1/DTD/svg11.dtd">
<svg version="1.1" id="weather-rain-moon" xmlns="http://www.w3.org/2000/svg" xmlns:xlink="http://www.w3.org/1999/xlink" x="0px"
	 y="0px" width="25px" height="25px" viewBox="0 0 25 25" enable-background="new 0 0 25 25" xml:space="preserve">
<path fill="#FFFFFF" d="M13.919,7.703c-0.101,0-0.199-0.006-0.297-0.011c-0.126-0.007-0.249-0.013-0.373-0.012
	c-0.492-2.153-2.381-3.721-4.579-3.721c-2.594,0-4.705,2.103-4.705,4.688c0,0.156,0.007,0.308,0.023,0.459
	C2.284,9.307,1,11.255,1,12.943c0,1.775,1.431,3.842,3.276,3.842h9.643c2.351,0,4.106-2.471,4.106-4.68
	C18.025,9.76,16.106,7.703,13.919,7.703z M13.919,15.785H4.276C3.05,15.785,2,14.223,2,12.943c0-1.285,1.05-2.854,2.276-2.854
	c0.045,0,0.089,0.008,0.133,0.014l0.827,0.083L5.07,9.503C4.998,9.208,4.965,8.936,4.965,8.647c0-2.034,1.662-3.688,3.705-3.688
	c1.83,0,3.443,1.467,3.674,3.34l0.073,0.595l0.572-0.179c0.137-0.042,0.352-0.038,0.577-0.025c0.115,0.006,0.233,0.013,0.353,0.013
	c1.655,0,3.106,1.59,3.106,3.402C17.025,13.807,15.668,15.785,13.919,15.785z"/>
<path fill="#FFFFFF" d="M23.252,6.468c-0.437,0.151-0.89,0.227-1.346,0.227c-2.277,0-4.131-1.864-4.131-4.156
	c0-0.59,0.12-1.16,0.356-1.694L18.506,0l-0.911,0.148c-2.712,0.442-4.68,2.771-4.68,5.535h1c0-1.973,1.218-3.675,2.995-4.327
	c-0.09,0.384-0.135,0.779-0.135,1.182c0,2.843,2.302,5.156,5.131,5.156c0.245,0,0.489-0.018,0.731-0.053
	c-0.376,0.807-0.98,1.489-1.756,1.968c-0.402,0.249-0.838,0.432-1.297,0.544l0.238,0.972c0.561-0.138,1.094-0.361,1.584-0.665
	c1.25-0.772,2.135-1.979,2.492-3.398l0.227-0.896L23.252,6.468z"/>
<path fill="#FFFFFF" d="M14.947,18.225c-0.23-0.154-0.541-0.088-0.692,0.143l-2.183,3.309c-0.151,0.23-0.088,0.541,0.143,0.691
	c0.085,0.057,0.181,0.084,0.275,0.084c0.162,0,0.321-0.08,0.417-0.225l2.182-3.309C15.241,18.688,15.178,18.377,14.947,18.225z"/>
<path fill="#FFFFFF" d="M11.829,18.225c-0.231-0.154-0.541-0.088-0.693,0.143l-2.182,3.309c-0.152,0.23-0.088,0.541,0.142,0.691
	c0.085,0.057,0.181,0.084,0.275,0.084c0.163,0,0.322-0.08,0.418-0.225l2.182-3.309C12.123,18.688,12.06,18.377,11.829,18.225z"/>
<path fill="#FFFFFF" d="M8.71,18.225c-0.23-0.154-0.541-0.088-0.693,0.143l-2.182,3.309c-0.152,0.23-0.088,0.541,0.142,0.691
	c0.085,0.057,0.181,0.084,0.275,0.084c0.163,0,0.322-0.08,0.418-0.225l2.182-3.309C9.004,18.688,8.941,18.377,8.71,18.225z"/>
<path fill="#FFFFFF" d="M5.591,18.225c-0.23-0.154-0.541-0.088-0.693,0.143l-2.182,3.309c-0.152,0.23-0.088,0.541,0.142,0.691
	c0.085,0.057,0.181,0.084,0.275,0.084c0.163,0,0.322-0.08,0.418-0.225l2.182-3.309C5.885,18.688,5.822,18.377,5.591,18.225z"/>
</svg>
