<?xml version="1.0" encoding="utf-8"?>
<!DOCTYPE svg PUBLIC "-//W3C//DTD SVG 1.1//EN" "http://www.w3.org/Graphics/SVG/1.1/DTD/svg11.dtd">
<svg version="1.1" id="weather-snow" xmlns="http://www.w3.org/2000/svg" xmlns:xlink="http://www.w3.org/1999/xlink" x="0px"
	 y="0px" width="25px" height="25px" viewBox="0 0 25 25" enable-background="new 0 0 25 25" xml:space="preserve">
<path fill="#FFFFFF" d="M20.917,13.219l-3.029,0.928l-1.89-1.004c-0.001,0-0.001-0.002-0.002-0.002L13.849,12l2.146-1.14
	c0.001,0,0.001-0.001,0.002-0.002l1.891-1.004l3.028,0.927c0.05,0.015,0.099,0.022,0.146,0.022c0.215,0,0.412-0.138,0.479-0.354
	c0.08-0.264-0.067-0.544-0.332-0.625L19.138,9.19l1.623-0.862c0.244-0.129,0.338-0.432,0.207-0.676
	c-0.129-0.244-0.435-0.338-0.676-0.207l-1.623,0.862l0.635-2.07c0.08-0.264-0.067-0.543-0.332-0.625
	c-0.265-0.083-0.543,0.067-0.625,0.332l-0.928,3.027l-4.137,2.197V8.5V6.579l2.32-2.321c0.195-0.195,0.195-0.512,0-0.707
	c-0.195-0.195-0.512-0.195-0.707,0l-1.613,1.614V3.5c0-0.276-0.225-0.5-0.5-0.5s-0.5,0.224-0.5,0.5v1.665l-1.613-1.614
	c-0.195-0.195-0.512-0.195-0.707,0c-0.195,0.195-0.195,0.512,0,0.707l2.32,2.321V8.5v2.668L8.144,8.971L7.216,5.944
	C7.136,5.68,6.857,5.529,6.592,5.613C6.328,5.694,6.179,5.973,6.26,6.238l0.635,2.07L5.271,7.446
	C5.028,7.315,4.725,7.409,4.595,7.653c-0.13,0.244-0.037,0.546,0.207,0.676l1.624,0.862L4.354,9.825
	c-0.264,0.081-0.413,0.36-0.332,0.625c0.066,0.215,0.264,0.354,0.478,0.354c0.048,0,0.098-0.007,0.146-0.022l3.028-0.927
	l1.891,1.004c0.001,0,0.001,0.001,0.002,0.002l2.147,1.14l-2.147,1.142c-0.001,0-0.001,0.002-0.002,0.002l-1.89,1.004l-3.029-0.928
	c-0.264-0.08-0.543,0.066-0.623,0.33c-0.081,0.266,0.068,0.545,0.332,0.625l2.072,0.635l-1.624,0.861
	c-0.244,0.129-0.337,0.432-0.207,0.676c0.09,0.17,0.263,0.267,0.442,0.267c0.079,0,0.159-0.019,0.234-0.06l1.623-0.861l-0.634,2.07
	c-0.081,0.264,0.067,0.543,0.332,0.625c0.049,0.014,0.098,0.021,0.146,0.021c0.214,0,0.412-0.14,0.478-0.354l0.927-3.025
	l4.138-2.197V15.5v1.922l-2.32,2.32c-0.195,0.195-0.195,0.512,0,0.707c0.195,0.195,0.512,0.195,0.707,0l1.613-1.613V20.5
	c0,0.275,0.224,0.5,0.5,0.5s0.5-0.225,0.5-0.5v-1.664l1.613,1.613c0.098,0.098,0.226,0.146,0.354,0.146
	c0.129,0,0.256-0.05,0.354-0.146c0.195-0.195,0.195-0.512,0-0.707l-2.32-2.32V15.5v-2.668l4.139,2.197l0.928,3.025
	c0.065,0.215,0.265,0.354,0.479,0.354c0.049,0,0.098-0.007,0.146-0.021c0.264-0.082,0.412-0.361,0.332-0.625l-0.635-2.07
	l1.622,0.861c0.074,0.041,0.155,0.06,0.234,0.06c0.179,0,0.353-0.097,0.44-0.267c0.131-0.244,0.037-0.547-0.207-0.676l-1.623-0.861
	l2.071-0.635c0.265-0.08,0.412-0.359,0.332-0.625C21.462,13.287,21.185,13.139,20.917,13.219z"/>
</svg>
