<?xml version="1.0" encoding="utf-8"?>
<!DOCTYPE svg PUBLIC "-//W3C//DTD SVG 1.1//EN" "http://www.w3.org/Graphics/SVG/1.1/DTD/svg11.dtd">
<svg version="1.1" id="weather-fog" xmlns="http://www.w3.org/2000/svg" xmlns:xlink="http://www.w3.org/1999/xlink" x="0px"
	 y="0px" width="25px" height="25px" viewBox="0 0 25 25" enable-background="new 0 0 25 25" xml:space="preserve">
<path fill="#FFFFFF" d="M5.033,14c-0.11-0.283-0.175-0.588-0.175-0.909c0-1.391,1.119-2.522,2.494-2.522
	c0.089,0,0.177,0.012,0.271,0.023l0.713,0.085L8.168,9.978c-0.075-0.312-0.113-0.63-0.113-0.946C8.055,6.809,9.865,5,12.09,5
	c2.033,0,3.754,1.523,4.002,3.543l0.073,0.595l0.572-0.179c2.219-0.689,4.405,1.029,4.405,3.24c0,0.663-0.197,1.277-0.525,1.801
	h1.132c0.248-0.551,0.394-1.158,0.394-1.801c0-2.425-1.97-4.398-4.391-4.398c-0.255,0-0.511,0.023-0.767,0.07
	C16.453,5.629,14.438,4,12.09,4C9.313,4,7.055,6.257,7.055,9.031c0,0.182,0.01,0.365,0.03,0.547
	c-1.803,0.138-3.228,1.66-3.228,3.512c0,0.316,0.055,0.617,0.134,0.909H5.033z"/>
<path fill="#FFFFFF" d="M21,17H4c-0.276,0-0.5-0.224-0.5-0.5S3.724,16,4,16h17c0.276,0,0.5,0.224,0.5,0.5S21.276,17,21,17z"/>
<path fill="#FFFFFF" d="M21,20H4c-0.276,0-0.5-0.224-0.5-0.5S3.724,19,4,19h17c0.276,0,0.5,0.224,0.5,0.5S21.276,20,21,20z"/>
</svg>
