<?xml version="1.0" encoding="utf-8"?>
<!-- Generator: Adobe Illustrator 16.0.4, SVG Export Plug-In . SVG Version: 6.00 Build 0)  -->
<!DOCTYPE svg PUBLIC "-//W3C//DTD SVG 1.1//EN" "http://www.w3.org/Graphics/SVG/1.1/DTD/svg11.dtd">
<svg version="1.1" id="weather-sun" xmlns="http://www.w3.org/2000/svg" xmlns:xlink="http://www.w3.org/1999/xlink" x="0px"
	 y="0px" width="100px" height="100px" viewBox="-0.5 -0.5 100 100" enable-background="new -0.5 -0.5 100 100"
	 xml:space="preserve">
<g>
	<path fill="#FFFFFF" d="M49.838,66.443c-9.663,0-17.523-7.862-17.523-17.525s7.86-17.525,17.523-17.525s17.525,7.862,17.525,17.525
		S59.501,66.443,49.838,66.443z M49.838,36.978c-6.583,0-11.938,5.355-11.938,11.94c0,6.584,5.355,11.939,11.938,11.939
		c6.585,0,11.939-5.355,11.939-11.939C61.777,42.333,56.423,36.978,49.838,36.978z"/>
	<path fill="#FFFFFF" d="M48.5,27.858c-1.541,0-2.5-1.25-2.5-2.792v-9.773c0-1.543,0.959-2.793,2.5-2.793
		c1.543,0,2.5,1.25,2.5,2.793v9.773C51,26.608,50.043,27.858,48.5,27.858z"/>
	<path fill="#FFFFFF" d="M48.5,86.5c-1.541,0-2.5-1.25-2.5-2.792v-11.17c0-1.542,0.959-2.793,2.5-2.793c1.543,0,2.5,1.251,2.5,2.793
		v11.17C51,85.25,50.043,86.5,48.5,86.5z"/>
	<path fill="#FFFFFF" d="M26.462,53h-11.17c-1.542,0-2.792-0.959-2.792-2.5c0-1.543,1.25-2.5,2.792-2.5h11.17
		c1.542,0,2.793,0.957,2.793,2.5C29.255,52.041,28.004,53,26.462,53z"/>
	<path fill="#FFFFFF" d="M83.708,53h-9.774c-1.541,0-2.791-0.959-2.791-2.5c0-1.543,1.25-2.5,2.791-2.5h9.774
		c1.542,0,2.792,0.957,2.792,2.5C86.5,52.041,85.25,53,83.708,53z"/>
	<path fill="#FFFFFF" d="M32.833,34.635c-0.715,0-1.43-0.272-1.975-0.817l-7.196-7.195c-1.091-1.09-1.091-2.858,0-3.949
		c1.09-1.091,2.857-1.091,3.948,0l7.196,7.195c1.091,1.09,1.091,2.858,0,3.949C34.262,34.362,33.547,34.635,32.833,34.635z"/>
	<path fill="#FFFFFF" d="M74.04,75.848c-0.714,0-1.429-0.271-1.974-0.818l-7.194-7.195c-1.091-1.091-1.091-2.857,0-3.948
		s2.858-1.091,3.948,0l7.193,7.196c1.092,1.091,1.092,2.857,0,3.947C75.471,75.574,74.755,75.848,74.04,75.848z"/>
	<path fill="#FFFFFF" d="M66.848,34.635c-0.716,0-1.43-0.272-1.976-0.817c-1.091-1.09-1.091-2.858,0-3.949l7.194-7.195
		c1.091-1.091,2.855-1.091,3.947,0c1.092,1.09,1.092,2.858,0,3.949l-7.193,7.195C68.275,34.362,67.561,34.635,66.848,34.635z"/>
	<path fill="#FFFFFF" d="M25.636,75.848c-0.714,0-1.429-0.271-1.974-0.818c-1.091-1.09-1.091-2.856,0-3.947l7.196-7.196
		c1.091-1.091,2.857-1.091,3.948,0c1.091,1.093,1.091,2.857,0,3.948l-7.196,7.195C27.064,75.574,26.351,75.848,25.636,75.848z"/>
</g>
</svg>
