<?xml version="1.0" encoding="utf-8"?>
<!DOCTYPE svg PUBLIC "-//W3C//DTD SVG 1.1//EN" "http://www.w3.org/Graphics/SVG/1.1/DTD/svg11.dtd">
<svg version="1.1" id="weather-lightning" xmlns="http://www.w3.org/2000/svg" xmlns:xlink="http://www.w3.org/1999/xlink" x="0px"
	 y="0px" width="100px" height="100px" viewBox="-0.5 -0.5 100 100" enable-background="new -0.5 -0.5 100 100"
	 xml:space="preserve">
<polygon fill="#FFFFFF" points="43.499,42.686 40.441,66.686 48.968,66.686 45.207,89.164 60.787,56.686 50.98,56.686
	56.016,42.686 "/>
<path fill="#FFFFFF" d="M69.621,68H66.5v-5h3.121c7.084,0,12.848-6.732,12.848-13.814c0-7.119-5.764-13.24-12.848-13.24
	c-1.186,0-2.443,0.053-3.848,0.49l-3.148,0.898l-0.404-3.313c-0.951-7.711-7.529-13.547-15.303-13.547
	c-8.511,0-15.436,6.914-15.436,15.424c0,1.223,0.146,2.438,0.436,3.631l0.932,3.832l-3.92-0.453
	c-0.33-0.039-0.668-0.053-1.013-0.053c-5.104,0-9.255,4.809-9.255,9.911c0,5.104,4.151,10.231,9.255,10.231H33.5v5h-5.583
	c-8.139,0-14.759-7.347-14.759-15.483c0-7.5,5.626-13.917,12.882-14.845c-0.04-0.523-0.062-1.152-0.062-1.686
	c0-11.545,9.395-20.986,20.938-20.986c9.518,0,17.712,6.396,20.174,15.34c0.861-0.137,1.699-0.215,2.529-0.215
	c10.117,0,18.352,8.662,18.352,18.813C87.973,59.055,79.738,68,69.621,68z"/>
</svg>
