<?xml version="1.0" encoding="utf-8"?>
<!DOCTYPE svg PUBLIC "-//W3C//DTD SVG 1.1//EN" "http://www.w3.org/Graphics/SVG/1.1/DTD/svg11.dtd">
<svg version="1.1" id="weather-drizzle-sun" xmlns="http://www.w3.org/2000/svg" xmlns:xlink="http://www.w3.org/1999/xlink"
	 x="0px" y="0px" width="100px" height="100px" viewBox="-0.5 -0.5 100 100" enable-background="new -0.5 -0.5 100 100"
	 xml:space="preserve">
<path fill="#FFFFFF" d="M32.254,89.844c-0.532,0-1.072-0.146-1.551-0.466c-1.301-0.858-1.661-2.606-0.803-3.911l2.795-4.84
	c0.854-1.301,2.605-1.661,3.908-0.801c1.303,0.855,1.66,2.605,0.803,3.908l-2.793,4.839C34.07,89.396,33.172,89.844,32.254,89.844z"
	/>
<path fill="#FFFFFF" d="M42.959,97.096c-0.532,0-1.07-0.148-1.547-0.467c-1.303-0.854-1.666-2.604-0.809-3.906l3.943-6.617
	c0.855-1.301,2.605-1.662,3.906-0.808c1.305,0.856,1.666,2.604,0.811,3.908l-3.943,6.616C44.779,96.646,43.877,97.096,42.959,97.096
	z"/>
<path fill="#FFFFFF" d="M59.01,92.773c-0.533,0-1.07-0.149-1.549-0.467c-1.303-0.857-1.662-2.604-0.805-3.908l3.643-6.129
	c0.857-1.304,2.607-1.662,3.91-0.804c1.303,0.859,1.662,2.608,0.805,3.908l-3.643,6.129C60.828,92.328,59.928,92.773,59.01,92.773z"
	/>
<path fill="#FFFFFF" d="M69.578,98.5c-0.533,0-1.072-0.15-1.551-0.467c-1.303-0.859-1.662-2.61-0.807-3.909l7.932-12.627
	c0.855-1.3,2.605-1.661,3.91-0.804c1.301,0.858,1.658,2.608,0.805,3.91l-7.934,12.625C71.396,98.053,70.494,98.5,69.578,98.5z"/>
<path fill="#FFFFFF" d="M37.092,14.587c-1.52,0-2.5-1.231-2.5-2.752V3.58c0-1.52,0.98-2.751,2.5-2.751s2.5,1.231,2.5,2.751v8.255
	C39.592,13.354,38.611,14.587,37.092,14.587z"/>
<path fill="#FFFFFF" d="M15.141,40.623H5.51c-1.52,0-2.751-0.98-2.751-2.5s1.232-2.5,2.751-2.5h9.631c1.52,0,2.752,0.98,2.752,2.5
	S16.66,40.623,15.141,40.623z"/>
<path fill="#FFFFFF" d="M21.252,23.629c-0.704,0-1.408-0.27-1.946-0.806l-7.064-7.063c-1.075-1.072-1.075-2.813,0-3.891
	c1.075-1.075,2.817-1.075,3.892,0l7.064,7.063c1.075,1.073,1.075,2.815,0,3.893C22.66,23.359,21.955,23.629,21.252,23.629z"/>
<path fill="#FFFFFF" d="M54.639,23.629c-0.703,0-1.408-0.27-1.945-0.806c-1.073-1.075-1.073-2.817,0-3.892l7.064-7.063
	c1.075-1.075,2.816-1.075,3.893,0c1.074,1.073,1.074,2.815,0,3.891l-7.064,7.064C56.047,23.359,55.343,23.629,54.639,23.629z"/>
<path fill="#FFFFFF" d="M14.188,64.082c-0.704,0-1.409-0.27-1.946-0.807c-1.075-1.075-1.075-2.816,0-3.894l7.064-7.063
	c1.075-1.074,2.817-1.074,3.891,0c1.075,1.074,1.075,2.814,0,3.892l-7.064,7.063C15.596,63.812,14.892,64.082,14.188,64.082z"/>
<path fill="#FFFFFF" d="M78.848,75.623H41.68c-7.544,0-13.453-5.587-13.453-13.038c0-6.683,4.984-12.608,11.461-13.565
	c-0.021-0.371-0.033-0.93-0.033-1.301c0-10.451,8.506-19.049,18.958-19.049c8.523,0,15.88,5.643,18.193,13.6
	c0.696-0.101,1.375-0.174,2.041-0.174c9.182,0,16.652,8.171,16.652,17.306C95.5,68.491,88.029,75.623,78.848,75.623z M41.68,54.002
	c-4.459,0-7.949,3.943-7.949,8.334c0,4.365,3.49,8.287,7.949,8.287h37.167c6.252,0,11.148-5.326,11.148-11.482
	c0-6.1-5-11.312-11.148-11.312c-1,0-2.091,0.064-3.339,0.455l-3.149,0.927l-0.403-3.31c-0.825-6.721-6.563-11.805-13.343-11.805
	c-7.418,0-13.454,6.024-13.454,13.442c0,1.062,0.127,2.12,0.379,3.156l0.936,3.846l-3.934-0.467
	C42.26,54.041,41.972,54.002,41.68,54.002z"/>
<path fill="#FFFFFF" d="M38.131,20.297c-9.508,0-17.253,7.746-17.253,17.253c0,6.095,3.192,11.476,7.979,14.528
	c1.061-1.706,2.732-2.861,3.936-3.455h-0.016c-3.797-1-6.396-6.219-6.396-10.771c0-6.479,5.27-11.797,11.75-11.797
	c3.234,0,6.162,1.193,8.297,3.299c0.453-0.315,2.09-1.344,2.447-1.508c0.33-0.166,1.061-0.514,1.088-0.527
	c0.164-0.067,1.21-0.483,1.582-0.596C48.381,22.814,43.539,20.297,38.131,20.297z"/>
<circle fill="#FFFFFF" cx="85.885" cy="91.16" r="2.998"/>
</svg>
