<?xml version="1.0" encoding="utf-8"?>
<!DOCTYPE svg PUBLIC "-//W3C//DTD SVG 1.1//EN" "http://www.w3.org/Graphics/SVG/1.1/DTD/svg11.dtd">
<svg version="1.1" id="weather-cloud" xmlns="http://www.w3.org/2000/svg" xmlns:xlink="http://www.w3.org/1999/xlink" x="0px"
	 y="0px" width="25px" height="25px" viewBox="0 0 25 25" enable-background="new 0 0 25 25" xml:space="preserve">
<path fill="#FFFFFF" d="M19.048,20H5.81c-1.21,0-2.241-0.273-2.981-0.79C1.96,18.602,1.5,17.671,1.501,16.518
	c0-2.106,1.576-3.434,4.128-3.494C5.59,12.737,5.57,12.446,5.57,12.161c0-3.485,2.814-6.32,6.274-6.32
	c3.002,0,5.479,1.975,6.111,4.779c0.327-0.132,0.692-0.263,1.093-0.263c3.159,0,5.452,2.117,5.452,5.034
	C24.5,18.19,22.36,20,19.048,20z M5.811,14.021c-1.236,0-3.31,0.324-3.31,2.496c0,0.824,0.303,1.454,0.901,1.872
	C3.973,18.789,4.806,19,5.81,19h13.238c2.152,0,4.452-0.948,4.452-3.609c0-2.338-1.872-4.034-4.452-4.034
	c-0.255,0-0.538,0.116-0.839,0.239c-0.167,0.068-0.331,0.135-0.493,0.186l-0.572,0.18l-0.073-0.596
	c-0.321-2.621-2.52-4.524-5.227-4.524c-2.908,0-5.274,2.387-5.274,5.32c0,0.421,0.052,0.857,0.15,1.263l0.169,0.695l-0.711-0.081
	C6.059,14.024,5.937,14.021,5.811,14.021z"/>
</svg>
