<?xml version="1.0" encoding="utf-8"?>
<!DOCTYPE svg PUBLIC "-//W3C//DTD SVG 1.1//EN" "http://www.w3.org/Graphics/SVG/1.1/DTD/svg11.dtd">
<svg version="1.1" id="weather-sun" xmlns="http://www.w3.org/2000/svg" xmlns:xlink="http://www.w3.org/1999/xlink" x="0px"
	 y="0px" width="25px" height="25px" viewBox="0 0 25 25" enable-background="new 0 0 25 25" xml:space="preserve">
<path fill="#FFFFFF" d="M12.61,17.589c-2.91,0-5.278-2.367-5.278-5.278c0-2.91,2.368-5.278,5.278-5.278
	c2.911,0,5.279,2.368,5.279,5.278C17.889,15.222,15.521,17.589,12.61,17.589z M12.61,8.033c-2.359,0-4.278,1.919-4.278,4.278
	s1.919,4.278,4.278,4.278s4.279-1.919,4.279-4.278S14.969,8.033,12.61,8.033z"/>
<path fill="#FFFFFF" d="M12.5,5.5C12.224,5.5,12,5.276,12,5V1c0-0.276,0.224-0.5,0.5-0.5S13,0.724,13,1v4
	C13,5.276,12.776,5.5,12.5,5.5z"/>
<path fill="#FFFFFF" d="M12.5,24.5c-0.276,0-0.5-0.224-0.5-0.5v-4c0-0.276,0.224-0.5,0.5-0.5S13,19.724,13,20v4
	C13,24.276,12.776,24.5,12.5,24.5z"/>
<path fill="#FFFFFF" d="M5,13H1c-0.276,0-0.5-0.224-0.5-0.5S0.724,12,1,12h4c0.276,0,0.5,0.224,0.5,0.5S5.276,13,5,13z"/>
<path fill="#FFFFFF" d="M24,13h-4c-0.276,0-0.5-0.224-0.5-0.5S19.724,12,20,12h4c0.276,0,0.5,0.224,0.5,0.5S24.276,13,24,13z"/>
<path fill="#FFFFFF" d="M7.094,7.273c-0.128,0-0.256-0.049-0.354-0.146L4.407,4.793c-0.195-0.195-0.195-0.512,0-0.707
	s0.512-0.195,0.707,0l2.333,2.333c0.195,0.195,0.195,0.512,0,0.707C7.35,7.224,7.222,7.273,7.094,7.273z"/>
<path fill="#FFFFFF" d="M20.459,20.639c-0.128,0-0.256-0.049-0.354-0.146l-2.333-2.334c-0.195-0.195-0.195-0.512,0-0.707
	s0.512-0.195,0.707,0l2.333,2.334c0.195,0.195,0.195,0.512,0,0.707C20.715,20.59,20.587,20.639,20.459,20.639z"/>
<path fill="#FFFFFF" d="M18.126,7.273c-0.128,0-0.256-0.049-0.354-0.146c-0.195-0.195-0.195-0.512,0-0.707l2.333-2.333
	c0.195-0.195,0.512-0.195,0.707,0s0.195,0.512,0,0.707l-2.333,2.333C18.382,7.224,18.254,7.273,18.126,7.273z"/>
<path fill="#FFFFFF" d="M4.761,20.639c-0.128,0-0.256-0.049-0.354-0.146c-0.195-0.195-0.195-0.512,0-0.707l2.333-2.334
	c0.195-0.195,0.512-0.195,0.707,0s0.195,0.512,0,0.707l-2.333,2.334C5.017,20.59,4.889,20.639,4.761,20.639z"/>
</svg>
