<?xml version="1.0" encoding="utf-8"?>
<!DOCTYPE svg PUBLIC "-//W3C//DTD SVG 1.1//EN" "http://www.w3.org/Graphics/SVG/1.1/DTD/svg11.dtd">
<svg version="1.1" id="weather-cloud" xmlns="http://www.w3.org/2000/svg" xmlns:xlink="http://www.w3.org/1999/xlink" x="0px"
	 y="0px" width="100px" height="100px" viewBox="-0.5 -0.5 100 100" enable-background="new -0.5 -0.5 100 100"
	 xml:space="preserve">
<path fill="#FFFFFF" d="M70.279,75.5H26.932c-8.684,0-15.23-6.066-15.23-14.279c0-7.65,5.641-13.494,13.393-14.303
	c-0.044-0.57-0.067-1.111-0.067-1.682c0-11.958,9.714-21.67,21.654-21.67c9.841,0,18.315,6.611,20.861,15.809
	c0.864-0.179,1.782-0.298,2.736-0.298c10.637,0,18.968,8.023,18.968,18.423C89.246,67.662,80.915,75.5,70.279,75.5z M26.932,52.389
	c-5.636,0-9.728,3.894-9.728,9.082c0,5.158,4.092,9.029,9.728,9.029h43.347c7.677,0,13.465-5.553,13.465-12.746
	c0-7.314-5.914-13.105-13.465-13.105c-1.303,0-2.688,0.402-4.025,0.823l-3.15,0.974l-0.405-3.285
	c-0.989-8.02-7.875-14.071-16.016-14.071c-8.905,0-16.15,7.258-16.15,16.181c0,1.287,0.152,2.569,0.455,3.815l0.929,3.827
	l-3.913-0.444C27.652,52.427,27.296,52.389,26.932,52.389z"/>
</svg>
