<?xml version="1.0" encoding="utf-8"?>
<!DOCTYPE svg PUBLIC "-//W3C//DTD SVG 1.1//EN" "http://www.w3.org/Graphics/SVG/1.1/DTD/svg11.dtd">
<svg version="1.1" id="weather-rain-sun" xmlns="http://www.w3.org/2000/svg" xmlns:xlink="http://www.w3.org/1999/xlink" x="0px"
	 y="0px" width="25px" height="25px" viewBox="0 0 25 25" enable-background="new 0 0 25 25" xml:space="preserve">
<path fill="#FFFFFF" d="M21.742,19.623c-0.231-0.151-0.54-0.089-0.693,0.143l-2.045,3.104c-0.151,0.23-0.088,0.541,0.143,0.693
	c0.085,0.056,0.181,0.082,0.275,0.082c0.162,0,0.321-0.079,0.418-0.225l2.045-3.104C22.036,20.086,21.973,19.775,21.742,19.623z"/>
<path fill="#FFFFFF" d="M18.818,19.624c-0.23-0.155-0.541-0.09-0.692,0.142l-2.047,3.104c-0.152,0.23-0.089,0.541,0.142,0.692
	c0.085,0.057,0.181,0.083,0.275,0.083c0.162,0,0.321-0.079,0.417-0.225l2.047-3.104C19.112,20.086,19.049,19.775,18.818,19.624z"/>
<path fill="#FFFFFF" d="M15.893,19.624c-0.23-0.155-0.541-0.09-0.692,0.142l-2.047,3.104c-0.152,0.23-0.089,0.541,0.142,0.692
	c0.085,0.057,0.181,0.083,0.275,0.083c0.162,0,0.321-0.079,0.417-0.225l2.047-3.104C16.187,20.086,16.123,19.775,15.893,19.624z"/>
<path fill="#FFFFFF" d="M12.966,19.623c-0.23-0.151-0.541-0.087-0.692,0.143l-2.045,3.104c-0.152,0.23-0.088,0.541,0.143,0.693
	c0.084,0.056,0.18,0.082,0.274,0.082c0.163,0,0.322-0.079,0.418-0.225l2.045-3.104C13.261,20.086,13.196,19.775,12.966,19.623z"/>
<path fill="#FFFFFF" d="M8.525,11.438C7.571,10.855,7.001,9.84,7.001,8.724c0-1.754,1.427-3.181,3.181-3.181
	c0.85,0,1.648,0.331,2.25,0.932l0.707-0.707c-0.79-0.79-1.84-1.225-2.957-1.225c-2.306,0-4.181,1.875-4.181,4.181
	c0,1.467,0.749,2.801,2.002,3.568L8.525,11.438z"/>
<path fill="#FFFFFF" d="M10.5,3.5C10.776,3.5,11,3.276,11,3V1c0-0.276-0.224-0.5-0.5-0.5S10,0.724,10,1v2
	C10,3.276,10.224,3.5,10.5,3.5z"/>
<path fill="#FFFFFF" d="M5.5,9.5C5.5,9.224,5.276,9,5,9H2C1.724,9,1.5,9.224,1.5,9.5S1.724,10,2,10h3C5.276,10,5.5,9.776,5.5,9.5z"
	/>
<path fill="#FFFFFF" d="M5.58,4.812c0.098,0.098,0.226,0.146,0.354,0.146s0.256-0.049,0.354-0.146c0.195-0.195,0.195-0.512,0-0.707
	L4.488,2.307c-0.195-0.195-0.512-0.195-0.707,0s-0.195,0.512,0,0.707L5.58,4.812z"/>
<path fill="#FFFFFF" d="M14.434,4.958c0.128,0,0.256-0.049,0.354-0.146l1.797-1.798c0.195-0.195,0.195-0.512,0-0.707
	s-0.512-0.195-0.707,0L14.08,4.104c-0.195,0.195-0.195,0.512,0,0.707C14.178,4.909,14.306,4.958,14.434,4.958z"/>
<path fill="#FFFFFF" d="M5.58,12.604L3.781,14.4c-0.195,0.195-0.195,0.512,0,0.707c0.098,0.098,0.226,0.146,0.354,0.146
	s0.256-0.049,0.354-0.146l1.798-1.797c0.195-0.195,0.195-0.512,0-0.707S5.775,12.408,5.58,12.604z"/>
<path fill="#FFFFFF" d="M20.482,10.055c-0.104,0-0.206-0.008-0.307-0.016c-0.113-0.009-0.226-0.017-0.336-0.019
	c-0.483-2.097-2.328-3.624-4.475-3.624c-2.538,0-4.602,2.045-4.602,4.559c0,0.146,0.007,0.287,0.021,0.428
	c-1.662,0.208-2.914,2.133-2.914,3.805C7.87,16.951,9.271,19,11.078,19h8.928h0.477c2.263,0,4.018-2.485,4.018-4.624
	C24.5,12.074,22.623,10.055,20.482,10.055z M20.482,18l-9.404,0.001c-1.189,0-2.208-1.546-2.208-2.812
	c0-1.244,1.04-2.823,2.208-2.823c0.042,0,0.083,0.008,0.125,0.014l0.828,0.094l-0.167-0.691c-0.069-0.286-0.101-0.548-0.101-0.827
	c0-1.962,1.616-3.559,3.602-3.559c1.777,0,3.345,1.421,3.568,3.236l0.073,0.596l0.573-0.18c0.122-0.04,0.323-0.029,0.518-0.013
	c0.127,0.01,0.255,0.019,0.385,0.019c1.579,0,3.018,1.583,3.018,3.321C23.5,16.018,22.154,18,20.482,18z"/>
</svg>
