<?xml version="1.0" encoding="utf-8"?>
<!DOCTYPE svg PUBLIC "-//W3C//DTD SVG 1.1//EN" "http://www.w3.org/Graphics/SVG/1.1/DTD/svg11.dtd">
<svg version="1.1" id="weather-drizzle-moon" xmlns="http://www.w3.org/2000/svg" xmlns:xlink="http://www.w3.org/1999/xlink"
	 x="0px" y="0px" width="100px" height="100px" viewBox="-0.5 -0.5 100 100" enable-background="new -0.5 -0.5 100 100"
	 xml:space="preserve">
<g>
	<path fill="#FFFFFF" d="M85.701,26.916c-1.461,0.511-2.998,0.771-4.566,0.771c-7.76,0-14.068-6.312-14.068-14.069
		c0-2.002,0.41-3.931,1.213-5.726l1.652-3.668l-5.049,0.648c-9.158,1.48-17.77,8.938-17.77,18.052v0.063
		c2,0.369,3.786,0.854,4.792,1.473c1.082-6.375,4.695-11.904,10.346-14.286c-0.217,1.126,0.08,2.273,0.08,3.442
		c0,10.14,8.467,18.398,18.607,18.398c0.614,0,1.326-0.033,1.932-0.099c-1.883,3.562-5.023,7.313-8.822,8.567
		c1.83,0.572,3.58,3.515,5.129,3.515h0.01c4.535-3,7.979-8.082,9.33-13.429l0.984-4.434L85.701,26.916z"/>
</g>
<g>
	<path fill="#FFFFFF" d="M62.868,73H25.701c-7.544,0-13.453-5.837-13.453-13.288c0-6.683,4.984-12.733,11.46-13.69
		c-0.021-0.371-0.033-0.992-0.033-1.362c0-10.451,8.506-19.08,18.959-19.08c8.523,0,15.88,5.626,18.192,13.583
		c0.697-0.1,1.376-0.182,2.041-0.182c9.183,0,16.652,8.418,16.652,17.553C79.521,65.622,72.051,73,62.868,73z M25.701,50.879
		c-4.458,0-7.95,4.193-7.95,8.584c0,4.365,3.491,8.537,7.95,8.537h37.167c6.253,0,11.149-5.576,11.149-11.732
		c0-6.1-5-11.438-11.149-11.438c-0.999,0-2.091,0.002-3.339,0.393l-3.148,0.896l-0.404-3.325
		C55.15,36.073,49.414,30.98,42.635,30.98c-7.418,0-13.455,6.022-13.455,13.44c0,1.062,0.127,2.118,0.379,3.155l0.935,3.844
		l-3.933-0.468C26.281,50.918,25.993,50.879,25.701,50.879z"/>
</g>
<g>
	<path fill="#FFFFFF" d="M16.275,85.721c-0.532,0-1.072-0.146-1.551-0.466c-1.301-0.858-1.661-2.606-0.803-3.911l2.795-4.84
		c0.857-1.301,2.608-1.661,3.91-0.801c1.302,0.855,1.661,2.605,0.803,3.908l-2.793,4.839C18.092,85.273,17.193,85.721,16.275,85.721
		z"/>
</g>
<g>
	<path fill="#FFFFFF" d="M26.98,92.973c-0.532,0-1.07-0.149-1.547-0.467c-1.303-0.854-1.666-2.604-0.809-3.906l3.944-6.617
		c0.856-1.301,2.606-1.662,3.907-0.808c1.304,0.856,1.666,2.604,0.81,3.908l-3.944,6.616C28.801,92.523,27.898,92.973,26.98,92.973z
		"/>
</g>
<g>
	<path fill="#FFFFFF" d="M43.031,88.65c-0.533,0-1.07-0.149-1.549-0.467c-1.303-0.857-1.662-2.604-0.805-3.908l3.643-6.129
		c0.857-1.303,2.607-1.662,3.91-0.803s1.662,2.608,0.805,3.908l-3.643,6.129C44.85,88.205,43.949,88.65,43.031,88.65z"/>
</g>
<g>
	<path fill="#FFFFFF" d="M53.6,94.377c-0.533,0-1.072-0.15-1.551-0.467c-1.302-0.859-1.662-2.61-0.805-3.909l7.93-12.627
		c0.857-1.3,2.607-1.661,3.91-0.804c1.301,0.859,1.66,2.609,0.805,3.91l-7.932,12.625C55.418,93.93,54.516,94.377,53.6,94.377z"/>
</g>
<circle fill="#FFFFFF" cx="69.906" cy="87.037" r="2.998"/>
</svg>
