<?xml version="1.0" encoding="utf-8"?>
<!DOCTYPE svg PUBLIC "-//W3C//DTD SVG 1.1//EN" "http://www.w3.org/Graphics/SVG/1.1/DTD/svg11.dtd">
<svg version="1.1" id="icon-help" xmlns="http://www.w3.org/2000/svg" xmlns:xlink="http://www.w3.org/1999/xlink" x="0px" y="0px"
	 width="20px" height="20px" viewBox="0 0 20 20" enable-background="new 0 0 20 20" xml:space="preserve">
<path fill-rule="evenodd" clip-rule="evenodd" fill="#FFFFFF" d="M10.203,5c0.408-0.007,0.856,0.081,1.282,0.276
	c1.033,0.475,1.486,1.455,1.382,2.484c-0.059,0.602-0.324,1.105-0.716,1.55c-0.124,0.141-0.259,0.27-0.391,0.405
	c-0.205,0.21-0.406,0.421-0.615,0.627c-0.312,0.312-0.452,0.692-0.462,1.128c-0.002,0.119-0.012,0.237-0.012,0.355
	c0.002,0.078-0.029,0.11-0.109,0.108c-0.213-0.003-0.424-0.006-0.637,0.001c-0.094,0.003-0.113-0.032-0.111-0.12
	c0.021-0.727,0.212-1.387,0.721-1.933c0.195-0.21,0.396-0.413,0.606-0.609c0.293-0.275,0.548-0.579,0.718-0.949
	c0.351-0.767,0.183-1.614-0.431-2.15c-0.3-0.262-0.655-0.408-1.047-0.451c-0.336-0.037-0.674-0.018-0.999,0.085
	C8.607,6.05,8.19,6.604,8.021,7.374c-0.043,0.203-0.06,0.408-0.065,0.613C7.953,8.071,7.932,8.109,7.838,8.108
	c-0.205-0.006-0.41-0.004-0.617-0.002C7.153,8.107,7.116,8.087,7.118,8.011c0.011-0.575,0.12-1.125,0.399-1.634
	C7.774,5.91,8.143,5.555,8.621,5.32S9.611,4.998,10.203,5z"/>
<path fill-rule="evenodd" clip-rule="evenodd" fill="#FFFFFF" d="M10.202,15c-0.432,0.004-0.777-0.338-0.776-0.764
	c0.004-0.429,0.348-0.771,0.775-0.769c0.414,0.004,0.753,0.348,0.754,0.769C10.958,14.656,10.621,14.998,10.202,15z"/>
<path fill="#FFFFFF" d="M10,19.5c-5.238,0-9.5-4.262-9.5-9.5S4.762,0.5,10,0.5s9.5,4.262,9.5,9.5S15.238,19.5,10,19.5z M10,1.5
	c-4.687,0-8.5,3.813-8.5,8.5c0,4.687,3.813,8.5,8.5,8.5c4.687,0,8.5-3.813,8.5-8.5C18.5,5.313,14.687,1.5,10,1.5z"/>
</svg>
