<?xml version="1.0" encoding="utf-8"?>
<!DOCTYPE svg PUBLIC "-//W3C//DTD SVG 1.1//EN" "http://www.w3.org/Graphics/SVG/1.1/DTD/svg11.dtd">
<svg version="1.1" id="search" xmlns="http://www.w3.org/2000/svg" xmlns:xlink="http://www.w3.org/1999/xlink" x="0px" y="0px"
	 width="35px" height="35px" viewBox="0 0 35 35" enable-background="new 0 0 35 35" xml:space="preserve">
<path fill="#666666" d="M27.479,26.221l-6.044-6.045c1.025-1.316,1.641-2.966,1.641-4.76c0-4.289-3.488-7.777-7.776-7.777
	c-4.289,0-7.778,3.488-7.778,7.777c0,4.29,3.489,7.778,7.777,7.778c1.913,0,3.665-0.697,5.02-1.848l6.018,6.016L27.479,26.221z
	 M15.298,21.576c-3.397,0-6.161-2.764-6.161-6.161c0-3.398,2.764-6.161,6.161-6.161c3.398,0,6.161,2.764,6.161,6.161
	C21.46,18.812,18.696,21.576,15.298,21.576z"/>
</svg>
