<?xml version="1.0" encoding="utf-8"?>
<!DOCTYPE svg PUBLIC "-//W3C//DTD SVG 1.1//EN" "http://www.w3.org/Graphics/SVG/1.1/DTD/svg11.dtd">
<svg version="1.1" id="search" xmlns="http://www.w3.org/2000/svg" xmlns:xlink="http://www.w3.org/1999/xlink" x="0px" y="0px"
	 width="35px" height="35px" viewBox="0 0 35 35" enable-background="new 0 0 35 35" xml:space="preserve">
<path fill="#828282" d="M26.794,26.795l-4.838-4.838c1.237-1.474,1.985-3.369,1.985-5.439c0-4.67-3.8-8.471-8.471-8.471
	C10.8,8.047,7,11.847,7,16.518c0,4.671,3.8,8.471,8.471,8.471c2.094,0,4.009-0.768,5.488-2.031l4.837,4.836
	C25.934,27.932,26.113,28,26.294,28c0.182,0,0.362-0.068,0.5-0.207C27.068,27.518,27.068,27.071,26.794,26.795z M8.412,16.518
	c0-3.898,3.161-7.059,7.059-7.059c3.898,0,7.059,3.161,7.059,7.059c0,3.898-3.16,7.059-7.059,7.059
	C11.573,23.576,8.412,20.416,8.412,16.518z"/>
</svg>
