<?xml version="1.0" encoding="utf-8"?>
<!DOCTYPE svg PUBLIC "-//W3C//DTD SVG 1.1//EN" "http://www.w3.org/Graphics/SVG/1.1/DTD/svg11.dtd">
<svg version="1.1" id="search" xmlns="http://www.w3.org/2000/svg" xmlns:xlink="http://www.w3.org/1999/xlink" x="0px" y="0px"
	 width="28px" height="28px" viewBox="0 0 28 28" enable-background="new 0 0 28 28" xml:space="preserve">
<path fill="#828282" d="M23.794,22.748l-4.838-4.838c1.237-1.475,1.985-3.369,1.985-5.439C20.941,7.801,17.141,4,12.47,4
	S4,7.8,4,12.471c0,4.671,3.8,8.471,8.471,8.471c2.094,0,4.009-0.769,5.488-2.031l4.837,4.836c0.138,0.138,0.317,0.206,0.498,0.206
	c0.183,0,0.362-0.068,0.5-0.207C24.068,23.471,24.068,23.023,23.794,22.748z M5.412,12.471c0-3.898,3.161-7.059,7.059-7.059
	s7.058,3.161,7.058,7.059s-3.159,7.059-7.058,7.059C8.573,19.529,5.412,16.369,5.412,12.471z"/>
</svg>
