<?xml version="1.0" encoding="utf-8"?>
<!DOCTYPE svg PUBLIC "-//W3C//DTD SVG 1.1//EN" "http://www.w3.org/Graphics/SVG/1.1/DTD/svg11.dtd">
<svg version="1.1" id="icon-large-meta" xmlns="http://www.w3.org/2000/svg" xmlns:xlink="http://www.w3.org/1999/xlink" x="0px"
	 y="0px" width="25px" height="25px" viewBox="0 0 25 25" enable-background="new 0 0 25 25" xml:space="preserve">
<path fill="none" stroke="#000000" stroke-miterlimit="10" d="M26,24"/>
<g>
	<path fill="#666666" d="M11.5,22h-11C0.224,22,0,21.776,0,21.5v-19C0,2.224,0.224,2,0.5,2h22C22.776,2,23,2.224,23,2.5v7
		c0,0.276-0.224,0.5-0.5,0.5S22,9.776,22,9.5V3H1v18h10.5c0.276,0,0.5,0.224,0.5,0.5S11.776,22,11.5,22z"/>
</g>
<rect x="0.5" y="6" fill="#666666" width="22" height="1"/>
<path fill="#666666" d="M24.424,21.576l-2.638-2.638C22.544,17.995,23,16.801,23,15.5c0-3.033-2.468-5.5-5.501-5.5
	C14.467,10,12,12.467,12,15.5c0,3.032,2.467,5.5,5.499,5.5c1.301,0,2.496-0.456,3.439-1.214l2.638,2.638
	C23.693,22.541,23.847,22.6,24,22.6s0.307-0.059,0.424-0.176C24.658,22.19,24.658,21.81,24.424,21.576z M13,15.5
	c0-2.484,2.016-4.5,4.499-4.5C19.984,11,22,13.016,22,15.5c0,2.486-2.016,4.5-4.501,4.5C15.016,20,13,17.986,13,15.5z"/>
<rect x="1.969" y="4" fill="#666666" width="1" height="1"/>
<rect x="3.969" y="4" fill="#666666" width="1" height="1"/>
<rect x="5.969" y="4" fill="#666666" width="1" height="1"/>
</svg>
