<?xml version="1.0" encoding="utf-8"?>
<!DOCTYPE svg PUBLIC "-//W3C//DTD SVG 1.1//EN" "http://www.w3.org/Graphics/SVG/1.1/DTD/svg11.dtd">
<svg version="1.1" id="icon-pen" xmlns="http://www.w3.org/2000/svg" xmlns:xlink="http://www.w3.org/1999/xlink" x="0px" y="0px"
	 width="20px" height="20px" viewBox="0 0 20 20" enable-background="new 0 0 20 20" xml:space="preserve">
<g>
	<path d="M1128.628,607.179l0.989-0.985c0.51-0.51,0.51-1.302,0-1.812c-0.255-0.255-0.59-0.382-0.924-0.382
		c-0.335,0-0.65,0.127-0.906,0.382l-0.977,0.979L1128.628,607.179z"/>
	<polygon points="1126.104,606.068 1118,614.188 1118,616 1119.775,616 1127.92,607.885 	"/>
</g>
<g>
	<path fill="#727272" d="M14.628,7.179l0.989-0.986c0.51-0.509,0.51-1.301,0-1.811C15.362,4.127,15.027,4,14.693,4
		c-0.335,0-0.65,0.127-0.906,0.382L12.811,5.36L14.628,7.179z"/>
	<polygon fill="#727272" points="12.104,6.068 5,13.188 4,16 6.775,15 13.92,7.884 	"/>
</g>
</svg>
