<?xml version="1.0" encoding="utf-8"?>
<!DOCTYPE svg PUBLIC "-//W3C//DTD SVG 1.1//EN" "http://www.w3.org/Graphics/SVG/1.1/DTD/svg11.dtd">
<svg version="1.1" id="icon-folder-primary" xmlns="http://www.w3.org/2000/svg" xmlns:xlink="http://www.w3.org/1999/xlink" x="0px" y="0px"
	 width="20px" height="20px" viewBox="0 0 20 20" enable-background="new 0 0 20 20" xml:space="preserve">
<path fill="#4091D2" d="M7.543,3l0.023,0.011l1.245,2.475C8.988,5.803,9.323,6,9.686,6h1.598H19v11H1V6.597V6.115V3.053
	C1,3.023,1.023,3,1.053,3H7.543 M7.543,2H1.053C0.471,2,0,2.471,0,3.053v3.062v11.104C0,17.657,0.354,18,0.789,18h18.419
	C19.646,18,20,17.657,20,17.219V5.789C20,5.353,19.646,5,19.208,5h-7.925H9.686L8.374,2.405C8.174,2.149,7.868,2,7.543,2L7.543,2z"
	/>
<polygon fill="#070707" points="-31.2,7 -33,4 -40,4 -40,6 -40,8 -40,20 -20,20 -20,7 "/>
</svg>
