<?xml version="1.0" encoding="utf-8"?>
<!-- Generator: Adobe Illustrator 16.0.4, SVG Export Plug-In . SVG Version: 6.00 Build 0)  -->
<!DOCTYPE svg PUBLIC "-//W3C//DTD SVG 1.1//EN" "http://www.w3.org/Graphics/SVG/1.1/DTD/svg11.dtd">
<svg version="1.1" id="icon-large-comment" xmlns="http://www.w3.org/2000/svg" xmlns:xlink="http://www.w3.org/1999/xlink" x="0px"
	 y="0px" width="25px" height="25px" viewBox="0 0 25 25" enable-background="new 0 0 25 25" xml:space="preserve">
<g>
	<circle fill="#666666" cx="6" cy="12" r="1"/>
</g>
<g>
	<circle fill="#666666" cx="11" cy="12" r="1"/>
</g>
<g>
	<circle fill="#666666" cx="16" cy="12" r="1"/>
</g>
<g>
	<path fill="#666666" d="M20,5c0.552,0,1,0.449,1,1v12c0,0.552-0.448,1-1,1H10H9.649l-0.274,0.219L6,21.919V20v-1H5H2
		c-0.551,0-1-0.448-1-1V6c0-0.551,0.449-1,1-1H20 M20,4H2C0.896,4,0,4.896,0,6v12c0,1.104,0.896,2,2,2h3v4l5-4h10
		c1.104,0,2-0.896,2-2V6C22,4.896,21.104,4,20,4L20,4z"/>
</g>
<path fill="#666666" d="M23,1H5C3.896,1,3,1.896,3,3h1c0-0.551,0.449-1,1-1h18c0.552,0,1,0.449,1,1v12c0,0.552-0.448,1-1,1v1
	c1.104,0,2-0.896,2-2V3C25,1.896,24.104,1,23,1z"/>
</svg>
