<?xml version="1.0" encoding="utf-8"?>
<!DOCTYPE svg PUBLIC "-//W3C//DTD SVG 1.1//EN" "http://www.w3.org/Graphics/SVG/1.1/DTD/svg11.dtd">
<svg version="1.1" id="icon-spam" xmlns="http://www.w3.org/2000/svg" xmlns:xlink="http://www.w3.org/1999/xlink" x="0px" y="0px"
	 width="20px" height="20px" viewBox="0 0 20 20" enable-background="new 0 0 20 20" xml:space="preserve">
<g>
	<path d="M16.995,4.004c0.273,0,0.533,0.052,0.777,0.156s0.455,0.247,0.635,0.43c0.178,0.183,0.322,0.394,0.43,0.635
		s0.16,0.501,0.16,0.781v3.496c0,0.755-0.031,1.482-0.092,2.183c-0.062,0.7-0.154,1.364-0.273,1.992
		c-0.121,0.628-0.271,1.219-0.449,1.772c-0.18,0.554-0.387,1.064-0.621,1.533s-0.496,0.889-0.785,1.26
		c-0.291,0.371-0.602,0.684-0.934,0.938c-0.352,0.273-0.725,0.479-1.117,0.615C14.331,19.932,13.919,20,13.489,20h-5
		c-0.052,0-0.217-0.029-0.493-0.088s-0.63-0.237-1.06-0.537c-0.273-0.195-0.544-0.425-0.811-0.688s-0.527-0.562-0.781-0.894
		s-0.503-0.698-0.747-1.099s-0.483-0.835-0.718-1.304c-0.501-0.996-0.92-1.833-1.255-2.51S2.018,11.657,1.81,11.24
		s-0.358-0.718-0.449-0.903s-0.14-0.285-0.146-0.298C1.097,9.792,1.029,9.536,1.009,9.272s0.005-0.52,0.073-0.767
		s0.179-0.477,0.332-0.688s0.344-0.386,0.571-0.522c0.222-0.137,0.457-0.222,0.708-0.254S3.197,7.024,3.451,7.09
		c0.254,0.071,0.485,0.188,0.693,0.352s0.378,0.364,0.508,0.605l1.338,2.334V3.008c0-0.28,0.054-0.54,0.161-0.781
		s0.251-0.452,0.43-0.635s0.391-0.325,0.635-0.43s0.503-0.156,0.776-0.156c0.208,0,0.407,0.029,0.596,0.088s0.361,0.144,0.518,0.254
		c0.137-0.391,0.376-0.713,0.718-0.967S10.553,0,10.99,0c0.437,0,0.828,0.127,1.171,0.381c0.346,0.254,0.586,0.576,0.723,0.967
		c0.156-0.11,0.33-0.195,0.518-0.254c0.189-0.059,0.389-0.088,0.596-0.088c0.273,0,0.533,0.052,0.777,0.156s0.455,0.247,0.635,0.43
		c0.178,0.183,0.32,0.394,0.424,0.635c0.105,0.241,0.156,0.501,0.156,0.781v1.27c0.15-0.091,0.311-0.159,0.479-0.205
		C16.638,4.026,16.813,4.004,16.995,4.004z M17.991,9.502V6.006c0-0.28-0.098-0.518-0.293-0.713S17.269,5,16.995,5
		c-0.279,0-0.518,0.098-0.713,0.293s-0.293,0.433-0.293,0.713v3.496c0,0.137-0.049,0.254-0.146,0.352S15.628,10,15.491,10
		s-0.254-0.049-0.352-0.146s-0.146-0.215-0.146-0.352V3.008c0-0.28-0.098-0.518-0.293-0.713s-0.43-0.293-0.703-0.293
		c-0.279,0-0.518,0.098-0.713,0.293s-0.293,0.433-0.293,0.713v6.494c0,0.137-0.049,0.254-0.146,0.352S12.63,10,12.493,10
		s-0.254-0.049-0.352-0.146s-0.146-0.215-0.146-0.352v-7.5c0-0.273-0.098-0.508-0.293-0.703s-0.433-0.293-0.713-0.293
		c-0.273,0-0.508,0.098-0.703,0.293s-0.293,0.43-0.293,0.703v7.5c0,0.137-0.049,0.254-0.146,0.352S9.632,10,9.496,10
		S9.242,9.951,9.144,9.854S8.998,9.639,8.998,9.502V3.008c0-0.28-0.098-0.518-0.293-0.713S8.272,2.002,7.992,2.002
		c-0.273,0-0.508,0.098-0.703,0.293S6.996,2.728,6.996,3.008v7.812c0,0.332-0.049,0.594-0.146,0.786s-0.244,0.314-0.439,0.366
		s-0.383,0.017-0.562-0.107s-0.35-0.332-0.513-0.625L3.783,8.535h-0.01v-0.01C3.708,8.408,3.625,8.309,3.524,8.228
		S3.311,8.089,3.187,8.057C3.07,8.024,2.953,8.016,2.835,8.032S2.608,8.089,2.503,8.154C2.269,8.291,2.115,8.501,2.04,8.784
		S1.989,9.336,2.113,9.59V9.6c0.176,0.352,0.366,0.734,0.571,1.147s0.477,0.962,0.815,1.646s0.762,1.533,1.27,2.549
		c0.261,0.515,0.515,0.967,0.762,1.357s0.483,0.728,0.708,1.011s0.437,0.52,0.635,0.708s0.376,0.342,0.532,0.459
		c0.319,0.241,0.576,0.389,0.771,0.444S8.48,19.004,8.5,19.004h4.99c0.404,0,0.77-0.076,1.1-0.229
		c0.328-0.153,0.623-0.349,0.883-0.586c0.262-0.237,0.49-0.503,0.689-0.796c0.197-0.293,0.369-0.579,0.512-0.859
		c0.215-0.437,0.406-0.913,0.572-1.431s0.305-1.071,0.414-1.66c0.111-0.589,0.193-1.214,0.25-1.875
		C17.964,10.906,17.991,10.218,17.991,9.502z"/>
</g>
</svg>
