<?xml version="1.0" encoding="utf-8"?>
<!DOCTYPE svg PUBLIC "-//W3C//DTD SVG 1.1//EN" "http://www.w3.org/Graphics/SVG/1.1/DTD/svg11.dtd">
<svg version="1.1" id="icon-large-lock-file" xmlns="http://www.w3.org/2000/svg" xmlns:xlink="http://www.w3.org/1999/xlink"
	 x="0px" y="0px" width="25px" height="25px" viewBox="0 0 25 25" enable-background="new 0 0 25 25" xml:space="preserve">
<path fill="#666666" d="M11,22H1V1h9.5v5.5H16V10h1V6c0-0.265-0.105-0.52-0.293-0.707l-5-5C11.52,0.105,11.265,0,11,0H1
	C0.448,0,0,0.448,0,1v21c0,0.553,0.448,1,1,1h10V22z M11.5,1.5l4,4h-4V1.5z"/>
<g>
	<path fill-rule="evenodd" clip-rule="evenodd" fill="#666666" d="M24,16h-1.002c-0.001-0.268-0.008-0.535-0.045-0.797
		c-0.187-1.299-0.914-2.247-2.139-2.821C20.246,12.116,19.658,12,19.063,12c-0.411,0-0.827,0.056-1.244,0.155
		c-1.567,0.37-2.772,1.818-2.808,3.365c-0.002,0.099-0.004,0.269-0.006,0.48H14c-0.553,0-1,0.447-1,1v7c0,0.553,0.447,1,1,1h10
		c0.553,0,1-0.447,1-1v-7C25,16.447,24.553,16,24,16z M16.012,15.542c0.024-1.09,0.92-2.15,2.039-2.414
		C18.406,13.043,18.746,13,19.063,13c0.479,0,0.913,0.095,1.327,0.288c0.922,0.432,1.436,1.105,1.572,2.057
		c0.029,0.199,0.033,0.423,0.033,0.655h-5.99C16.008,15.803,16.009,15.634,16.012,15.542z M24,24H14v-7h10V24z"/>
	<path fill-rule="evenodd" clip-rule="evenodd" fill="#666666" d="M20,22.605l-0.577-1.924c0.28-0.152,0.478-0.439,0.478-0.781
		c0-0.498-0.402-0.9-0.9-0.9s-0.9,0.402-0.9,0.9c0,0.342,0.197,0.629,0.478,0.781L18,22.605H20z"/>
</g>
</svg>
