<?xml version="1.0" encoding="utf-8"?>
<!DOCTYPE svg PUBLIC "-//W3C//DTD SVG 1.1//EN" "http://www.w3.org/Graphics/SVG/1.1/DTD/svg11.dtd">
<svg version="1.1" id="icon-large-lock-file" xmlns="http://www.w3.org/2000/svg" xmlns:xlink="http://www.w3.org/1999/xlink"
	 x="0px" y="0px" width="25px" height="25px" viewBox="0 0 25 25" enable-background="new 0 0 25 25" xml:space="preserve">
<path fill="#666666" d="M11,22H1V1h9v6h6v3h1V6c0-0.265-0.105-0.52-0.293-0.707l-5-5C11.52,0.105,11.265,0,11,0H1
	C0.448,0,0,0.448,0,1v21c0,0.553,0.448,1,1,1h10V22z M11,1l5,5h-5V1z"/>
<g>
	<path fill="#666666" d="M24,16h-1.002c-0.001-0.268-0.008-0.535-0.045-0.797c-0.188-1.299-0.914-2.247-2.139-2.821
		C20.246,12.116,19.658,12,19.062,12c-0.41,0-0.826,0.056-1.244,0.155c-1.566,0.37-2.771,1.818-2.807,3.365
		c-0.003,0.1-0.005,0.27-0.007,0.48H14c-0.553,0-1,0.447-1,1v7c0,0.553,0.447,1,1,1h10c0.553,0,1-0.447,1-1v-7
		C25,16.447,24.553,16,24,16z M16.012,15.542c0.024-1.09,0.92-2.149,2.039-2.414C18.406,13.043,18.746,13,19.062,13
		c0.479,0,0.914,0.096,1.328,0.288c0.922,0.433,1.436,1.104,1.571,2.058c0.029,0.198,0.033,0.422,0.033,0.654h-5.99
		C16.008,15.803,16.009,15.634,16.012,15.542z M24,24H14v-7h10V24z"/>
	<path fill="#666666" d="M20,22.605l-0.577-1.924c0.28-0.152,0.478-0.439,0.478-0.781c0-0.498-0.401-0.9-0.899-0.9
		s-0.899,0.402-0.899,0.9c0,0.342,0.196,0.629,0.478,0.781L18,22.605H20z"/>
</g>
</svg>
