<?xml version="1.0" encoding="utf-8"?>
<!DOCTYPE svg PUBLIC "-//W3C//DTD SVG 1.1//EN" "http://www.w3.org/Graphics/SVG/1.1/DTD/svg11.dtd">
<svg version="1.1" id="icon-time" xmlns="http://www.w3.org/2000/svg" xmlns:xlink="http://www.w3.org/1999/xlink" x="0px" y="0px"
	 width="20px" height="20px" viewBox="0 0 20 20" enable-background="new 0 0 20 20" xml:space="preserve">
<path d="M15.5,10H10V4c0-0.276-0.224-0.5-0.5-0.5S9,3.724,9,4v6.5C9,10.776,9.224,11,9.5,11h6c0.276,0,0.5-0.224,0.5-0.5
	S15.776,10,15.5,10z"/>
<path d="M10,2c4.411,0,8,3.589,8,8s-3.589,8-8,8s-8-3.589-8-8S5.589,2,10,2 M10,1c-4.971,0-9,4.029-9,9s4.029,9,9,9s9-4.029,9-9
	S14.971,1,10,1L10,1z"/>
</svg>
