<?xml version="1.0" encoding="utf-8"?>
<!DOCTYPE svg PUBLIC "-//W3C//DTD SVG 1.1//EN" "http://www.w3.org/Graphics/SVG/1.1/DTD/svg11.dtd">
<svg version="1.1" id="icon-time" xmlns="http://www.w3.org/2000/svg" xmlns:xlink="http://www.w3.org/1999/xlink" x="0px" y="0px"
	 width="20px" height="20px" viewBox="-0.5 -0.5 20 20" enable-background="new -0.5 -0.5 20 20" xml:space="preserve">
<path d="M14,9.5H9.5V5c0-0.276-0.224-0.5-0.5-0.5S8.5,4.724,8.5,5v5c0,0.275,0.224,0.5,0.5,0.5h5c0.275,0,0.5-0.225,0.5-0.5
	C14.5,9.724,14.275,9.5,14,9.5z"/>
<path d="M9.5,2.5c3.859,0,7,3.14,7,7c0,3.859-3.141,7-7,7c-3.86,0-7-3.141-7-7C2.5,5.64,5.64,2.5,9.5,2.5 M9.5,1.5
	c-4.418,0-8,3.582-8,8c0,4.419,3.582,8,8,8c4.418,0,8-3.581,8-8C17.5,5.082,13.918,1.5,9.5,1.5L9.5,1.5z"/>
</svg>
