<?xml version="1.0" encoding="utf-8"?>
<!DOCTYPE svg PUBLIC "-//W3C//DTD SVG 1.1//EN" "http://www.w3.org/Graphics/SVG/1.1/DTD/svg11.dtd">
<svg version="1.1" id="icon-check" xmlns="http://www.w3.org/2000/svg" xmlns:xlink="http://www.w3.org/1999/xlink" x="0px" y="0px"
	 width="20px" height="20px" viewBox="-0.5 0.5 20 20" enable-background="new -0.5 0.5 20 20" xml:space="preserve">
<g id="Ebene_5">
	<path d="M9.5,1.5c-4.972,0-9,4.028-9,9c0,4.971,4.028,9,9,9c4.973,0,9-4.029,9-9C18.5,5.528,14.473,1.5,9.5,1.5z M1.559,10.5
		c0-1.999,0.748-3.822,1.971-5.22l11.191,11.191c-1.398,1.223-3.222,1.971-5.221,1.971C5.121,18.441,1.559,14.879,1.559,10.5z
		 M15.469,15.723L4.278,4.532C5.676,3.308,7.5,2.559,9.5,2.559c4.379,0,7.941,3.562,7.941,7.941
		C17.441,12.5,16.691,14.324,15.469,15.723z"/>
</g>
</svg>
