<?xml version="1.0" encoding="utf-8"?>
<!DOCTYPE svg PUBLIC "-//W3C//DTD SVG 1.1//EN" "http://www.w3.org/Graphics/SVG/1.1/DTD/svg11.dtd">
<svg version="1.1" id="icon-large-settings" xmlns="http://www.w3.org/2000/svg" xmlns:xlink="http://www.w3.org/1999/xlink" x="0px"
	 y="0px" width="25px" height="25px" viewBox="0 0 25 25" enable-background="new 0 0 25 25" xml:space="preserve">
<g>
	<path fill="#666666" d="M12.5,6h12C24.776,6,25,5.776,25,5.5S24.776,5,24.5,5h-12C12.224,5,12,5.224,12,5.5S12.224,6,12.5,6z"/>
	<path fill="#666666" d="M24.5,12h-6c-0.276,0-0.5,0.224-0.5,0.5s0.224,0.5,0.5,0.5h6c0.276,0,0.5-0.224,0.5-0.5S24.776,12,24.5,12z
		"/>
	<path fill="#666666" d="M24.5,19h-10c-0.276,0-0.5,0.224-0.5,0.5s0.224,0.5,0.5,0.5h10c0.276,0,0.5-0.224,0.5-0.5
		S24.776,19,24.5,19z"/>
	<path fill="#666666" d="M0.5,6h5.051C5.783,7.14,6.793,8,8,8c1.378,0,2.5-1.122,2.5-2.5S9.379,3,8,3C6.793,3,5.784,3.86,5.551,5
		H0.5C0.224,5,0,5.224,0,5.5S0.224,6,0.5,6z M8,4c0.827,0,1.5,0.673,1.5,1.5S8.828,7,8,7S6.5,6.328,6.5,5.5S7.173,4,8,4z"/>
	<path fill="#666666" d="M0.5,13h11.051c0.232,1.14,1.242,2,2.45,2c1.378,0,2.5-1.121,2.5-2.5S15.379,10,14,10
		c-1.207,0-2.217,0.86-2.449,2H0.5C0.224,12,0,12.224,0,12.5S0.224,13,0.5,13z M14,11c0.827,0,1.5,0.673,1.5,1.5
		c0,0.827-0.673,1.5-1.5,1.5c-0.827,0-1.5-0.673-1.5-1.5C12.5,11.673,13.173,11,14,11z"/>
	<path fill="#666666" d="M10,17c-1.207,0-2.217,0.86-2.449,2H0.5C0.224,19,0,19.224,0,19.5S0.224,20,0.5,20h7.051
		c0.232,1.14,1.242,2,2.449,2c1.378,0,2.5-1.121,2.5-2.5S11.379,17,10,17z M10,21c-0.827,0-1.5-0.673-1.5-1.5S9.173,18,10,18
		s1.5,0.673,1.5,1.5S10.828,21,10,21z"/>
</g>
</svg>
