<?xml version="1.0" encoding="utf-8"?>
<!DOCTYPE svg PUBLIC "-//W3C//DTD SVG 1.1//EN" "http://www.w3.org/Graphics/SVG/1.1/DTD/svg11.dtd">
<svg version="1.1" id="icon-small-edit" xmlns="http://www.w3.org/2000/svg" xmlns:xlink="http://www.w3.org/1999/xlink" x="0px" y="0px"
	 width="14px" height="14px" viewBox="0 0 14 14" enable-background="new 0 0 14 14" xml:space="preserve">
<path d="M8.883,2.167L1.507,9.55c-0.02,0.018-0.034,0.038-0.048,0.059C1.446,9.63,1.433,9.653,1.425,9.681l-1.404,3.854
	c-0.023,0.062-0.027,0.13-0.014,0.196c0.014,0.065,0.045,0.122,0.096,0.166c0.032,0.038,0.07,0.064,0.112,0.081
	C0.259,13.992,0.304,14,0.35,14c0.022,0,0.043-0.002,0.062-0.005c0.018-0.002,0.039-0.005,0.062-0.017l3.854-1.395
	c0.023-0.013,0.045-0.022,0.068-0.036c0.023-0.014,0.043-0.031,0.062-0.047l7.376-7.384L8.883,2.167z"/>
<path d="M12.826,4.126L13.39,3.56c0.196-0.195,0.347-0.42,0.452-0.673C13.948,2.633,14,2.368,14,2.089
	c0-0.279-0.052-0.546-0.158-0.801c-0.105-0.257-0.256-0.483-0.452-0.678c-0.195-0.196-0.422-0.346-0.673-0.452
	c-0.256-0.106-0.519-0.158-0.799-0.158c-0.278,0-0.544,0.052-0.798,0.158c-0.253,0.105-0.479,0.256-0.682,0.452L9.875,1.175
	L12.826,4.126z"/>
</svg>
