<?xml version="1.0" encoding="utf-8"?>
<!DOCTYPE svg PUBLIC "-//W3C//DTD SVG 1.1//EN" "http://www.w3.org/Graphics/SVG/1.1/DTD/svg11.dtd">
<svg version="1.1" id="icon-folder-large" xmlns="http://www.w3.org/2000/svg" xmlns:xlink="http://www.w3.org/1999/xlink" x="0px"
	 y="0px" width="80px" height="80px" viewBox="0 0 80 80" enable-background="new 0 0 80 80" xml:space="preserve">
<path fill="#FFFFFF" d="M72.5,21.5H38.419l-3.044-7.104C34.292,11.417,32.583,11.5,30.5,11.5h-22c-2.209,0-4,1.791-4,4v9v4v36
	c0,1.657,1.343,3,3,3h65c1.657,0,3-1.343,3-3v-40C75.5,22.843,74.157,21.5,72.5,21.5z"/>
<path opacity="0.1" d="M72.5,67.5h-65c-1.657,0-3-1.343-3-3v2c0,1.657,1.343,3,3,3h65c1.657,0,3-1.343,3-3v-2
	C75.5,66.157,74.157,67.5,72.5,67.5z"/>
<radialGradient id="SVGID_1_" cx="22.1665" cy="28.3335" r="66.4185" fx="13.0026" fy="23.6737" gradientUnits="userSpaceOnUse">
	<stop  offset="0.3111" style="stop-color:#489BE0;stop-opacity:0"/>
	<stop  offset="1" style="stop-color:#489BE0;stop-opacity:0.3"/>
</radialGradient>
<path opacity="0" fill="url(#SVGID_1_)" d="M72.5,21.5H38.419l-3.044-7.104C34.292,11.417,32.583,11.5,30.5,11.5h-22
	c-2.209,0-4,1.791-4,4v9v4v36c0,1.657,1.343,3,3,3h65c1.657,0,3-1.343,3-3v-40C75.5,22.843,74.157,21.5,72.5,21.5z"/>
</svg>
