<?xml version="1.0" encoding="utf-8"?>
<!DOCTYPE svg PUBLIC "-//W3C//DTD SVG 1.1//EN" "http://www.w3.org/Graphics/SVG/1.1/DTD/svg11.dtd">
<svg version="1.1" id="icon-warning" xmlns="http://www.w3.org/2000/svg" xmlns:xlink="http://www.w3.org/1999/xlink" x="0px" y="0px"
	 width="20px" height="20px" viewBox="0 0 20 20" enable-background="new 0 0 20 20" xml:space="preserve">
<g>
	<path fill="#FF062E" d="M19.707,9.293l-9-9C10.512,0.098,10.256,0,10,0S9.488,0.098,9.293,0.293l-9,9
		c-0.391,0.391-0.391,1.023,0,1.414l9,9C9.488,19.902,9.744,20,10,20s0.512-0.098,0.707-0.293l9-9
		C20.098,10.316,20.098,9.684,19.707,9.293z M10,19l-9-9l9-9l9,9L10,19z"/>
	<path fill="#FF062E" d="M9.992,12.751c-0.246,0-0.454,0.085-0.624,0.255s-0.255,0.376-0.255,0.618c0,0.277,0.089,0.493,0.267,0.647
		s0.386,0.231,0.624,0.231c0.234,0,0.439-0.078,0.615-0.234s0.264-0.371,0.264-0.645c0-0.242-0.087-0.448-0.261-0.618
		S10.238,12.751,9.992,12.751z"/>
	<path fill="#FF062E" d="M9.113,6.663c0,0.238,0.018,0.631,0.053,1.178l0.188,2.807c0.035,0.363,0.094,0.634,0.176,0.812
		s0.229,0.267,0.439,0.267c0.207,0,0.355-0.092,0.445-0.275s0.148-0.447,0.176-0.791l0.252-2.889
		c0.027-0.266,0.041-0.527,0.041-0.785c0-0.438-0.057-0.772-0.17-1.005s-0.338-0.349-0.674-0.349c-0.277,0-0.501,0.091-0.671,0.272
		S9.113,6.339,9.113,6.663z"/>
</g>
</svg>
