<?xml version="1.0" encoding="utf-8"?>
<!DOCTYPE svg PUBLIC "-//W3C//DTD SVG 1.1//EN" "http://www.w3.org/Graphics/SVG/1.1/DTD/svg11.dtd">
<svg version="1.1" id="icon-time" xmlns="http://www.w3.org/2000/svg" xmlns:xlink="http://www.w3.org/1999/xlink" x="0px" y="0px"
	 width="20px" height="20px" viewBox="0 0 20 20" enable-background="new 0 0 20 20" xml:space="preserve">
<path d="M14.5,10H10V5.5C10,5.224,9.776,5,9.5,5S9,5.224,9,5.5v5C9,10.775,9.224,11,9.5,11h5c0.275,0,0.5-0.225,0.5-0.5
	C15,10.224,14.775,10,14.5,10z"/>
<path d="M10,2.5c4.142,0,7.5,3.358,7.5,7.5s-3.358,7.5-7.5,7.5S2.5,14.142,2.5,10S5.858,2.5,10,2.5 M10,1.5
	c-4.687,0-8.5,3.813-8.5,8.5c0,4.687,3.813,8.5,8.5,8.5c4.687,0,8.5-3.813,8.5-8.5C18.5,5.313,14.687,1.5,10,1.5L10,1.5z"/>
</svg>
