<?xml version="1.0" encoding="utf-8"?>
<!DOCTYPE svg PUBLIC "-//W3C//DTD SVG 1.1//EN" "http://www.w3.org/Graphics/SVG/1.1/DTD/svg11.dtd">
<svg version="1.1" id="icon-folder-large" xmlns="http://www.w3.org/2000/svg" xmlns:xlink="http://www.w3.org/1999/xlink" x="0px"
	 y="0px" width="80px" height="80px" viewBox="0 0 80 80" enable-background="new 0 0 80 80" xml:space="preserve">
<path fill="#4091D2" d="M78.786,21.382C78.597,21.141,78.307,21,78,21H68v-7c0-0.552-0.447-1-1-1H26V8c0-0.552-0.448-1-1-1H2
	C1.448,7,1,7.448,1,8v55c0,0.005,0.002,0.008,0.002,0.013c0.001,0.114,0.028,0.225,0.067,0.331c0.01,0.026,0.018,0.052,0.03,0.076
	c0.045,0.097,0.1,0.189,0.176,0.269c0.003,0.003,0.007,0.004,0.01,0.007c0.085,0.088,0.187,0.156,0.299,0.209
	c0.009,0.004,0.015,0.012,0.024,0.016C1.729,63.971,1.861,64,2,64h66c0.461,0,0.862-0.315,0.972-0.763l10-41
	C79.044,21.939,78.976,21.624,78.786,21.382z M25,8v6h42v7H13.256c-0.45,0-0.845,0.301-0.964,0.735L2,59.223V8H25z M68,63H6.656H2
	l11.256-41H23h44h1h0.975H78L68,63z"/>
</svg>
