<?xml version="1.0" encoding="utf-8"?>
<!DOCTYPE svg PUBLIC "-//W3C//DTD SVG 1.1//EN" "http://www.w3.org/Graphics/SVG/1.1/DTD/svg11.dtd">
<svg version="1.1" id="icon-reply" xmlns="http://www.w3.org/2000/svg" xmlns:xlink="http://www.w3.org/1999/xlink" x="0px" y="0px"
	 width="20px" height="20px" viewBox="0 0 20 20" enable-background="new 0 0 20 20" xml:space="preserve">
<g>
	<path d="M12.326,3.929c1.91,1.544,3.776,3.051,5.674,4.583c-1.896,1.536-3.775,3.058-5.692,4.609c0-0.862,0-1.678,0-2.53
		c-0.32,0.023-0.616,0.032-0.91,0.068c-2.776,0.337-5.109,1.638-7.226,3.378C3.458,14.624,2,15.959,2,15.959
		s0.344-1.078,0.564-1.598c1.34-3.172,3.54-5.537,6.666-7.016c0.925-0.438,1.899-0.724,2.908-0.888
		c0.163-0.026,0.185-0.101,0.185-0.231c-0.001-0.68,0.001-1.359,0.003-2.039C12.326,4.12,12.326,4.053,12.326,3.929 M11.326,1.834
		v2.094v0.259c-0.001,0.468-0.003,0.938-0.003,1.407C10.43,5.788,9.585,6.072,8.803,6.442c-3.299,1.56-5.708,4.094-7.16,7.531
		c-0.235,0.554-0.581,1.637-0.596,1.683l-1.14,3.576l2.768-2.535c0.014-0.013,1.447-1.323,2.132-1.887
		c2.211-1.818,4.282-2.816,6.5-3.13v1.441v2.096l1.629-1.318l5.693-4.61l0.96-0.778l-0.962-0.777l-0.523-0.423l-5.149-4.16
		L11.326,1.834L11.326,1.834z"/>
</g>
</svg>
