<?xml version="1.0" encoding="utf-8"?>
<!-- Generator: Adobe Illustrator 16.0.4, SVG Export Plug-In . SVG Version: 6.00 Build 0)  -->
<!DOCTYPE svg PUBLIC "-//W3C//DTD SVG 1.1//EN" "http://www.w3.org/Graphics/SVG/1.1/DTD/svg11.dtd">
<svg version="1.1" id="Ebene_1" xmlns="http://www.w3.org/2000/svg" xmlns:xlink="http://www.w3.org/1999/xlink" x="0px" y="0px"
	 width="20px" height="20px" viewBox="0 0 20 20" enable-background="new 0 0 20 20" xml:space="preserve">
<path d="M3,3v2H1V3H3 M3,2H1C0.448,2,0,2.448,0,3v2c0,0.552,0.448,1,1,1h2c0.552,0,1-0.448,1-1V3C4,2.448,3.552,2,3,2L3,2z"/>
<path d="M3,9v2H1V9H3 M3,8H1C0.448,8,0,8.448,0,9v2c0,0.553,0.448,1,1,1h2c0.552,0,1-0.447,1-1V9C4,8.448,3.552,8,3,8L3,8z"/>
<path d="M3,15v2H1v-2H3 M3,14H1c-0.552,0-1,0.447-1,1v2c0,0.553,0.448,1,1,1h2c0.552,0,1-0.447,1-1v-2C4,14.447,3.552,14,3,14L3,14z
	"/>
<rect x="6" y="3" width="12" height="1"/>
<rect x="6" y="9" width="12" height="1"/>
<rect x="6" y="15" width="12" height="1"/>
</svg>
