<?xml version="1.0" encoding="utf-8"?>
<!DOCTYPE svg PUBLIC "-//W3C//DTD SVG 1.1//EN" "http://www.w3.org/Graphics/SVG/1.1/DTD/svg11.dtd">
<svg version="1.1" id="icon-edit-contrast" xmlns="http://www.w3.org/2000/svg" xmlns:xlink="http://www.w3.org/1999/xlink" x="0px" y="0px"
	 width="20px" height="20px" viewBox="0.5 20.5 20 20" enable-background="new 0.5 20.5 20 20" xml:space="preserve">
<path fill="#FFFFFF" d="M19.117,21.882c-0.256-0.255-0.59-0.382-0.924-0.382c-0.336,0-0.65,0.127-0.906,0.382L7.5,31.688V33.5h1.776
	l9.841-9.807C19.627,23.184,19.627,22.393,19.117,21.882z M18.501,23.014L8.915,32.5H8.5v-0.452l9.469-9.551
	c0.11-0.11,0.198-0.127,0.266-0.127c0.068,0,0.178,0.017,0.287,0.128c0.111,0.109,0.119,0.189,0.119,0.257
	S18.611,22.9,18.501,23.014z"/>
<polygon fill="#FFFFFF" points="16.5,27.5 16.5,38.5 3.5,38.5 3.5,24.5 13.5,24.5 13.5,23.5 2.5,23.5 2.5,39.5 17.5,39.5 17.5,27.5
	"/>
</svg>
