<?xml version="1.0" encoding="utf-8"?>
<!DOCTYPE svg PUBLIC "-//W3C//DTD SVG 1.1//EN" "http://www.w3.org/Graphics/SVG/1.1/DTD/svg11.dtd">
<svg version="1.1" id="icon-copy" xmlns="http://www.w3.org/2000/svg" xmlns:xlink="http://www.w3.org/1999/xlink" x="0px" y="0px"
	 width="20px" height="20px" viewBox="0 0 20 20" enable-background="new 0 0 20 20" xml:space="preserve">
<g>
	<polygon fill="#727272" points="15,4 15,5 17,5 17,18 7,18 7,17 6,17 6,18 6,19 18,19 18,5 18,4 	"/>
	<rect x="3" y="4" fill="#727272" width="1" height="1"/>
	<rect x="4" y="3" fill="#727272" width="1" height="1"/>
	<rect x="5" y="2" fill="#727272" width="1" height="1"/>
	<path fill="#727272" d="M14,15V2V1H6v1h1v4H3V5H2v10v1h12V15z M13,15H3V7h4h1V2h5V15z"/>
</g>
</svg>
