<?xml version="1.0" encoding="utf-8"?>
<!DOCTYPE svg PUBLIC "-//W3C//DTD SVG 1.1//EN" "http://www.w3.org/Graphics/SVG/1.1/DTD/svg11.dtd">
<svg version="1.1" id="icon-large-code" xmlns="http://www.w3.org/2000/svg" xmlns:xlink="http://www.w3.org/1999/xlink" x="0px" y="0px"
	 width="25px" height="25px" viewBox="0 0 25 25" enable-background="new 0 0 25 25" xml:space="preserve">
<g>
	<path fill="#666666" d="M5.604,18.761c-0.08-0.03-0.149-0.078-0.209-0.146L0.19,13.422C0.063,13.295,0,13.141,0,12.959
		c0-0.182,0.063-0.336,0.19-0.463l5.205-5.192c0.127-0.127,0.279-0.19,0.457-0.19s0.33,0.063,0.457,0.19S6.5,7.583,6.5,7.76
		S6.437,8.09,6.31,8.217l-4.735,4.748l4.735,4.736c0.127,0.127,0.19,0.279,0.19,0.457s-0.063,0.33-0.19,0.457
		c-0.06,0.067-0.129,0.115-0.209,0.146c-0.081,0.03-0.163,0.044-0.248,0.044S5.686,18.791,5.604,18.761z M8.925,18.786
		c-0.06-0.013-0.114-0.036-0.165-0.069c-0.152-0.102-0.25-0.24-0.292-0.413s-0.013-0.337,0.089-0.489l6.5-10.397
		c0.092-0.152,0.227-0.25,0.398-0.292c0.174-0.042,0.338-0.013,0.49,0.089c0.152,0.093,0.25,0.227,0.291,0.4
		c0.043,0.173,0.014,0.336-0.088,0.489L9.648,18.5c-0.06,0.102-0.138,0.178-0.235,0.229c-0.097,0.051-0.2,0.076-0.311,0.076
		C9.043,18.805,8.984,18.799,8.925,18.786z M18.604,18.761c-0.08-0.03-0.148-0.078-0.209-0.146
		c-0.127-0.127-0.189-0.279-0.189-0.457s0.062-0.33,0.189-0.457l4.736-4.736l-4.736-4.748c-0.127-0.127-0.189-0.279-0.189-0.457
		s0.062-0.33,0.189-0.457s0.279-0.19,0.457-0.19s0.33,0.063,0.457,0.19l5.205,5.192c0.127,0.127,0.191,0.281,0.191,0.463
		c0,0.182-0.064,0.336-0.191,0.463l-5.205,5.193c-0.059,0.067-0.129,0.115-0.209,0.146s-0.162,0.044-0.248,0.044
		C18.768,18.805,18.686,18.791,18.604,18.761z"/>
</g>
</svg>
