<?xml version="1.0" encoding="utf-8"?>
<!DOCTYPE svg PUBLIC "-//W3C//DTD SVG 1.1//EN" "http://www.w3.org/Graphics/SVG/1.1/DTD/svg11.dtd">
<svg version="1.1" id="icon-drag" xmlns="http://www.w3.org/2000/svg" xmlns:xlink="http://www.w3.org/1999/xlink" x="0px" y="0px"
	 width="20px" height="20px" viewBox="0 0 20 20" enable-background="new 0 0 20 20" xml:space="preserve">
<g>
	<rect x="-30" y="12" fill="#727272" width="1" height="5.5"/>
</g>
<line fill="none" stroke="#727272" stroke-miterlimit="10" x1="-29.5" y1="4" x2="-29.5" y2="13"/>
<g>
	<rect x="-28" y="10" fill="#727272" width="6" height="1"/>
</g>
<line fill="none" stroke="#727272" stroke-miterlimit="10" x1="-35" y1="10.5" x2="-27" y2="10.5"/>
<polygon fill="#727272" points="-32.7,16 -29.5,20 -26.3,16 "/>
<polygon fill="#727272" points="-32.7,5 -29.5,1 -26.3,5 "/>
<polygon fill="#727272" points="-35,13.7 -39,10.5 -35,7.3 "/>
<polygon fill="#727272" points="-24,13.7 -20,10.5 -24,7.3 "/>
<path fill="#727272" d="M11.736,14.431L10,16.172V2.891l1.736,1.742c0.118,0.115,0.267,0.172,0.418,0.172
	c0.152,0,0.305-0.057,0.42-0.172c0.229-0.229,0.229-0.604,0-0.833L9.98,1.207C9.869,1.095,9.718,1.031,9.562,1.031
	S9.256,1.095,9.145,1.207L6.551,3.798c-0.229,0.229-0.229,0.604,0,0.833c0.233,0.233,0.604,0.233,0.837,0L9,3.016v13.017
	L7.389,14.43c-0.233-0.229-0.607-0.229-0.837,0c-0.229,0.23-0.229,0.605,0,0.834l2.593,2.596c0.114,0.114,0.266,0.172,0.418,0.172
	s0.304-0.058,0.418-0.172l2.594-2.596c0.229-0.229,0.229-0.604,0-0.833C12.341,14.201,11.969,14.201,11.736,14.431z"/>
<path fill="#727272" d="M17.828,9.083l-2.593-2.592c-0.229-0.232-0.604-0.232-0.837,0c-0.23,0.229-0.23,0.604,0.167,1.001L16.073,9
	H2.918l1.684-1.675c0.23-0.229,0.23-0.604,0-0.834c-0.233-0.232-0.607-0.232-0.837,0L1.172,9.083C1.061,9.194,1,9.344,1,9.502
	c0,0.154,0.061,0.307,0.172,0.415l2.592,2.592c0.115,0.118,0.267,0.175,0.418,0.175s0.301-0.057,0.418-0.175
	c0.23-0.229,0.23-0.604,0-0.834L2.938,10h13.106l-1.646,1.675c-0.23,0.229-0.23,0.604,0,0.834c0.117,0.118,0.267,0.175,0.418,0.175
	c0.152,0,0.305-0.057,0.419-0.175l2.593-2.592C18.058,9.688,18.058,9.312,17.828,9.083z"/>
</svg>
