<?xml version="1.0" encoding="utf-8"?>
<!DOCTYPE svg PUBLIC "-//W3C//DTD SVG 1.1//EN" "http://www.w3.org/Graphics/SVG/1.1/DTD/svg11.dtd">
<svg version="1.1" id="icon-spam" xmlns="http://www.w3.org/2000/svg" xmlns:xlink="http://www.w3.org/1999/xlink" x="0px" y="0px"
	 width="20px" height="20px" viewBox="0 0 20 20" enable-background="new 0 0 20 20" xml:space="preserve">
<g>
	<path fill="#727272" d="M16.992,4.004c0.272,0,0.532,0.053,0.776,0.156s0.455,0.247,0.636,0.43c0.178,0.184,0.321,0.395,0.43,0.635
		c0.108,0.241,0.16,0.502,0.16,0.781v3.496c0,0.755-0.031,1.482-0.093,2.184c-0.062,0.699-0.153,1.363-0.272,1.991
		c-0.121,0.628-0.271,1.22-0.448,1.772c-0.181,0.554-0.388,1.064-0.621,1.533c-0.234,0.469-0.496,0.889-0.785,1.26
		c-0.291,0.371-0.603,0.684-0.935,0.938c-0.352,0.273-0.725,0.479-1.116,0.615C14.328,19.932,13.916,20,13.486,20h-5
		c-0.052,0-0.217-0.029-0.493-0.088s-0.63-0.237-1.06-0.537C6.661,19.18,6.39,18.95,6.123,18.688
		c-0.267-0.264-0.527-0.562-0.781-0.895c-0.254-0.332-0.503-0.697-0.747-1.1c-0.244-0.4-0.483-0.834-0.718-1.303
		c-0.501-0.996-0.92-1.834-1.255-2.511s-0.606-1.223-0.814-1.64s-0.358-0.719-0.449-0.903c-0.091-0.185-0.14-0.285-0.146-0.298
		C1.095,9.792,1.026,9.536,1.006,9.271c-0.02-0.264,0.005-0.52,0.073-0.767s0.179-0.478,0.332-0.688
		c0.153-0.211,0.344-0.385,0.571-0.521C2.205,7.158,2.439,7.073,2.69,7.041S3.194,7.023,3.449,7.09
		c0.254,0.071,0.485,0.188,0.693,0.352S4.52,7.807,4.649,8.047l1.338,2.334V3.008c0-0.279,0.054-0.54,0.161-0.781
		c0.107-0.24,0.251-0.451,0.43-0.635c0.179-0.183,0.391-0.324,0.635-0.43C7.458,1.057,7.716,1.006,7.99,1.006
		c0.208,0,0.407,0.029,0.596,0.088s0.361,0.145,0.518,0.254c0.137-0.391,0.376-0.713,0.718-0.967C10.163,0.127,10.55,0,10.987,0
		c0.437,0,0.828,0.127,1.171,0.381c0.346,0.254,0.586,0.576,0.723,0.967c0.156-0.109,0.33-0.195,0.519-0.254
		s0.389-0.088,0.596-0.088c0.273,0,0.533,0.053,0.777,0.156s0.455,0.247,0.635,0.43c0.178,0.184,0.32,0.395,0.424,0.635
		c0.105,0.241,0.156,0.502,0.156,0.781v1.27c0.15-0.09,0.311-0.158,0.479-0.204C16.636,4.025,16.81,4.004,16.992,4.004z
		 M17.988,9.502V6.006c0-0.279-0.099-0.518-0.293-0.713C17.5,5.098,17.267,5,16.992,5c-0.279,0-0.519,0.098-0.713,0.293
		c-0.195,0.195-0.293,0.434-0.293,0.713v3.496c0,0.137-0.05,0.254-0.146,0.352C15.743,9.952,15.625,10,15.488,10
		c-0.138,0-0.255-0.049-0.353-0.146c-0.098-0.097-0.146-0.215-0.146-0.352V3.008c0-0.279-0.099-0.518-0.293-0.713
		c-0.195-0.195-0.431-0.293-0.703-0.293c-0.279,0-0.519,0.098-0.713,0.293c-0.195,0.195-0.293,0.434-0.293,0.713v6.494
		c0,0.137-0.05,0.254-0.146,0.352C12.745,9.952,12.627,10,12.49,10c-0.138,0-0.254-0.049-0.353-0.146
		c-0.098-0.097-0.146-0.215-0.146-0.352v-7.5c0-0.273-0.099-0.508-0.293-0.703c-0.195-0.195-0.433-0.293-0.713-0.293
		c-0.273,0-0.509,0.098-0.703,0.293c-0.195,0.195-0.292,0.43-0.292,0.703v7.5c0,0.137-0.049,0.254-0.146,0.352
		C9.748,9.952,9.629,10,9.494,10C9.357,10,9.24,9.951,9.142,9.854C9.043,9.757,8.996,9.639,8.996,9.502V3.008
		c0-0.279-0.098-0.518-0.293-0.713C8.507,2.1,8.27,2.002,7.99,2.002c-0.273,0-0.508,0.098-0.703,0.293
		C7.091,2.49,6.994,2.729,6.994,3.008v7.812c0,0.332-0.049,0.594-0.146,0.785c-0.097,0.192-0.244,0.314-0.439,0.367
		c-0.195,0.051-0.383,0.017-0.562-0.107c-0.179-0.124-0.35-0.332-0.513-0.625L3.781,8.535h-0.01v-0.01
		C3.706,8.408,3.623,8.309,3.521,8.229C3.42,8.146,3.309,8.089,3.185,8.057C3.067,8.023,2.951,8.016,2.833,8.032
		C2.714,8.048,2.605,8.089,2.5,8.154c-0.234,0.137-0.388,0.347-0.463,0.63C1.962,9.066,1.987,9.336,2.11,9.59V9.6
		c0.176,0.353,0.366,0.734,0.571,1.147s0.477,0.962,0.815,1.646c0.338,0.685,0.762,1.533,1.27,2.549
		c0.261,0.516,0.515,0.968,0.762,1.357c0.247,0.391,0.483,0.729,0.708,1.012c0.225,0.282,0.437,0.52,0.635,0.707
		c0.198,0.188,0.376,0.342,0.532,0.459c0.319,0.241,0.576,0.39,0.771,0.444c0.195,0.056,0.303,0.083,0.323,0.083h4.99
		c0.404,0,0.77-0.076,1.1-0.229c0.328-0.153,0.623-0.35,0.883-0.586c0.262-0.237,0.49-0.504,0.689-0.797
		c0.197-0.293,0.369-0.578,0.512-0.858c0.215-0.437,0.406-0.913,0.572-1.431c0.166-0.519,0.305-1.071,0.414-1.66
		c0.111-0.59,0.193-1.215,0.25-1.875C17.961,10.906,17.988,10.218,17.988,9.502z"/>
</g>
</svg>
