<?xml version="1.0" encoding="utf-8"?>
<!DOCTYPE svg PUBLIC "-//W3C//DTD SVG 1.1//EN" "http://www.w3.org/Graphics/SVG/1.1/DTD/svg11.dtd">
<svg version="1.1" id="icon-copy" xmlns="http://www.w3.org/2000/svg" xmlns:xlink="http://www.w3.org/1999/xlink" x="0px" y="0px"
	 width="20px" height="20px" viewBox="0.5 -0.5 20 20" enable-background="new 0.5 -0.5 20 20" xml:space="preserve">
<g>
	<polygon points="15.5,3.5 15.5,4.5 17.5,4.5 17.5,17.5 7.5,17.5 7.5,16.5 6.5,16.5 6.5,17.5 6.5,18.5 18.5,18.5 18.5,4.5 18.5,3.5
			"/>
	<rect x="3.5" y="3.5" width="1" height="1"/>
	<rect x="4.5" y="2.5" width="1" height="1"/>
	<rect x="5.5" y="1.5" width="1" height="1"/>
	<path d="M14.5,14.5v-13v-1h-8v1h1v4h-4v-1h-1v10v1h12V14.5z M13.5,14.5h-10v-8h4h1v-5h5V14.5z"/>
</g>
</svg>
