<?xml version="1.0" encoding="utf-8"?>
<!DOCTYPE svg PUBLIC "-//W3C//DTD SVG 1.1//EN" "http://www.w3.org/Graphics/SVG/1.1/DTD/svg11.dtd">
<svg version="1.1" id="icon-info" xmlns="http://www.w3.org/2000/svg" xmlns:xlink="http://www.w3.org/1999/xlink" x="0px" y="0px"
	 width="20px" height="20px" viewBox="0 0 20 20" enable-background="new 0 0 20 20" xml:space="preserve">
<path fill="#727272" d="M10,1c4.963,0,9,4.037,9,9s-4.037,9-9,9c-4.962,0-9-4.037-9-9S5.038,1,10,1 M10,0C4.477,0,0,4.479,0,10
	s4.477,10,10,10c5.523,0,10-4.479,10-10S15.523,0,10,0L10,0z"/>
<g>
	<path fill="#727272" d="M12.088,11.494c-0.047,0.355-0.121,0.607-0.223,0.756c-0.328,0.467-0.785,0.878-1.373,1.232
		C9.951,13.818,9.498,13.991,9.134,14C8.378,14.01,8,13.637,8,12.88c0-0.205,0.033-0.429,0.098-0.672
		c0.233-0.699,0.513-1.586,0.84-2.659c0.056-0.215,0.084-0.406,0.084-0.574c0-0.271-0.08-0.479-0.238-0.629
		c0.411-0.15,0.77-0.226,1.078-0.226c0.504,0,0.756,0.22,0.756,0.657c0,0.132-0.022,0.281-0.07,0.449
		c-0.056,0.205-0.237,0.76-0.546,1.666c-0.233,0.699-0.378,1.217-0.434,1.553c-0.047,0.3,0.042,0.449,0.266,0.449
		c0.232,0,0.611-0.233,1.134-0.701c0.401-0.363,0.724-0.694,0.966-0.993c0.094-0.112,0.149-0.149,0.168-0.112
		C12.121,11.126,12.117,11.261,12.088,11.494z M11.529,5.712c0,0.28-0.148,0.515-0.441,0.7c-0.294,0.188-0.591,0.279-0.89,0.279
		c-0.215,0-0.397-0.051-0.546-0.153C9.475,6.427,9.386,6.268,9.386,6.062c0-0.289,0.154-0.533,0.462-0.729
		c0.271-0.168,0.554-0.252,0.854-0.252c0.215,0,0.407,0.054,0.575,0.161S11.529,5.507,11.529,5.712z"/>
</g>
</svg>
