<?xml version="1.0" encoding="utf-8"?>
<!DOCTYPE svg PUBLIC "-//W3C//DTD SVG 1.1//EN" "http://www.w3.org/Graphics/SVG/1.1/DTD/svg11.dtd">
<svg version="1.1" id="icon-home" xmlns="http://www.w3.org/2000/svg" xmlns:xlink="http://www.w3.org/1999/xlink" x="0px" y="0px"
	 width="20px" height="20px" viewBox="0 0 20 20" enable-background="new 0 0 20 20" xml:space="preserve">
<path fill="#727272" d="M17.282,8.5V3.707h-3V5.5L10.731,2L2,10.707l0.694,0.707l7.994-8l7.996,8l0.756-0.707L17.282,8.5z
	 M16.282,7.5l-1-1V4.707h1V7.5z"/>
<path fill="#727272" d="M16.782,10.707c-0.275,0-0.5,0.225-0.5,0.5v6.5h-3v-5h-5v5h-3v-6.5c0-0.275-0.224-0.5-0.5-0.5
	s-0.5,0.225-0.5,0.5v7.5h5v-5h3v5h5v-7.5C17.282,10.932,17.058,10.707,16.782,10.707z"/>
</svg>
