<?xml version="1.0" encoding="utf-8"?>
<!DOCTYPE svg PUBLIC "-//W3C//DTD SVG 1.1//EN" "http://www.w3.org/Graphics/SVG/1.1/DTD/svg11.dtd">
<svg version="1.1" id="icon-large-database" xmlns="http://www.w3.org/2000/svg" xmlns:xlink="http://www.w3.org/1999/xlink" x="0px"
	 y="0px" width="25px" height="25px" viewBox="0 0 25 25" enable-background="new 0 0 25 25" xml:space="preserve">
<path fill="#666666" d="M12.5,2C6.701,2,2,4.014,2,6.5v12.611C2,21.822,7.45,23.5,12.5,23.5S23,21.822,23,19.111V6.5
	C23,4.014,18.299,2,12.5,2z M12.5,3C18.387,3,22,5.039,22,6.5S18.387,10,12.5,10C6.614,10,3,7.962,3,6.5C3,5.039,6.614,3,12.5,3z
	 M12.5,22.5c-4.883,0-9.5-1.646-9.5-3.389v-2.114c1.801,1.58,5.758,2.503,9.5,2.503s7.699-0.923,9.5-2.503v2.114
	C22,20.854,17.383,22.5,12.5,22.5z M22,15.113c0,1.741-4.617,3.387-9.5,3.387c-4.883,0-9.5-1.646-9.5-3.387v-2.117
	c1.801,1.581,5.758,2.504,9.5,2.504s7.699-0.923,9.5-2.504V15.113z M22,11.111c0,1.742-4.617,3.389-9.5,3.389
	c-4.883,0-9.5-1.647-9.5-3.389V8.407C4.676,9.938,8.294,11,12.5,11s7.824-1.062,9.5-2.593V11.111z"/>
</svg>
