<?xml version="1.0" encoding="utf-8"?>
<!DOCTYPE svg PUBLIC "-//W3C//DTD SVG 1.1//EN" "http://www.w3.org/Graphics/SVG/1.1/DTD/svg11.dtd">
<svg version="1.1" id="icon-large-cache" xmlns="http://www.w3.org/2000/svg" xmlns:xlink="http://www.w3.org/1999/xlink" x="0px" y="0px"
	 width="25px" height="25px" viewBox="0 0 25 25" enable-background="new 0 0 25 25" xml:space="preserve">
<path fill="#666666" d="M18,1c-2.415,2.935-5,7-5,7h7L7,21l3-9H5c0,0,5.642-7.669,8-11H18 M20,8h0.005 M20.118,0H18h-5h-0.517
	l-0.299,0.422c-2.327,3.286-7.933,10.909-7.99,10.985L3.023,13H5h3.613l-2.562,7.684l-1.339,4.019l2.995-2.995l13-13L22.414,7
	h-2.409H20h-5.146c0.965-1.437,2.48-3.618,3.918-5.365L20.118,0L20.118,0z"/>
</svg>
