<?xml version="1.0" encoding="utf-8"?>
<!DOCTYPE svg PUBLIC "-//W3C//DTD SVG 1.1//EN" "http://www.w3.org/Graphics/SVG/1.1/DTD/svg11.dtd">
<svg version="1.1" id="icon-link" xmlns="http://www.w3.org/2000/svg" xmlns:xlink="http://www.w3.org/1999/xlink" x="0px" y="0px"
	 width="20px" height="20px" viewBox="0 0 20 20" enable-background="new 0 0 20 20" xml:space="preserve">
<path fill="#555555" d="M7.413,14.798c-0.391,0.391-1.023,0.391-1.414,0l-0.707-0.707c-0.391-0.391-0.391-1.023,0-1.414l3.339-3.339
	c-0.666-0.175-1.404-0.01-1.925,0.51L4.585,11.97c-0.779,0.779-0.78,2.048,0,2.828l0.707,0.707c0.78,0.78,2.049,0.78,2.828,0
	l2.121-2.121c0.521-0.521,0.687-1.259,0.511-1.925L7.413,14.798z"/>
<path fill="#555555" d="M15.505,5.292l-0.707-0.707c-0.78-0.78-2.049-0.78-2.828,0L9.849,6.706C9.327,7.227,9.162,7.965,9.338,8.631
	l3.339-3.339c0.391-0.391,1.023-0.391,1.414,0l0.707,0.707c0.391,0.391,0.391,1.023,0,1.414l-3.339,3.339
	c0.666,0.175,1.404,0.011,1.925-0.51l2.121-2.121C16.284,7.341,16.285,6.072,15.505,5.292z"/>
<path fill="#555555" d="M7.924,12.166c0.098,0.098,0.226,0.146,0.354,0.146s0.256-0.049,0.354-0.146l3.535-3.535
	c0.195-0.195,0.195-0.512,0-0.707s-0.512-0.195-0.707,0l-3.535,3.535C7.729,11.654,7.729,11.971,7.924,12.166z"/>
</svg>
