<?xml version="1.0" encoding="utf-8"?>
<!DOCTYPE svg PUBLIC "-//W3C//DTD SVG 1.1//EN" "http://www.w3.org/Graphics/SVG/1.1/DTD/svg11.dtd">
<svg version="1.1" id="icon-reply" xmlns="http://www.w3.org/2000/svg" xmlns:xlink="http://www.w3.org/1999/xlink" x="0px" y="0px"
	 width="20px" height="20px" viewBox="0 0 20 20" enable-background="new 0 0 20 20" xml:space="preserve">
<path fill="#727272" d="M7.264,3.096c0,0.123,0,0.19,0,0.258c0.002,0.681,0.004,1.359,0.003,2.039c0,0.131,0.021,0.205,0.185,0.231
	c1.009,0.164,1.983,0.45,2.908,0.888c3.127,1.479,5.326,3.844,6.666,7.016c0.221,0.52,0.564,1.598,0.564,1.598
	s-1.458-1.335-2.172-1.922c-2.116-1.74-4.449-3.041-7.226-3.378c-0.294-0.036-0.59-0.045-0.91-0.068c0,0.853,0,1.668,0,2.53
	C5.365,10.734,3.486,9.214,1.59,7.678C3.487,6.145,5.354,4.639,7.264,3.096 M8.264,1L6.635,2.316l-5.15,4.16L0.962,6.9L0,7.677
	l0.961,0.778l5.692,4.609l1.629,1.318v-2.096v-1.441c2.219,0.313,4.291,1.312,6.501,3.131c0.685,0.562,2.117,1.873,2.131,1.887
	l2.769,2.535l-1.14-3.576c-0.016-0.047-0.361-1.129-0.598-1.686c-1.451-3.435-3.859-5.969-7.158-7.529
	C10.005,5.238,9.16,4.954,8.266,4.762c0-0.471-0.001-0.941-0.003-1.41V3.096L8.264,1L8.264,1z"/>
</svg>
