<?xml version="1.0" encoding="utf-8"?>
<!DOCTYPE svg PUBLIC "-//W3C//DTD SVG 1.1//EN" "http://www.w3.org/Graphics/SVG/1.1/DTD/svg11.dtd">
<svg version="1.1" id="icon-large-pin" xmlns="http://www.w3.org/2000/svg" xmlns:xlink="http://www.w3.org/1999/xlink" x="0px"
	 y="0px" width="25px" height="25px" viewBox="0 0 25 25" enable-background="new 0 0 25 25" xml:space="preserve">
<g>
	<path fill="#656565" d="M12.576,3.047c-2.364,0-4.287,1.923-4.287,4.287c0,2.363,1.923,4.286,4.287,4.286
		c2.362,0,4.284-1.923,4.284-4.286C16.86,4.97,14.938,3.047,12.576,3.047z M12.576,10.62c-1.816,0-3.287-1.472-3.287-3.286
		c0-1.815,1.47-3.287,3.287-3.287c1.812,0,3.284,1.471,3.284,3.287C15.86,9.148,14.388,10.62,12.576,10.62z"/>
	<path fill="#656565" d="M18.689,3.184C17.312,1.179,15.06,0.019,12.507,0c-0.002,0-0.005,0-0.007,0s-0.005,0-0.007,0
		C9.941,0.019,7.688,1.179,6.311,3.184c-1.444,2.104-1.71,4.803-0.73,7.407c0.006,0.017,0.014,0.034,0.021,0.05l5.983,13.595
		c0.16,0.363,0.519,0.598,0.915,0.598s0.756-0.234,0.915-0.598l5.983-13.595c0.008-0.017,0.015-0.034,0.021-0.05
		C20.399,7.987,20.134,5.288,18.689,3.184z M18.483,10.239L12.5,23.834L6.517,10.239C4.738,5.516,7.752,1.035,12.5,1
		C17.248,1.035,20.262,5.516,18.483,10.239z"/>
</g>
</svg>
