<?xml version="1.0" encoding="utf-8"?>
<!DOCTYPE svg PUBLIC "-//W3C//DTD SVG 1.1//EN" "http://www.w3.org/Graphics/SVG/1.1/DTD/svg11.dtd">
<svg version="1.1" id="icon-settings" xmlns="http://www.w3.org/2000/svg" xmlns:xlink="http://www.w3.org/1999/xlink" x="0px" y="0px"
	 width="20px" height="20px" viewBox="0 0 20 20" enable-background="new 0 0 20 20" xml:space="preserve">
<path d="M11,2v2.09c0.91,0.154,1.749,0.51,2.471,1.025l1.479-1.479l1.414,1.414l-1.479,1.479C15.4,7.251,15.756,8.091,15.91,9H18v2
	h-2.09c-0.154,0.91-0.511,1.749-1.025,2.471l1.479,1.479l-1.414,1.414l-1.479-1.479C12.748,15.4,11.909,15.756,11,15.91V18H9v-2.09
	c-0.909-0.154-1.749-0.51-2.471-1.025l-1.479,1.479L3.636,14.95l1.479-1.479C4.6,12.749,4.244,11.909,4.09,11H2V9h2.09
	C4.244,8.091,4.6,7.251,5.115,6.529L3.636,5.05L5.05,3.636l1.479,1.479C7.251,4.601,8.09,4.244,9,4.09V2H11 M10,13
	c1.656,0,3-1.344,3-3c0-1.657-1.344-3-3-3s-3,1.343-3,3C7,11.656,8.344,13,10,13 M12,1h-1H9H8v1v1.297
	c-0.46,0.137-0.903,0.32-1.325,0.549L5.757,2.929L5.05,2.222L4.343,2.929L2.929,4.343L2.221,5.05l0.708,0.707l0.918,0.917
	C3.618,7.097,3.434,7.539,3.297,8H2H1v1v2v1h1h1.297c0.137,0.461,0.321,0.904,0.55,1.325l-0.917,0.918L2.222,14.95l0.707,0.707
	l1.415,1.414l0.708,0.707l0.707-0.707l0.917-0.918c0.421,0.229,0.864,0.413,1.325,0.55V18v1h1h2h1v-1v-1.297
	c0.461-0.138,0.903-0.32,1.325-0.55l0.917,0.918l0.707,0.707l0.707-0.707l1.414-1.414l0.707-0.707l-0.707-0.707l-0.917-0.918
	c0.229-0.422,0.412-0.864,0.55-1.325H18h1v-1V9V8h-1h-1.297c-0.137-0.461-0.32-0.904-0.55-1.325l0.918-0.918l0.707-0.707
	l-0.707-0.707l-1.414-1.414L14.95,2.222l-0.707,0.707l-0.918,0.918C12.903,3.618,12.461,3.434,12,3.297V2V1L12,1z M10,12
	c-1.103,0-2-0.897-2-2c0-1.103,0.897-2,2-2c1.103,0,2,0.897,2,2C12,11.103,11.103,12,10,12L10,12z"/>
</svg>
