<?xml version="1.0" encoding="utf-8"?>
<!DOCTYPE svg PUBLIC "-//W3C//DTD SVG 1.1//EN" "http://www.w3.org/Graphics/SVG/1.1/DTD/svg11.dtd">
<svg version="1.1" id="icon-reply" xmlns="http://www.w3.org/2000/svg" xmlns:xlink="http://www.w3.org/1999/xlink" x="0px" y="0px"
	 width="20px" height="20px" viewBox="0 0 20 20" enable-background="new 0 0 20 20" xml:space="preserve">
<path d="M7.674,3.929c0,0.124,0,0.191,0,0.259c0.002,0.68,0.004,1.359,0.003,2.039c0,0.131,0.021,0.205,0.185,0.231
	c1.009,0.164,1.983,0.45,2.908,0.888c3.126,1.479,5.326,3.844,6.666,7.016C17.656,14.881,18,15.959,18,15.959
	s-1.458-1.335-2.172-1.922c-2.116-1.74-4.449-3.041-7.226-3.378c-0.294-0.036-0.59-0.045-0.91-0.068c0,0.853,0,1.668,0,2.53
	C5.775,11.569,3.896,10.048,2,8.512C3.897,6.979,5.764,5.473,7.674,3.929 M8.674,1.834L7.045,3.151l-5.15,4.16L1.372,7.734
	L0.41,8.511l0.961,0.778l5.692,4.61l1.629,1.318v-2.096V11.68c2.219,0.313,4.29,1.312,6.501,3.13
	c0.685,0.563,2.117,1.874,2.131,1.887l2.769,2.535l-1.14-3.576c-0.015-0.046-0.361-1.129-0.598-1.685
	c-1.45-3.435-3.859-5.969-7.158-7.529c-0.782-0.37-1.627-0.654-2.521-0.847c0-0.47-0.001-0.94-0.003-1.41V3.929V1.834L8.674,1.834z"
	/>
</svg>
