<?xml version="1.0" encoding="utf-8"?>
<!DOCTYPE svg PUBLIC "-//W3C//DTD SVG 1.1//EN" "http://www.w3.org/Graphics/SVG/1.1/DTD/svg11.dtd">
<svg version="1.1" id="icon-home" xmlns="http://www.w3.org/2000/svg" xmlns:xlink="http://www.w3.org/1999/xlink" x="0px" y="0px"
	 width="20px" height="20px" viewBox="0 0 20 20" enable-background="new 0 0 20 20" xml:space="preserve">
<path d="M17,8.793V4h-3v1.793l-3.551-3.5L1.718,11l0.694,0.707l7.994-8l7.996,8L19.158,11L17,8.793z M16,7.793l-1-1V5h1V7.793z"/>
<path d="M16.5,11c-0.276,0-0.5,0.224-0.5,0.5V18h-3v-5H8v5H5v-6.5C5,11.224,4.776,11,4.5,11S4,11.224,4,11.5V19h5v-5h3v5h5v-7.5
	C17,11.224,16.776,11,16.5,11z"/>
</svg>
