<?xml version="1.0" encoding="utf-8"?>
<!DOCTYPE svg PUBLIC "-//W3C//DTD SVG 1.1//EN" "http://www.w3.org/Graphics/SVG/1.1/DTD/svg11.dtd">
<svg version="1.1" id="icon-handle" xmlns="http://www.w3.org/2000/svg" xmlns:xlink="http://www.w3.org/1999/xlink" x="0px"
	 y="0px" width="20px" height="20px" viewBox="0 0 20 20" enable-background="new 0 0 20 20" xml:space="preserve">
<path fill="#727272" d="M12.736,14.431L11,16.172V2.891l1.736,1.742c0.118,0.115,0.267,0.172,0.418,0.172
	c0.152,0,0.305-0.057,0.42-0.172c0.229-0.229,0.229-0.604,0-0.833L10.98,1.207c-0.111-0.111-0.263-0.175-0.418-0.175
	s-0.307,0.064-0.418,0.175L7.551,3.798c-0.229,0.229-0.229,0.604,0,0.833c0.233,0.233,0.604,0.233,0.837,0L10,3.016v13.017
	L8.389,14.43c-0.233-0.229-0.607-0.229-0.837,0c-0.229,0.23-0.229,0.605,0,0.834l2.593,2.596c0.114,0.114,0.266,0.172,0.418,0.172
	s0.304-0.058,0.418-0.172l2.594-2.596c0.229-0.229,0.229-0.604,0-0.833C13.341,14.201,12.969,14.201,12.736,14.431z"/>
<path fill="#727272" d="M18.828,9.083l-2.593-2.592c-0.229-0.232-0.604-0.232-0.837,0c-0.23,0.229-0.23,0.604,0.167,1.001L17.073,9
	H3.918l1.684-1.675c0.23-0.229,0.23-0.604,0-0.834c-0.233-0.232-0.607-0.232-0.837,0L2.172,9.083C2.061,9.194,2,9.344,2,9.502
	c0,0.154,0.061,0.307,0.172,0.415l2.592,2.592c0.115,0.118,0.267,0.175,0.418,0.175s0.301-0.057,0.418-0.175
	c0.23-0.229,0.23-0.604,0-0.834L3.938,10h13.106l-1.646,1.675c-0.23,0.229-0.23,0.604,0,0.834c0.117,0.118,0.267,0.175,0.418,0.175
	c0.152,0,0.305-0.057,0.419-0.175l2.593-2.592C19.058,9.688,19.058,9.312,18.828,9.083z"/>
</svg>
