<?xml version="1.0" encoding="utf-8"?>
<!DOCTYPE svg PUBLIC "-//W3C//DTD SVG 1.1//EN" "http://www.w3.org/Graphics/SVG/1.1/DTD/svg11.dtd">
<svg version="1.1" id="icon-thumbnails" xmlns="http://www.w3.org/2000/svg" xmlns:xlink="http://www.w3.org/1999/xlink" x="0px"
	 y="0px" width="20px" height="20px" viewBox="0.5 20.5 20 20" enable-background="new 0.5 20.5 20 20" xml:space="preserve">
<g>
	<g>
		<path fill="#727272" d="M8.5,24.5v4h-4v-4H8.5 M9.5,23.5h-6v6h6V23.5L9.5,23.5z"/>
	</g>
</g>
<g>
	<g>
		<path fill="#727272" d="M16.5,24.5v4h-4v-4H16.5 M17.5,23.5h-6v6h6V23.5L17.5,23.5z"/>
	</g>
</g>
<g>
	<g>
		<path fill="#727272" d="M8.5,32.5v4h-4v-4H8.5 M9.5,31.5h-6v6h6V31.5L9.5,31.5z"/>
	</g>
</g>
<g>
	<path fill="#727272" d="M16.5,32.5v4h-4v-4H16.5 M17.5,31.5h-6v6h6V31.5L17.5,31.5z"/>
</g>
</svg>
