<?xml version="1.0" encoding="utf-8"?>
<!DOCTYPE svg PUBLIC "-//W3C//DTD SVG 1.1//EN" "http://www.w3.org/Graphics/SVG/1.1/DTD/svg11.dtd">
<svg version="1.1" id="icon-permission" xmlns="http://www.w3.org/2000/svg" xmlns:xlink="http://www.w3.org/1999/xlink" x="0px"
	 y="0px" width="20px" height="20px" viewBox="0 0 20 20" enable-background="new 0 0 20 20" xml:space="preserve">
<path d="M17,7H6V5.643C6,3.634,7.634,2,9.644,2c1.337,0,2.564,0.731,3.204,1.907c0.291,0.538,0.438,1.121,0.438,1.735
	c0,0.276,0.224,0.5,0.5,0.5s0.5-0.224,0.5-0.5c0-0.771-0.193-1.536-0.56-2.212C12.912,1.931,11.348,1,9.644,1
	C7.083,1,5,3.083,5,5.643V7H3C2.448,7,2,7.448,2,8v10c0,0.553,0.448,1,1,1h14c0.553,0,1-0.447,1-1V8C18,7.448,17.553,7,17,7z M17,18
	H3V8h14V18z"/>
</svg>
