<?xml version="1.0" encoding="utf-8"?>
<!DOCTYPE svg PUBLIC "-//W3C//DTD SVG 1.1//EN" "http://www.w3.org/Graphics/SVG/1.1/DTD/svg11.dtd">
<svg version="1.1" id="icon-folder-large" xmlns="http://www.w3.org/2000/svg" xmlns:xlink="http://www.w3.org/1999/xlink" x="0px"
	 y="0px" width="80px" height="80px" viewBox="-0.5 -0.5 80 80" enable-background="new -0.5 -0.5 80 80" xml:space="preserve">
<path fill="#4091D2" d="M31.884,15.7c0.676,0,1.301,0.291,1.73,0.8l4.02,7.951L37.911,25h0.615h4.953h24.563
	c0.804,0,1.457,0.648,1.457,1.446v35.432c0,0.797-0.64,1.422-1.457,1.422H10.947c-0.811,0-1.447-0.625-1.447-1.422V27.459v-9.497
	c0-1.247,1.016-2.262,2.264-2.262H31.884 M31.884,14.7h-20.12C9.96,14.7,8.5,16.159,8.5,17.962v9.497v34.419
	c0,1.356,1.095,2.422,2.447,2.422h57.096c1.361,0,2.457-1.065,2.457-2.422V26.446c0-1.354-1.096-2.446-2.457-2.446H43.479h-4.953
	l-4.067-8.046C33.843,15.163,32.893,14.7,31.884,14.7L31.884,14.7z"/>
</svg>
