<?xml version="1.0" encoding="utf-8"?>
<!DOCTYPE svg PUBLIC "-//W3C//DTD SVG 1.1//EN" "http://www.w3.org/Graphics/SVG/1.1/DTD/svg11.dtd">
<svg version="1.1" id="icon-asset" xmlns="http://www.w3.org/2000/svg" xmlns:xlink="http://www.w3.org/1999/xlink" x="0px" y="0px"
	 width="20px" height="20px" viewBox="0 0 20 20" enable-background="new 0 0 20 20" xml:space="preserve">
<g>
	<path d="M11.521,20c-1.481,0-2.645-0.428-3.435-1.272C6.906,17.466,7,15.749,7,15.677V3.34c0-0.027-0.062-1.368,0.865-2.352
		C8.482,0.333,9.378,0,10.516,0c1.137,0,2.02,0.332,2.639,0.987C14.082,1.973,14,3.318,14,3.375v11.388
		c0,0.836-0.555,2.395-2.489,2.395c-0.787,0-1.417-0.234-1.861-0.698C8.973,15.754,9,14.783,9,14.742V7.497
		c0-0.276,0.224-0.5,0.5-0.5s0.5,0.224,0.5,0.5v7.266c0,0.022-0.002,0.617,0.381,1.01c0.248,0.256,0.625,0.385,1.125,0.385
		c1.426,0,1.494-1.262,1.494-1.405V3.345c0-0.037,0.052-1.012-0.581-1.678C11.999,1.224,11.361,1,10.516,1
		C9.668,1,9.021,1.225,8.6,1.667C7.968,2.331,8,3.303,8,3.312V15.71c0,0.045-0.062,1.401,0.823,2.341
		C9.416,18.681,10.326,19,11.516,19c1.188,0,2.086-0.319,2.68-0.949C15.08,17.111,15,15.755,15,15.741V7.497
		c0-0.276,0.224-0.5,0.5-0.5s0.5,0.224,0.5,0.5v8.213c0,0.039,0.113,1.756-1.067,3.018C14.143,19.572,13.001,20,11.521,20z"/>
</g>
</svg>
