<?xml version="1.0" encoding="utf-8"?>
<!DOCTYPE svg PUBLIC "-//W3C//DTD SVG 1.1//EN" "http://www.w3.org/Graphics/SVG/1.1/DTD/svg11.dtd">
<svg version="1.1" id="icon-large-lock-file" xmlns="http://www.w3.org/2000/svg" xmlns:xlink="http://www.w3.org/1999/xlink" x="0px"
	 y="0px" width="25px" height="25px" viewBox="0 0 25 25" enable-background="new 0 0 25 25" xml:space="preserve">
<path fill-rule="evenodd" clip-rule="evenodd" fill="#666666" d="M0,0.262C0.157,0.044,0.374,0,0.632,0.001
	C4.399,0.007,8.166,0.007,11.933,0c0.249,0,0.416,0.084,0.588,0.258c1.583,1.596,3.173,3.185,4.767,4.77
	c0.148,0.146,0.217,0.292,0.215,0.5c-0.008,1.328-0.004,2.656-0.002,3.984c0,0.111,0,0.221,0,0.345c-0.285,0-0.541,0-0.822,0
	c0-1.338,0-2.664,0-4.025c-0.113,0-0.203,0-0.295,0c-1.381,0-2.76,0-4.141,0c-0.444,0-0.57-0.126-0.57-0.573
	c-0.001-1.363,0-2.725,0-4.088c0-0.103,0-0.205,0-0.323c-3.62,0-7.216,0-10.828,0c0,6.938,0,13.868,0,20.824
	c3.355,0,6.701,0,10.064,0c0,0.28,0,0.536,0,0.83c-0.094,0-0.186,0-0.277,0c-3.342,0-6.683-0.003-10.025,0.005
	c-0.255,0-0.455-0.058-0.606-0.262C0,14.917,0,7.589,0,0.262z M12.507,4.985c1.19,0,2.351,0,3.437,0
	c-1.135-1.134-2.299-2.297-3.437-3.435C12.507,2.654,12.507,3.812,12.507,4.985z"/>
<path fill-rule="evenodd" clip-rule="evenodd" fill="#666666" d="M14.428,25.005c-0.219-0.156-0.262-0.373-0.262-0.632
	c0.008-2.377,0.006-4.754,0.006-7.131c0-0.438,0.131-0.569,0.574-0.568c0.494,0,0.986,0,1.467,0c0.051-0.45,0.055-0.888,0.152-1.303
	c0.297-1.255,0.986-2.22,2.225-2.688c1.408-0.532,2.971,0.126,3.777,1.548c0.363,0.64,0.549,1.325,0.549,2.062
	c0,0.112,0,0.225,0,0.381c0.102,0,0.191,0,0.283,0c0.441,0,0.885-0.003,1.328,0.002c0.309,0.003,0.471,0.156,0.471,0.461
	c0.002,2.465,0.006,4.929-0.01,7.393c-0.002,0.159-0.16,0.317-0.246,0.476C21.305,25.005,17.867,25.005,14.428,25.005z
	 M15.008,24.157c3.068,0,6.107,0,9.146,0c0-2.226,0-4.433,0-6.639c-3.061,0-6.1,0-9.146,0
	C15.008,19.738,15.008,21.939,15.008,24.157z M17.094,16.656c1.676,0,3.326,0,4.984,0c0.049-0.713-0.031-1.386-0.365-2.007
	c-0.447-0.829-1.135-1.3-2.09-1.313c-0.977-0.013-1.689,0.446-2.154,1.291C17.125,15.254,17.041,15.935,17.094,16.656z"/>
<path fill-rule="evenodd" clip-rule="evenodd" fill="#666666" d="M19.172,21.653c0-0.165-0.008-0.33,0.002-0.494
	c0.018-0.266-0.023-0.481-0.229-0.696c-0.311-0.324-0.232-0.757,0.129-1.073c0.34-0.297,0.738-0.28,1.068,0.044
	c0.334,0.329,0.379,0.74,0.061,1.061c-0.176,0.176-0.211,0.352-0.207,0.574c0.008,0.442,0.004,0.885,0.002,1.327
	c-0.002,0.309-0.156,0.497-0.406,0.501c-0.258,0.003-0.418-0.191-0.42-0.515c0-0.121,0-0.243,0-0.364S19.172,21.774,19.172,21.653z"
	/>
</svg>
