<?xml version="1.0" encoding="utf-8"?>
<!DOCTYPE svg PUBLIC "-//W3C//DTD SVG 1.1//EN" "http://www.w3.org/Graphics/SVG/1.1/DTD/svg11.dtd">
<svg version="1.1" id="icon-users" xmlns="http://www.w3.org/2000/svg" xmlns:xlink="http://www.w3.org/1999/xlink" x="0px" y="0px"
	 width="20px" height="20px" viewBox="0 0 20 20" enable-background="new 0 0 20 20" xml:space="preserve">
<g>
	<path d="M14.688,16.387c0.078,0.026,0.169,0.072,0.273,0.137c0.104,0.065,0.201,0.137,0.293,0.215
		c0.091,0.078,0.176,0.176,0.254,0.293s0.117,0.241,0.117,0.371v1.562c0,0.286-0.104,0.533-0.312,0.742
		c-0.209,0.208-0.456,0.312-0.742,0.312H1.055c-0.287,0-0.534-0.104-0.742-0.312C0.104,19.498,0,19.251,0,18.965v-1.562
		c0-0.391,0.352-0.742,1.055-1.055l4.023-2.188c-0.651-0.547-1.14-1.282-1.465-2.207c-0.326-0.924-0.488-1.751-0.488-2.48V6.816
		c0-0.859,0.494-1.686,1.484-2.48c0.989-0.794,2.063-1.191,3.223-1.191c1.158,0,2.227,0.391,3.203,1.172s1.465,1.615,1.465,2.5
		v2.656c0,0.808-0.15,1.66-0.449,2.559c-0.3,0.898-0.775,1.608-1.426,2.129l3.945,2.188L14.688,16.387z M14.375,17.637
		c-0.104-0.052-0.195-0.104-0.273-0.156c-0.053-0.025-0.092-0.039-0.117-0.039l-3.945-2.188c-0.391-0.208-0.605-0.54-0.645-0.996
		c-0.039-0.455,0.11-0.813,0.449-1.074c0.494-0.391,0.853-0.95,1.074-1.68c0.221-0.729,0.332-1.406,0.332-2.031V6.816
		c0-0.494-0.358-1.021-1.074-1.582c-0.717-0.56-1.491-0.84-2.324-0.84c-0.834,0-1.621,0.287-2.363,0.859
		C4.746,5.827,4.375,6.348,4.375,6.816v2.656c0,0.6,0.13,1.27,0.391,2.012c0.26,0.742,0.625,1.309,1.094,1.699
		c0.364,0.261,0.527,0.619,0.488,1.074c-0.039,0.456-0.254,0.788-0.645,0.996l-4.062,2.188c-0.026,0-0.053,0.014-0.078,0.039
		c-0.104,0.053-0.209,0.117-0.312,0.195v1.094h13.125V17.637z M19.219,13.34c0.156,0.078,0.325,0.209,0.508,0.391
		C19.908,13.913,20,14.096,20,14.277v1.562c0,0.287-0.104,0.534-0.312,0.742c-0.209,0.209-0.456,0.312-0.742,0.312h-2.07
		c-0.183-0.625-0.404-1.041-0.664-1.25h2.539v-1.094c-0.104-0.078-0.195-0.143-0.273-0.195c-0.053,0-0.092-0.013-0.117-0.039
		l-4.023-2.188c-0.391-0.208-0.605-0.533-0.645-0.977c-0.039-0.442,0.123-0.807,0.488-1.094c0.494-0.391,0.859-0.95,1.094-1.68
		c0.234-0.729,0.352-1.406,0.352-2.031V3.73c0-0.494-0.365-1.028-1.094-1.602c-0.729-0.572-1.523-0.859-2.383-0.859
		c-0.886,0-1.68,0.273-2.383,0.82C9.531,2.012,9.01,1.947,8.203,1.895C8.672,1.348,9.264,0.898,9.98,0.547
		c0.716-0.352,1.438-0.527,2.168-0.527c1.172,0,2.252,0.397,3.242,1.191c0.989,0.795,1.484,1.635,1.484,2.52v2.617
		c0,0.808-0.156,1.66-0.469,2.559s-0.795,1.608-1.445,2.129l3.984,2.188L19.219,13.34z"/>
</g>
</svg>
