<?xml version="1.0" encoding="utf-8"?>
<!DOCTYPE svg PUBLIC "-//W3C//DTD SVG 1.1//EN" "http://www.w3.org/Graphics/SVG/1.1/DTD/svg11.dtd">
<svg version="1.1" id="pagekit-logo-login" xmlns="http://www.w3.org/2000/svg" xmlns:xlink="http://www.w3.org/1999/xlink" x="0px" y="0px"
	 width="160px" height="42px" viewBox="0 0 160 42" enable-background="new 0 0 160 42" xml:space="preserve">
<g>
	<path fill="#FFFFFF" d="M62.109,27.312c-2.615,0-4.521-0.979-5.719-2.938h-0.109l0.047,1.312c0.042,0.771,0.062,1.615,0.062,2.531
		v6.469h-1.547V10.016h1.312l0.297,2.422h0.094c1.167-1.833,3.031-2.75,5.594-2.75c2.291,0,4.039,0.753,5.242,2.258
		c1.203,1.505,1.805,3.695,1.805,6.57c0,2.792-0.633,4.957-1.898,6.492C66.023,26.545,64.297,27.312,62.109,27.312z M62.078,25.938
		c1.739,0,3.086-0.645,4.039-1.938c0.953-1.291,1.43-3.098,1.43-5.421c0-4.989-1.803-7.484-5.406-7.484
		c-1.979,0-3.433,0.544-4.359,1.633c-0.927,1.089-1.391,2.862-1.391,5.32v0.5c0,2.656,0.445,4.552,1.336,5.687
		C58.617,25.371,60.067,25.938,62.078,25.938z"/>
	<path fill="#FFFFFF" d="M84.203,27l-0.391-2.688h-0.125c-0.854,1.094-1.732,1.867-2.633,2.32c-0.901,0.453-1.967,0.68-3.195,0.68
		c-1.667,0-2.964-0.426-3.891-1.281c-0.928-0.854-1.391-2.035-1.391-3.547c0-1.656,0.689-2.942,2.07-3.859
		c1.38-0.917,3.377-1.401,5.992-1.453l3.234-0.094v-1.125c0-1.614-0.328-2.833-0.984-3.656c-0.656-0.823-1.714-1.234-3.172-1.234
		c-1.573,0-3.203,0.438-4.891,1.312l-0.578-1.344c1.864-0.875,3.708-1.312,5.531-1.312c1.864,0,3.258,0.484,4.18,1.453
		s1.383,2.479,1.383,4.531V27H84.203z M77.953,25.906c1.812,0,3.242-0.518,4.289-1.555c1.047-1.035,1.57-2.476,1.57-4.32V18.36
		l-2.969,0.125c-2.386,0.115-4.086,0.487-5.102,1.117c-1.016,0.63-1.523,1.612-1.523,2.945c0,1.062,0.325,1.889,0.977,2.477
		C75.846,25.613,76.766,25.906,77.953,25.906z"/>
	<path fill="#FFFFFF" d="M104.094,10.016v1.078l-3.516,0.219c0.938,1.167,1.406,2.448,1.406,3.844c0,1.636-0.545,2.961-1.633,3.977
		c-1.089,1.016-2.55,1.523-4.383,1.523c-0.771,0-1.312-0.031-1.625-0.094c-0.615,0.323-1.084,0.703-1.406,1.141
		c-0.323,0.437-0.484,0.902-0.484,1.39c0,0.543,0.205,0.938,0.617,1.188c0.411,0.25,1.102,0.375,2.07,0.375h2.969
		c1.844,0,3.255,0.373,4.234,1.117c0.979,0.746,1.469,1.847,1.469,3.305c0,1.791-0.727,3.174-2.18,4.148s-3.523,1.461-6.211,1.461
		c-2.136,0-3.789-0.412-4.961-1.234s-1.758-1.969-1.758-3.438c0-1.166,0.361-2.135,1.086-2.906c0.724-0.77,1.705-1.297,2.945-1.578
		c-0.511-0.219-0.92-0.527-1.227-0.93c-0.308-0.4-0.461-0.861-0.461-1.383c0-1.135,0.724-2.135,2.172-3
		c-0.99-0.406-1.761-1.044-2.312-1.914c-0.553-0.87-0.828-1.867-0.828-2.992c0-1.698,0.539-3.06,1.617-4.086
		c1.078-1.026,2.533-1.539,4.367-1.539c1.114,0,1.979,0.109,2.594,0.328H104.094z M90.344,29.875c0,2.334,1.734,3.5,5.203,3.5
		c4.458,0,6.688-1.422,6.688-4.266c0-1.021-0.35-1.76-1.047-2.219c-0.698-0.457-1.828-0.688-3.391-0.688h-2.781
		C91.9,26.203,90.344,27.428,90.344,29.875z M91.641,15.313c0,1.312,0.398,2.331,1.195,3.055c0.797,0.724,1.861,1.086,3.195,1.086
		c1.416,0,2.502-0.359,3.258-1.078c0.755-0.719,1.133-1.76,1.133-3.125c0-1.448-0.389-2.534-1.164-3.258
		c-0.776-0.724-1.862-1.086-3.258-1.086c-1.354,0-2.42,0.388-3.195,1.164C92.028,12.847,91.641,13.928,91.641,15.313z"/>
	<path fill="#FFFFFF" d="M114.438,27.312c-2.469,0-4.394-0.76-5.773-2.281c-1.381-1.52-2.07-3.65-2.07-6.39
		c0-2.708,0.666-4.877,2-6.508c1.333-1.63,3.13-2.445,5.391-2.445c2,0,3.578,0.698,4.734,2.094c1.156,1.396,1.734,3.292,1.734,5.688
		v1.25h-12.234c0.021,2.333,0.564,4.115,1.633,5.343c1.067,1.23,2.596,1.844,4.586,1.844c0.969,0,1.82-0.066,2.555-0.203
		c0.734-0.135,1.664-0.426,2.789-0.875v1.406c-0.959,0.418-1.844,0.701-2.656,0.852C116.312,27.237,115.416,27.312,114.438,27.312z
		 M113.984,11.063c-1.636,0-2.948,0.539-3.938,1.617c-0.99,1.078-1.568,2.633-1.734,4.664h10.5c0-1.969-0.428-3.508-1.281-4.617
		C116.677,11.618,115.494,11.063,113.984,11.063z"/>
	<path fill="#FFFFFF" d="M126.656,19.547l8.672-9.531h1.875l-6.688,7.25L137.781,27h-1.859l-6.453-8.578l-2.781,2.531V27h-1.547
		V2.688h1.547v12.188l-0.109,4.672H126.656z"/>
	<path fill="#FFFFFF" d="M140.406,5.297c0-1,0.328-1.5,0.984-1.5c0.322,0,0.575,0.13,0.758,0.391
		c0.182,0.261,0.273,0.63,0.273,1.109c0,0.469-0.092,0.839-0.273,1.109c-0.183,0.271-0.436,0.406-0.758,0.406
		C140.734,6.813,140.406,6.308,140.406,5.297z M142.172,27h-1.547V10.016h1.547V27z"/>
	<path fill="#FFFFFF" d="M152.344,25.938c0.979,0,1.833-0.082,2.562-0.25v1.25c-0.75,0.25-1.615,0.375-2.594,0.375
		c-1.5,0-2.607-0.4-3.32-1.203c-0.714-0.801-1.07-2.062-1.07-3.781V11.36h-2.516v-0.906l2.516-0.703l0.781-3.844h0.797v4.109h4.984
		v1.344H149.5v10.75c0,1.303,0.229,2.266,0.688,2.891C150.646,25.625,151.364,25.938,152.344,25.938z"/>
</g>
<polygon fill="#FFFFFF" points="0,0 0,42 17,42 17,34 8,34 8,8 26,8 26,26 17,26 17,34 34,34 34,0 0,0 "/>
</svg>
