<?xml version="1.0" encoding="utf-8"?>
<!DOCTYPE svg PUBLIC "-//W3C//DTD SVG 1.1//EN" "http://www.w3.org/Graphics/SVG/1.1/DTD/svg11.dtd">
<svg version="1.1" id="pagekit-logo-login" xmlns="http://www.w3.org/2000/svg" xmlns:xlink="http://www.w3.org/1999/xlink" x="0px"
	 y="0px" width="155px" height="42px" viewBox="0 0 155 42" enable-background="new 0 0 155 42" xml:space="preserve">
<polygon fill="#FFFFFF" points="0,2 0,42 16,42 16,36 6,36 6,8 26,8 26,30 16,30 16,36 32,36 32,2 "/>
<g>
	<path fill="#FFFFFF" d="M56.296,27.678c-3.516,0-5.069-2.405-5.477-3.108v9.065H48.71V10.509h1.924l0.185,2.96
		c0.185-0.37,1.961-3.293,5.846-3.293c4.44,0,7.216,3.737,7.216,8.732C63.881,23.903,60.736,27.678,56.296,27.678z M56.296,11.915
		c-3.331,0-5.551,3.182-5.551,6.994c0,3.774,2.035,6.993,5.366,6.993c3.33,0,5.55-3.182,5.55-6.993
		C61.661,15.134,59.626,11.915,56.296,11.915z"/>
	<path fill="#FFFFFF" d="M77.94,27.345c0,0-0.37-1.11-0.37-2.22c-0.999,1.295-2.774,2.553-5.55,2.553s-5.181-1.628-5.181-5.069
		s2.96-4.552,4.255-4.921c1.295-0.37,3.552-0.703,6.402-0.703v-1.296c0-2.775-1.962-3.774-4.182-3.774
		c-2.22,0-4.033,0.814-4.995,1.517l-0.851-1.628c1.258-0.777,3.33-1.628,5.735-1.628c2.405,0,3.849,0.703,4.736,1.48
		c0.889,0.777,1.665,1.998,1.665,4.588v7.771c0,1.665,0.37,2.59,0.74,3.33H77.94z M77.497,18.612c-0.926,0-3.294,0.185-4.366,0.37
		c-1.074,0.185-4.071,0.776-4.071,3.552s2.035,3.479,3.515,3.479c1.48,0,3.812-0.888,4.922-3.108V18.612z"/>
	<path fill="#FFFFFF" d="M96.996,31.045c-0.926,1.295-2.961,2.775-6.476,2.775c-3.516,0-5.81-1.591-6.18-1.961l1.036-1.592
		c0.37,0.37,2.627,1.702,5.144,1.702c2.516,0,3.959-0.925,4.662-1.812c0.703-0.889,1.185-2.442,1.185-4.848v-1.48
		c-0.111,0.223-1.592,3.331-5.847,3.331c-4.256,0-7.03-3.516-7.03-8.511c0-4.996,3.33-8.474,7.4-8.474s5.328,2.886,5.477,3.293
		l0.369-2.96h1.739v13.876C98.476,28.085,97.921,29.75,96.996,31.045z M91.187,11.915c-3.256,0-5.477,3.035-5.477,6.735
		s2.035,6.734,5.255,6.734c3.256,0,5.476-3.034,5.476-6.734S94.405,11.915,91.187,11.915z"/>
	<path fill="#FFFFFF" d="M105.135,19.204c0,3.886,1.998,6.623,5.551,6.623c3.552,0,5.365-1.998,5.365-1.998l1.036,1.443
		c0,0-2.146,2.405-6.587,2.405s-7.585-3.293-7.585-8.732c0-5.477,3.33-8.77,7.585-8.77c4.256,0,6.957,3.293,6.957,7.918v1.11
		H105.135z M110.426,11.915c-3.626,0-5.105,3.219-5.291,5.625h10.176C115.311,14.764,114.016,11.915,110.426,11.915z"/>
	<path fill="#FFFFFF" d="M132.626,27.345l-6.401-8.695l-2.405,2.294v6.401h-2.109V3.108h2.109v15.542l8.066-8.141h2.775l-7.03,6.771
		l7.585,10.064H132.626z"/>
	<path fill="#FFFFFF" d="M139.618,6.364c-0.925,0-1.702-0.74-1.702-1.665c0-0.925,0.74-1.702,1.665-1.702s1.702,0.74,1.702,1.665
		C141.283,5.587,140.543,6.364,139.618,6.364z M138.545,27.345V10.509h2.109v16.836H138.545z"/>
	<path fill="#FFFFFF" d="M149.2,12.174v9.806c0,2.035,0.26,2.812,0.814,3.33c0.592,0.518,1.295,0.629,2.035,0.629
		s1.628-0.259,1.628-0.259l0.296,1.665c-0.555,0.185-1.665,0.37-2.59,0.37c-1.295,0-2.405-0.37-3.219-1.295
		c-0.852-0.926-1.073-2.221-1.073-4.44v-9.806h-2.554v-1.665h2.554l0.296-4.811h1.812v4.811h4.959v1.665H149.2z"/>
</g>
</svg>
