<?xml version="1.0" encoding="utf-8"?>
<!DOCTYPE svg PUBLIC "-//W3C//DTD SVG 1.1//EN" "http://www.w3.org/Graphics/SVG/1.1/DTD/svg11.dtd">
<svg version="1.1" id="finder-file" xmlns="http://www.w3.org/2000/svg" xmlns:xlink="http://www.w3.org/1999/xlink" x="0px"
	 y="0px" width="50px" height="50px" viewBox="0 0 50 50" enable-background="new 0 0 50 50" xml:space="preserve">
<path fill="#E0E0E0" d="M38,22v18c0,0.55-0.45,1-1,1H14c-0.55,0-1-0.45-1-1V11c0-0.55,0.45-1,1-1h12V8H13c-1.1,0-2,0.9-2,2v31
	c0,1.1,0.9,2,2,2h25c1.1,0,2-0.9,2-2V22H38z"/>
<path fill="#E0E0E0" d="M40,20H29c-0.55,0-1-0.45-1-1V8L40,20z"/>
<rect x="17" y="18" fill="#E0E0E0" width="8" height="2"/>
<rect x="17" y="23" fill="#E0E0E0" width="17" height="2"/>
<rect x="17" y="28" fill="#E0E0E0" width="17" height="2"/>
<rect x="17" y="33" fill="#E0E0E0" width="12" height="2"/>
</svg>
