<?xml version="1.0" encoding="utf-8"?>
<!DOCTYPE svg PUBLIC "-//W3C//DTD SVG 1.1//EN" "http://www.w3.org/Graphics/SVG/1.1/DTD/svg11.dtd">
<svg version="1.1" id="icon-menus" xmlns="http://www.w3.org/2000/svg" xmlns:xlink="http://www.w3.org/1999/xlink" x="0px" y="0px"
	 width="50px" height="50px" viewBox="0 0 50 50" enable-background="new 0 0 50 50" xml:space="preserve">
<linearGradient id="SVGID_1_" gradientUnits="userSpaceOnUse" x1="284.6914" y1="-343.6787" x2="310.5115" y2="-396.3023" gradientTransform="matrix(1 0 0 -1 -272.5996 -344.9902)">
	<stop  offset="0" style="stop-color:#8FCE50"/>
	<stop  offset="1" style="stop-color:#83BE4A"/>
</linearGradient>
<path fill="url(#SVGID_1_)" d="M49,44c0,1.657-1.343,3-3,3H4c-1.656,0-3-1.343-3-3V6c0-1.656,1.344-3,3-3h42c1.657,0,3,1.344,3,3V44
	z"/>
<path fill="#78AA43" d="M49,25v19c0,1.66-1.34,3-3,3H24L12,35v-4h4l-4-4v-4h4l-4-4v-4h27L49,25z"/>
<rect x="12" y="15" fill="#FFFFFF" width="27" height="4"/>
<polygon fill="#73A040" points="39,20 13,20 12,19 39,19 "/>
<polygon fill="#73A040" points="39,28 13,28 12,27 39,27 "/>
<polygon fill="#73A040" points="39,36 13,36 12,35 39,35 "/>
<rect x="12" y="23" fill="#FFFFFF" width="27" height="4"/>
<rect x="12" y="31" fill="#FFFFFF" width="27" height="4"/>
</svg>