<?xml version="1.0" encoding="utf-8"?>
<!DOCTYPE svg PUBLIC "-//W3C//DTD SVG 1.1//EN" "http://www.w3.org/Graphics/SVG/1.1/DTD/svg11.dtd">
<svg version="1.1" id="icon-themes" xmlns="http://www.w3.org/2000/svg" xmlns:xlink="http://www.w3.org/1999/xlink" x="0px"
	 y="0px" width="50px" height="50px" viewBox="0 0 50 50" enable-background="new 0 0 50 50" xml:space="preserve">
<path fill="#85949D" d="M24.774,17.22L18.59,27.775c0.324-0.555,1.137-0.002,1.983-0.121l3.896-6.591
	c0.186-0.313,0.587-0.417,0.9-0.231l14.69,8.686c0.313,0.184,0.417,0.586,0.229,0.898l-3.467,5.865
	c0.744,0.4,1.282,1.168,1.019,1.635l5.825-10.172l0,0c0.537-1.053,0.17-1.48-0.276-2.178c-0.437-0.674-1.179-1.596-2.272-3.505
	c-1.097-1.909-1.06-3.8,0.371-5.473c0.891-1.038,4.104-3.725,4.104-3.725c0.266-0.243,0.518-0.513,0.752-0.802
	c0.236-0.292,0.454-0.607,0.654-0.943c0.428-0.723,0.834-1.397,1.109-2.154c1.381-3.695,1.244-7.128-1.009-8.46l-0.021-0.012
	c-2.271-1.344-5.36,0.183-7.938,3.172c-0.529,0.604-0.91,1.273-1.338,1.997c-0.62,1.049-0.92,2.076-1.114,3.199
	c-0.266,1.315-0.634,3.477-0.952,4.321c-0.775,2.061-2.404,3.012-4.6,2.977c-2.197-0.035-3.35-0.231-4.145-0.287
	c-0.892-0.062-1.367-0.088-2.115,1.17C24.892,17.051,24.779,17.215,24.774,17.22z M44.639,4.862
	c0.896,0.532,1.195,1.689,0.666,2.587c-0.531,0.896-1.689,1.193-2.588,0.663c-0.896-0.528-1.193-1.688-0.664-2.584
	C42.584,4.632,43.74,4.333,44.639,4.862z"/>
<linearGradient id="SVGID_1_" gradientUnits="userSpaceOnUse" x1="270.0352" y1="-381.041" x2="311.0342" y2="-382.5409" gradientTransform="matrix(1 0 0 -1 -272.5996 -344.9902)">
	<stop  offset="0" style="stop-color:#C91FAC"/>
	<stop  offset="0.4873" style="stop-color:#FC2E10"/>
	<stop  offset="1" style="stop-color:#FEBF06"/>
</linearGradient>
<path fill="url(#SVGID_1_)" d="M14.057,35.449l3.394-5.738c1.066-1.805,1.773-0.938,3.046-1.084c1.383-0.158,1.842-1.5,2.88-0.889
	c0.78,0.463-0.162,3.449,1.181,4.242c1.243,0.734,3-1.701,4.08-1.063c1.175,0.693-1.019,5.131,0.53,6.045
	c1.686,0.996,4.553-4.061,5.775-3.34c0.94,0.559,0.229,1.465,0.506,2.604c0.28,1.141,2.703,1.193,1.063,3.967l-3.738,6.32
	c-0.184,0.311-0.64,0.244-0.95,0.057L14.236,36.174C13.925,35.988,13.873,35.76,14.057,35.449z"/>
<linearGradient id="SVGID_2_" gradientUnits="userSpaceOnUse" x1="276.9072" y1="-388.0088" x2="310.4073" y2="-388.0088" gradientTransform="matrix(1 0 0 -1 -272.5996 -344.9902)">
	<stop  offset="0" style="stop-color:#C91FAC"/>
	<stop  offset="0.4873" style="stop-color:#FC2E10"/>
	<stop  offset="1" style="stop-color:#FEBF06"/>
</linearGradient>
<path fill="url(#SVGID_2_)" d="M30.382,47.775c-5.308,1.289-11.943,1.289-11.943,1.289c-9.418,0-16.635-3.135-16.635-6.479
	c0-2.535,4.403-4.715,10.651-5.613L30.382,47.775z"/>
</svg>
