<?xml version="1.0" encoding="utf-8"?>
<!DOCTYPE svg PUBLIC "-//W3C//DTD SVG 1.1//EN" "http://www.w3.org/Graphics/SVG/1.1/DTD/svg11.dtd">
<svg version="1.1" id="icon-urlaliases" xmlns="http://www.w3.org/2000/svg" xmlns:xlink="http://www.w3.org/1999/xlink" x="0px"
	 y="0px" width="50px" height="50px" viewBox="0 0 50 50" enable-background="new 0 0 50 50" xml:space="preserve">
<g>
	<linearGradient id="SVGID_1_" gradientUnits="userSpaceOnUse" x1="273.1953" y1="-384.3682" x2="318.82" y2="-354.712" gradientTransform="matrix(1 0 0 -1 -272.5996 -344.9902)">
		<stop  offset="0" style="stop-color:#568FE6"/>
		<stop  offset="0.2947" style="stop-color:#5C9AEA"/>
		<stop  offset="0.8184" style="stop-color:#6AB9F6"/>
		<stop  offset="1" style="stop-color:#70C5FB"/>
	</linearGradient>
	<path fill="url(#SVGID_1_)" d="M40,23v-5h-4c-4.26,0-7.07,3.63-11.2,9.609C20.79,33.42,16.25,40,8.25,40H1v-8h7.25
		c3.54,0,6.13-3.38,9.97-8.94C22.24,17.24,27.24,10,36,10h4V5l9,9L40,23z"/>
</g>
<g>
	<path fill="#DFDFDF" d="M20.37,16.44c-1.54,1.83-2.89,3.8-4.15,5.62c-0.25,0.36-0.49,0.71-0.74,1.06C12.99,19.87,10.88,18,8.25,18
		H1v-8h7.25C13.5,10,17.27,12.84,20.37,16.44z"/>
	<path fill="#DFDFDF" d="M40,45v-5h-4c-5.46,0-9.46-2.81-12.67-6.35c0.87-1.15,1.68-2.33,2.47-3.48c0.811-1.17,1.57-2.26,2.3-3.24
		C30.67,30.15,32.96,32,36,32h4v-5l9,9L40,45z"/>
</g>
</svg>