<?xml version="1.0" encoding="utf-8"?>
<!DOCTYPE svg PUBLIC "-//W3C//DTD SVG 1.1//EN" "http://www.w3.org/Graphics/SVG/1.1/DTD/svg11.dtd">
<svg version="1.1" id="icon-widgets" xmlns="http://www.w3.org/2000/svg" xmlns:xlink="http://www.w3.org/1999/xlink" x="0px"
	 y="0px" width="50px" height="50px" viewBox="0 0 50 50" enable-background="new 0 0 50 50" xml:space="preserve">
<path fill="#FFAF43" d="M24,23c0,1.104-0.896,2-2,2H2c-1.104,0-2-0.896-2-2V5c0-1.104,0.896-2,2-2h20c1.104,0,2,0.896,2,2V23z"/>
<path fill="#72C0F6" d="M48,23c0,1.104-0.896,2-2,2H29c-1.104,0-2-0.896-2-2V9c0-1.104,0.896-2,2-2h17c1.104,0,2,0.896,2,2V23z"/>
<path fill="#56A7EA" d="M47.41,24.41C47.05,24.779,46.55,25,46,25H29c-1.1,0-2-0.9-2-2V9c0-1.1,0.9-2,2-2h1L47.41,24.41z"/>
<path fill="#5EACE8" d="M48,44c0,1.104-0.896,2-2,2H29c-1.104,0-2-0.896-2-2V30c0-1.104,0.896-2,2-2h17c1.104,0,2,0.896,2,2V44z"/>
<path fill="#6DBBF2" d="M24,44c0,1.104-0.896,2-2,2H5c-1.104,0-2-0.896-2-2V30c0-1.104,0.896-2,2-2h17c1.104,0,2,0.896,2,2V44z"/>
<path fill="#53A4E6" d="M24,30v14c0,1.1-0.9,2-2,2h-5.01L3,32v-2c0-1.1,0.9-2,2-2h17C23.1,28,24,28.9,24,30z"/>
</svg>