<?xml version="1.0" encoding="utf-8"?>
<!DOCTYPE svg PUBLIC "-//W3C//DTD SVG 1.1//EN" "http://www.w3.org/Graphics/SVG/1.1/DTD/svg11.dtd">
<svg version="1.1" id="icon-extensions" xmlns="http://www.w3.org/2000/svg" xmlns:xlink="http://www.w3.org/1999/xlink" x="0px"
	 y="0px" width="50px" height="50px" viewBox="0 0 50 50" enable-background="new 0 0 50 50" xml:space="preserve">
<polygon fill="#42EFE2" points="13,7 25,0 37,7 37,20 25,27 13,20 "/>
<linearGradient id="SVGID_1_" gradientUnits="userSpaceOnUse" x1="579.2109" y1="801.1113" x2="574.0808" y2="812.8143" gradientTransform="matrix(1 0 0 1 -545.1992 -790.9805)">
	<stop  offset="0" style="stop-color:#3DE6D0"/>
	<stop  offset="1" style="stop-color:#3BD0C8"/>
</linearGradient>
<polygon fill="url(#SVGID_1_)" points="37,7 37,20 25,27 25,14 "/>
<polygon fill="#47FFCF" points="37,7 25,14 13,7 25,0 "/>
<linearGradient id="SVGID_2_" gradientUnits="userSpaceOnUse" x1="560.1826" y1="837.5693" x2="555.1822" y2="819.8181" gradientTransform="matrix(1 0 0 1 -545.1992 -790.9805)">
	<stop  offset="0" style="stop-color:#4FB6FB"/>
	<stop  offset="1" style="stop-color:#50B4FD"/>
</linearGradient>
<polygon fill="url(#SVGID_2_)" points="0,29 12,22 24,29 24,43 12,50 0,43 "/>
<polygon fill="#4598DB" points="24,29 24,43 12,50 12,36 "/>
<polygon fill="#7DD4FF" points="24,29 12,36 0,29 12,22 "/>
<linearGradient id="SVGID_3_" gradientUnits="userSpaceOnUse" x1="580.8936" y1="821.9395" x2="587.6434" y2="836.689" gradientTransform="matrix(1 0 0 1 -545.1992 -790.9805)">
	<stop  offset="0" style="stop-color:#39D7F5"/>
	<stop  offset="1" style="stop-color:#34D1FF"/>
</linearGradient>
<polygon fill="url(#SVGID_3_)" points="26,29 38,22 50,29 50,43 38,50 26,43 "/>
<polygon fill="#31BBDB" points="50,29 50,43 38,50 38,36 "/>
<polygon fill="#6AF1FE" points="50,29 38,36 26,29 38,22 "/>
</svg>