<?xml version="1.0" encoding="utf-8"?>
<!DOCTYPE svg PUBLIC "-//W3C//DTD SVG 1.1//EN" "http://www.w3.org/Graphics/SVG/1.1/DTD/svg11.dtd">
<svg version="1.1" id="icon-hello" xmlns="http://www.w3.org/2000/svg" xmlns:xlink="http://www.w3.org/1999/xlink" x="0px"
	 y="0px" width="50px" height="50px" viewBox="0 0 50 50" enable-background="new 0 0 50 50" xml:space="preserve">
<radialGradient id="SVGID_1_" cx="293.7148" cy="-362.1709" r="32.8887" gradientTransform="matrix(1 0 0 -1 -272.5996 -344.9902)" gradientUnits="userSpaceOnUse">
	<stop  offset="0" style="stop-color:#97C4E2"/>
	<stop  offset="0.6804" style="stop-color:#66B0E2"/>
	<stop  offset="0.8046" style="stop-color:#65AEDF"/>
	<stop  offset="0.8849" style="stop-color:#61A7D7"/>
	<stop  offset="0.9527" style="stop-color:#5A9CC8"/>
	<stop  offset="0.9557" style="stop-color:#5A9BC7"/>
</radialGradient>
<circle fill="url(#SVGID_1_)" cx="25" cy="25" r="23"/>
<path fill="#71B3D0" d="M47.688,22.423c-0.744,0.351-1.142,2.468-1.801,3.13c-0.762,0.76-1.572-0.452-2.039-2.501
	c-0.469-2.047-1.859-2.601-2.935-2.298c-0.899,0.254-1.55,2.708-0.963,4.055c0.586,1.345-3.444,3.496-3.737,5.657
	c-0.293,2.165-2.263,8.427-4.486,9.07c-2.223,0.644-3.205-4.39-3.324-7.897c-0.115-3.512-1.449-3.24-4.397-4.39
	c-3.061-1.19-2.396-6.161-1.284-8.21c1.111-2.047,4.398-2.666,5.836-2.075c0.998,0.409,2.354,2.562,5.453,1.45
	c2.172-0.778-0.818-2.69-2.517-3.451c-1.696-0.761-3.452-0.059-5.207,1.111c-1.755,1.17-2.104-0.351-1.579-1.053
	s2.632-0.877,2.34-1.757c-0.293-0.876-0.818-2.397,0.409-2.69c1.229-0.293,0.644,0.877,0.765,1.814
	c0.12,0.935,1.811,0.058,4.209-0.877c2.398-0.938,0.643-1.405-0.408-1.054c-1.054,0.352-1.99,0.525-1.99-0.293
	s0.248-1.481,2.304-1.912c2.319-0.487,2.085,0.858,5.099,0.742c1.114-0.043,1.739-0.164,2.489-0.271
	C43.95,12.163,46.779,16.968,47.688,22.423z"/>
<path fill="#71B3D0" d="M19.234,36.063c-0.169,0.614-1.441,3.336-2.101,6.541C16.973,43.369,16.62,46,16.613,46h-0.008
	c-0.253,0-0.506-0.001-0.759-0.107c-0.154-0.063-0.3-0.026-0.453-0.104c-0.184-0.078-0.368-0.109-0.544-0.202
	c-0.046-0.022-0.092-0.021-0.139-0.051c-0.56-0.269-1.104-0.562-1.632-0.884c-0.224-0.139-0.438-0.271-0.652-0.416
	c-0.123-0.076-0.237-0.149-0.353-0.227c-0.122-0.085-0.238-0.16-0.354-0.244c-0.168-0.123-0.429-0.299-0.629-0.451
	c-0.068-0.047-0.13-0.092-0.183-0.129c0,0-0.009-0.009-0.009-0.017c0,0,0,0-0.008-0.007c-0.114-0.277-0.575-3.053-0.528-3.543
	c0.191-2.107-0.667-1.733-1.334-3.273c-0.675-1.548-1.541-1.785-0.966-3.474c0.575-1.687,1.548-2.438,0.69-2.858
	C7.893,29.6,7.624,29.875,6.95,29.225c-0.668-0.66-0.238-0.943-0.613-1.082c-0.384-0.139-0.668-0.613-1.572-0.936
	c-0.836-0.307-1.679,0-2.745-1.38C2.007,25.553,2,25.275,2,25c0-2.545,6.217-8.993,6.547-9.369c0.338-0.375,3.857,1.688,4.478,1.74
	c0.621,0.046-1.671,0.698-3.051,2.2c-1.388,1.496-1.533,3.796-1.479,4.64c0.045,0.843-0.575-1.081-1.771-1.312
	c-1.189-0.237-2.53-0.192-2.959,0.414c-0.43,0.613,0.099,3.473,1.05,3.144c0.958-0.33,1.288-1.073,1.718-1.027
	c0.43,0.046-0.185,0.888,0,1.495c0.191,0.612,0.483,0.237,0.958,0.612c0.475,0.367,0.047,1.542,1.005,1.871
	c0.95,0.328,1.334,0.046,1.908-0.469c0.575-0.514,3.104-0.467,4.294,1.074c1.196,1.549,2.392,0.797,2.959,2.115
	c0.575,1.311,1.342,0.422,2.2,1.495C20.715,34.706,19.564,34.799,19.234,36.063z"/>
<path fill="#71B3D0" d="M7.298,24.693c0.716-0.383,1.479-0.143,2.147,0.335c0.669,0.477,2.435,0.811,2.435,0.811
	c-2.529,0.239-2.529,0.239-2.529,0.239c-1.098-0.787-0.478-0.571-1.098-0.787C7.632,25.075,7.298,24.693,7.298,24.693z"/>
<radialGradient id="SVGID_2_" cx="295.1973" cy="-363.6021" r="20.9795" gradientTransform="matrix(1 0 0 -1 -272.5996 -344.9902)" gradientUnits="userSpaceOnUse">
	<stop  offset="0.1867" style="stop-color:#C6FFBD"/>
	<stop  offset="0.3685" style="stop-color:#C2FCBB"/>
	<stop  offset="0.5679" style="stop-color:#B4F5B3"/>
	<stop  offset="0.7756" style="stop-color:#9EE8A8"/>
	<stop  offset="0.9879" style="stop-color:#80D797"/>
	<stop  offset="1" style="stop-color:#7ED696"/>
</radialGradient>
<path fill="url(#SVGID_2_)" d="M47.688,21.196c-0.744,0.351-1.142,2.468-1.801,3.129c-0.762,0.76-1.289-0.468-1.757-2.517
	c-0.468-2.047-2.106-2.397-3.217-2.282c-1.113,0.119-2.226,3.746-1.64,5.092c0.586,1.346-3.041,2.458-3.336,4.621
	c-0.293,2.165-1.987,8.426-4.211,9.069c-2.224,0.646-2.69-4.389-2.811-7.897c-0.115-3.511-1.93-3.335-4.913-4.39
	c-2.984-1.053-1.405-6.024-0.293-8.073c1.11-2.047,3.407-2.802,4.845-2.211c0.998,0.409,2.354,2.563,5.453,1.451
	c2.172-0.78-0.818-2.692-2.517-3.452c-1.696-0.76-3.452-0.059-5.207,1.111c-1.755,1.17-2.104-0.352-1.579-1.054
	s2.632-0.876,2.34-1.756c-0.293-0.876-0.818-2.397,0.409-2.69c1.229-0.293,0.644,0.878,0.765,1.814
	c0.12,0.935,1.811,0.058,4.209-0.877C34.827,9.348,33.07,8.88,32.02,9.23c-1.053,0.353-1.99,0.526-1.99-0.292
	s0.248-1.481,2.305-1.912c2.318-0.487,2.085,0.858,5.1,0.741c1.113-0.042,1.738-0.163,2.488-0.27
	C43.95,10.937,46.779,15.741,47.688,21.196z"/>
<radialGradient id="SVGID_3_" cx="295.1973" cy="-363.6011" r="20.9807" gradientTransform="matrix(1 0 0 -1 -272.5996 -344.9902)" gradientUnits="userSpaceOnUse">
	<stop  offset="0.1867" style="stop-color:#C6FFBD"/>
	<stop  offset="0.3685" style="stop-color:#C2FCBB"/>
	<stop  offset="0.5679" style="stop-color:#B4F5B3"/>
	<stop  offset="0.7756" style="stop-color:#9EE8A8"/>
	<stop  offset="0.9879" style="stop-color:#80D797"/>
	<stop  offset="1" style="stop-color:#7ED696"/>
</radialGradient>
<path fill="url(#SVGID_3_)" d="M23.486,6.71c0,0-2.004,0.735-2.721,0.831c-0.715,0.095-1.096,0.907-1.432,1.146
	c-0.333,0.238-1.336,1.24-1.336,1.622c0,0.382,0.096,1.051-0.381,1.002c-0.477-0.048-1.528-0.715-2.005-1.766
	c-0.478-1.05-0.478-1.719,0-1.957c0.477-0.237,0.334-1.574,0.048-2.052c-0.082-0.138,0.908-0.39,2.195-1.003
	c1.066-0.507,2.097-1.961,3.149-2.1c0.886-0.116,1.221,1.104,1.767,1.433c0.717,0.43,1.623,0.238,1.623,0.238L23.486,6.71z"/>
<radialGradient id="SVGID_4_" cx="295.2021" cy="-363.606" r="20.9872" gradientTransform="matrix(1 0 0 -1 -272.5996 -344.9902)" gradientUnits="userSpaceOnUse">
	<stop  offset="0.1867" style="stop-color:#C6FFBD"/>
	<stop  offset="0.3685" style="stop-color:#C2FCBB"/>
	<stop  offset="0.5679" style="stop-color:#B4F5B3"/>
	<stop  offset="0.7756" style="stop-color:#9EE8A8"/>
	<stop  offset="0.9879" style="stop-color:#80D797"/>
	<stop  offset="1" style="stop-color:#7ED696"/>
</radialGradient>
<path fill="url(#SVGID_4_)" d="M10.315,8.118c-0.065-0.205-0.143-0.416-0.235-0.622c0.439-0.375,0.895-0.733,1.362-1.077
	c0.175,0.383,0.539,1.558,1.593,1.598c1.24,0.05-0.429,0.908-0.835,1.433c-0.405,0.526-1.503,0.764-1.885,0
	C9.934,8.687,10.601,9.03,10.315,8.118z"/>
<radialGradient id="SVGID_5_" cx="295.1973" cy="-363.6025" r="20.9805" gradientTransform="matrix(1 0 0 -1 -272.5996 -344.9902)" gradientUnits="userSpaceOnUse">
	<stop  offset="0.1867" style="stop-color:#C6FFBD"/>
	<stop  offset="0.3685" style="stop-color:#C2FCBB"/>
	<stop  offset="0.5679" style="stop-color:#B4F5B3"/>
	<stop  offset="0.7756" style="stop-color:#9EE8A8"/>
	<stop  offset="0.9879" style="stop-color:#80D797"/>
	<stop  offset="1" style="stop-color:#7ED696"/>
</radialGradient>
<path fill="url(#SVGID_5_)" d="M18.618,35.46c-0.162,0.626-1.44,3.606-2.1,6.871c-0.261,1.291-0.437,2.619-0.6,3.808
	c-1.546-0.666-3.003-1.494-4.349-2.467c-0.568-1.943-0.945-3.783-0.873-4.585c0.19-2.147-0.764-1.767-1.432-3.342
	c-0.669-1.574-1.576-1.813-1.004-3.53c0.573-1.719,1.527-2.482,0.669-2.913c-0.859-0.429-1.146-0.142-1.814-0.811
	c-0.666-0.668-0.237-0.953-0.618-1.099c-0.382-0.143-0.669-0.621-1.575-0.953c-0.886-0.326-1.771,0.028-2.921-1.64
	c0.04-4.723,1.502-9.105,3.98-12.739c0.71,0.259,1.5,0.567,1.756,1.11c0.382,0.811,0.668,1.861,1.002,1.479
	c0.335-0.382-0.246-1.003,0.234-1.433c0.48-0.429,0.569-1.617,0.192-1.904c-0.379-0.291-0.244-0.91,0-1.483
	c0.24-0.572,1.291,0.286,1.815,0.764c0.525,0.478,0.573,1.432,0.86,1.337c0.286-0.097,0.429-1.574,0.954-0.526
	c0.523,1.051,1.86,2.101,1.813,2.673c-0.048,0.573-0.955-0.143-1.67,0.907c-0.716,1.051-0.384,1.384,0.238,1.433
	c0.62,0.048-1.671,0.715-3.055,2.242c-1.384,1.527-1.527,3.866-1.48,4.726c0.05,0.857-0.572-1.098-1.765-1.337
	c-1.192-0.238-2.529-0.195-2.959,0.428c-0.431,0.621,0.095,3.534,1.051,3.199c0.953-0.333,1.288-1.097,1.717-1.051
	c0.429,0.049-0.189,0.907,0,1.527c0.191,0.621,0.477,0.24,0.955,0.621s0.047,1.574,1.001,1.908c0.955,0.334,0.573,0.047,1.146-0.478
	c0.573-0.524,3.103-0.478,4.297,1.097c1.193,1.576,2.386,0.813,2.957,2.149c0.574,1.336,1.338,0.429,2.196,1.526
	C20.098,34.074,18.952,34.171,18.618,35.46z"/>
<radialGradient id="SVGID_6_" cx="295.1982" cy="-363.5996" r="20.981" gradientTransform="matrix(1 0 0 -1 -272.5996 -344.9902)" gradientUnits="userSpaceOnUse">
	<stop  offset="0.1867" style="stop-color:#C6FFBD"/>
	<stop  offset="0.3685" style="stop-color:#C2FCBB"/>
	<stop  offset="0.5679" style="stop-color:#B4F5B3"/>
	<stop  offset="0.7756" style="stop-color:#9EE8A8"/>
	<stop  offset="0.9879" style="stop-color:#80D797"/>
	<stop  offset="1" style="stop-color:#7ED696"/>
</radialGradient>
<path fill="url(#SVGID_6_)" d="M7.451,24.388c0.716-0.383,1.48-0.144,2.147,0.334c0.669,0.477,2.435,0.811,2.435,0.811
	c-2.529,0.238-2.529,0.238-2.529,0.238c-1.098-0.787-0.478-0.57-1.098-0.787C7.786,24.77,7.451,24.388,7.451,24.388z"/>
<path opacity="0.25" fill="#32687F" enable-background="new    " d="M48,25c0,12.702-10.298,23-23,23S2,37.702,2,25
	c0-1.664,0.177-3.286,0.512-4.85C3.83,30.652,13.395,38.8,25,38.8c11.604,0,21.171-8.147,22.488-18.649
	C47.822,21.714,48,23.336,48,25z"/>
</svg>
